<?xml version="1.0" encoding="UTF-8"?>
<!DOCTYPE svg PUBLIC "-//W3C//DTD SVG 1.1//EN" "http://www.w3.org/Graphics/SVG/1.1/DTD/svg11.dtd">
<svg xmlns="http://www.w3.org/2000/svg" version="1.1" width="960px" height="264px" style="shape-rendering:geometricPrecision; text-rendering:geometricPrecision; image-rendering:optimizeQuality; fill-rule:evenodd; clip-rule:evenodd" xmlns:xlink="http://www.w3.org/1999/xlink">
<g><path style="opacity:1" fill="#fefefe" d="M -0.5,-0.5 C 319.5,-0.5 639.5,-0.5 959.5,-0.5C 959.5,87.5 959.5,175.5 959.5,263.5C 639.5,263.5 319.5,263.5 -0.5,263.5C -0.5,175.5 -0.5,87.5 -0.5,-0.5 Z"/></g>
<g><path style="opacity:1" fill="#d62528" d="M 129.5,28.5 C 144.648,29.1962 159.315,32.1962 173.5,37.5C 221.225,20.213 262.725,29.8797 298,66.5C 322.639,97.6557 328.973,132.322 317,170.5C 302.94,207.893 276.44,231.06 237.5,240C 225.539,241.504 213.539,241.838 201.5,241C 192.155,238.608 182.822,236.108 173.5,233.5C 126.158,250.941 85.3248,241.607 51,205.5C 24.6282,171.909 18.6282,134.909 33,94.5C 52.5143,53.6827 84.6809,31.6827 129.5,28.5 Z"/></g>
<g><path style="opacity:1" fill="#fefdfd" d="M 169.5,38.5 C 219.324,39.8373 251.824,64.1706 267,111.5C 275.796,162.739 257.296,200.239 211.5,224C 168.19,239.381 131.023,230.214 100,196.5C 74.4097,161.206 71.743,124.206 92,85.5C 110.307,57.4297 136.14,41.763 169.5,38.5 Z"/></g>
<g><path style="opacity:1" fill="#595a5a" d="M 897.5,171.5 C 898.49,165.355 898.823,159.022 898.5,152.5C 887.833,152.5 877.167,152.5 866.5,152.5C 866.5,142.833 866.5,133.167 866.5,123.5C 886.833,123.5 907.167,123.5 927.5,123.5C 927.667,144.169 927.5,164.836 927,185.5C 900.015,207.977 869.848,213.477 836.5,202C 803.246,183.993 790.079,156.159 797,118.5C 807.508,82.6743 831.508,64.0077 869,62.5C 889.589,61.6941 907.423,68.1941 922.5,82C 916.35,89.8157 909.85,97.3157 903,104.5C 886.559,90.6343 868.392,87.8009 848.5,96C 834.278,105.607 827.278,119.107 827.5,136.5C 829.071,163.568 843.238,178.235 870,180.5C 880.176,180.163 889.342,177.163 897.5,171.5 Z"/></g>
<g><path style="opacity:1" fill="#595a5a" d="M 375.5,64.5 C 386.172,64.3335 396.839,64.5002 407.5,65C 419.779,84.3831 431.946,103.883 444,123.5C 455.969,104.033 468.136,84.7001 480.5,65.5C 491.146,64.5013 501.813,64.168 512.5,64.5C 512.5,111.833 512.5,159.167 512.5,206.5C 502.985,206.827 493.652,206.494 484.5,205.5C 484.833,175.159 484.5,144.826 483.5,114.5C 482.893,114.624 482.56,114.957 482.5,115.5C 469.925,134.977 457.092,154.31 444,173.5C 430.898,154.281 418.065,134.948 405.5,115.5C 405.44,114.957 405.107,114.624 404.5,114.5C 403.5,144.826 403.167,175.159 403.5,205.5C 394.167,205.5 384.833,205.5 375.5,205.5C 375.5,158.5 375.5,111.5 375.5,64.5 Z"/></g>
<g><path style="opacity:1" fill="#595a5a" d="M 536.5,64.5 C 546.167,64.5 555.833,64.5 565.5,64.5C 565.333,92.8353 565.5,121.169 566,149.5C 568.877,173.038 582.043,182.871 605.5,179C 616.307,176.193 623.14,169.36 626,158.5C 627.454,127.203 627.954,95.8694 627.5,64.5C 637.167,64.5 646.833,64.5 656.5,64.5C 656.667,95.8351 656.5,127.168 656,158.5C 650.046,192.28 629.88,208.613 595.5,207.5C 561.777,207.618 542.277,190.951 537,157.5C 536.5,126.502 536.333,95.5018 536.5,64.5 Z"/></g>
<g><path style="opacity:1" fill="#595a5a" d="M 789.5,93.5 C 762.833,93.5 736.167,93.5 709.5,93.5C 709.5,103.5 709.5,113.5 709.5,123.5C 730.167,123.5 750.833,123.5 771.5,123.5C 771.5,133.167 771.5,142.833 771.5,152.5C 750.833,152.5 730.167,152.5 709.5,152.5C 709.5,170.5 709.5,188.5 709.5,206.5C 699.833,206.5 690.167,206.5 680.5,206.5C 680.5,159.167 680.5,111.833 680.5,64.5C 716.833,64.5 753.167,64.5 789.5,64.5C 789.5,74.1667 789.5,83.8333 789.5,93.5 Z"/></g>
<g><path style="opacity:1" fill="#d62528" d="M 163.5,91.5 C 190.052,88.6799 207.885,99.6799 217,124.5C 220.853,152.279 209.353,170.446 182.5,179C 154.911,181.461 137.744,169.294 131,142.5C 128.703,117.087 139.537,100.087 163.5,91.5 Z"/></g>
<g><path style="opacity:1" fill="#ccd1d9" d="M 789.5,93.5 C 763.339,94.4978 737.005,94.8312 710.5,94.5C 710.5,103.833 710.5,113.167 710.5,122.5C 731.007,122.17 751.34,122.503 771.5,123.5C 750.833,123.5 730.167,123.5 709.5,123.5C 709.5,113.5 709.5,103.5 709.5,93.5C 736.167,93.5 762.833,93.5 789.5,93.5 Z"/></g>
<g><path style="opacity:1" fill="#7c7e7e" d="M 375.5,64.5 C 375.5,111.5 375.5,158.5 375.5,205.5C 384.833,205.5 394.167,205.5 403.5,205.5C 403.167,175.159 403.5,144.826 404.5,114.5C 405.107,114.624 405.44,114.957 405.5,115.5C 404.502,145.662 404.169,175.995 404.5,206.5C 394.5,206.5 384.5,206.5 374.5,206.5C 374.168,158.997 374.501,111.664 375.5,64.5 Z"/></g>
<g><path style="opacity:1" fill="#a1a8b9" d="M 482.5,115.5 C 482.56,114.957 482.893,114.624 483.5,114.5C 484.5,144.826 484.833,175.159 484.5,205.5C 483.833,175.5 483.167,145.5 482.5,115.5 Z"/></g>
<g><path style="opacity:1" fill="#818386" d="M 866.5,123.5 C 866.5,133.167 866.5,142.833 866.5,152.5C 877.167,152.5 887.833,152.5 898.5,152.5C 898.823,159.022 898.49,165.355 897.5,171.5C 897.5,165.5 897.5,159.5 897.5,153.5C 886.833,153.5 876.167,153.5 865.5,153.5C 865.173,143.319 865.506,133.319 866.5,123.5 Z"/></g>
<g><path style="opacity:1" fill="#bbc0ca" d="M 771.5,152.5 C 751.34,153.497 731.007,153.83 710.5,153.5C 710.83,171.341 710.497,189.008 709.5,206.5C 709.5,188.5 709.5,170.5 709.5,152.5C 730.167,152.5 750.833,152.5 771.5,152.5 Z"/></g>
</svg>
