<?xml version="1.0" encoding="UTF-8"?>
<!DOCTYPE svg PUBLIC "-//W3C//DTD SVG 1.1//EN" "http://www.w3.org/Graphics/SVG/1.1/DTD/svg11.dtd">
<svg xmlns="http://www.w3.org/2000/svg" version="1.1" width="391px" height="129px" style="shape-rendering:geometricPrecision; text-rendering:geometricPrecision; image-rendering:optimizeQuality; fill-rule:evenodd; clip-rule:evenodd" xmlns:xlink="http://www.w3.org/1999/xlink">
<g><path style="opacity:1" fill="#fdfdfc" d="M -0.5,-0.5 C 105.167,-0.5 210.833,-0.5 316.5,-0.5C 282.468,7.20719 264.135,28.5405 261.5,63.5C 264.27,97.9279 282.27,119.595 315.5,128.5C 210.167,128.5 104.833,128.5 -0.5,128.5C -0.5,118.5 -0.5,108.5 -0.5,98.5C 3.83333,98.5 8.16667,98.5 12.5,98.5C 13.4975,75.6727 13.8308,52.6727 13.5,29.5C 8.83333,29.5 4.16667,29.5 -0.5,29.5C -0.5,19.5 -0.5,9.5 -0.5,-0.5 Z"/></g>
<g><path style="opacity:1" fill="#fcfaf8" d="M 335.5,-0.5 C 353.833,-0.5 372.167,-0.5 390.5,-0.5C 390.5,18.1667 390.5,36.8333 390.5,55.5C 387.066,35.4834 376.733,19.9834 359.5,9C 351.848,4.73174 343.848,1.56507 335.5,-0.5 Z"/></g>
<g><path style="opacity:1" fill="#c31e20" d="M 316.5,-0.5 C 322.833,-0.5 329.167,-0.5 335.5,-0.5C 343.848,1.56507 351.848,4.73174 359.5,9C 376.733,19.9834 387.066,35.4834 390.5,55.5C 390.5,60.8333 390.5,66.1667 390.5,71.5C 384.789,102.547 366.455,121.547 335.5,128.5C 328.833,128.5 322.167,128.5 315.5,128.5C 282.27,119.595 264.27,97.9279 261.5,63.5C 264.135,28.5405 282.468,7.20719 316.5,-0.5 Z"/></g>
<g><path style="opacity:1" fill="#f0c4be" d="M 343.5,12.5 C 335.116,12.4271 326.95,12.0938 319,11.5C 313.667,11.7815 308.5,12.7815 303.5,14.5C 310.371,10.6528 317.871,8.98617 326,9.5C 331.213,9.5462 336.38,10.0462 341.5,11C 342.416,11.2784 343.082,11.7784 343.5,12.5 Z"/></g>
<g><path style="opacity:1" fill="#e3938c" d="M 303.5,14.5 C 301.967,16.2451 299.967,17.2451 297.5,17.5C 299.033,15.7549 301.033,14.7549 303.5,14.5 Z"/></g>
<g><path style="opacity:1" fill="#555454" d="M 222.5,42.5 C 222.5,38.5 222.5,34.5 222.5,30.5C 212.828,30.3335 203.161,30.5002 193.5,31C 190.223,32.1434 186.89,32.9767 183.5,33.5C 185.858,31.8714 188.524,30.7048 191.5,30C 202.161,29.5002 212.828,29.3335 223.5,29.5C 223.818,34.0323 223.485,38.3656 222.5,42.5 Z"/></g>
<g><path style="opacity:1" fill="#241f21" d="M -0.5,30.5 C 3.83333,30.5 8.16667,30.5 12.5,30.5C 12.5,53.1667 12.5,75.8333 12.5,98.5C 8.16667,98.5 3.83333,98.5 -0.5,98.5C -0.5,75.8333 -0.5,53.1667 -0.5,30.5 Z"/></g>
<g><path style="opacity:1" fill="#5b5a5a" d="M -0.5,30.5 C -0.5,30.1667 -0.5,29.8333 -0.5,29.5C 4.16667,29.5 8.83333,29.5 13.5,29.5C 13.8308,52.6727 13.4975,75.6727 12.5,98.5C 12.5,75.8333 12.5,53.1667 12.5,30.5C 8.16667,30.5 3.83333,30.5 -0.5,30.5 Z"/></g>
<g><path style="opacity:1" fill="#c2c1c1" d="M 135.5,29.5 C 122.167,29.5 108.833,29.5 95.5,29.5C 95.5,52.5 95.5,75.5 95.5,98.5C 109.833,98.5 124.167,98.5 138.5,98.5C 124.01,99.496 109.343,99.8293 94.5,99.5C 94.5,75.8333 94.5,52.1667 94.5,28.5C 108.344,28.171 122.01,28.5043 135.5,29.5 Z"/></g>
<g><path style="opacity:1" fill="#242122" d="M 135.5,29.5 C 140.72,31.0149 145.553,33.3482 150,36.5C 151.094,38.0779 151.928,39.7446 152.5,41.5C 153.74,46.8259 153.74,52.1592 152.5,57.5C 150.854,59.1457 149.188,60.8123 147.5,62.5C 156.317,68.8309 158.817,77.1643 155,87.5C 151.489,94.0147 145.989,97.6813 138.5,98.5C 124.167,98.5 109.833,98.5 95.5,98.5C 95.5,75.5 95.5,52.5 95.5,29.5C 108.833,29.5 122.167,29.5 135.5,29.5 Z"/></g>
<g><path style="opacity:1" fill="#fbf9f5" d="M 343.5,12.5 C 363.443,19.4618 375.776,33.4618 380.5,54.5C 381.058,64.0289 380.058,73.3623 377.5,82.5C 374.976,86.7466 372.643,91.08 370.5,95.5C 368.273,97.6068 366.273,99.9401 364.5,102.5C 344.23,120.572 321.896,123.405 297.5,111C 293.307,107.635 289.307,104.135 285.5,100.5C 280.378,94.1238 276.378,87.1238 273.5,79.5C 273.007,77.1944 272.674,74.861 272.5,72.5C 271.825,62.9294 272.825,53.596 275.5,44.5C 279.926,33.0795 287.259,24.0795 297.5,17.5C 299.967,17.2451 301.967,16.2451 303.5,14.5C 308.5,12.7815 313.667,11.7815 319,11.5C 326.95,12.0938 335.116,12.4271 343.5,12.5 Z"/></g>
<g><path style="opacity:1" fill="#cf5857" d="M 329.5,29.5 C 329.5,32.5 329.5,35.5 329.5,38.5C 337.019,38.175 344.352,38.5084 351.5,39.5C 351.167,39.5 350.833,39.5 350.5,39.5C 343.167,39.5 335.833,39.5 328.5,39.5C 328.187,35.9581 328.521,32.6248 329.5,29.5 Z"/></g>
<g><path style="opacity:1" fill="#f4b7b0" d="M 291.5,29.5 C 291.173,39.3478 291.506,49.0144 292.5,58.5C 299.022,58.1765 305.355,58.5098 311.5,59.5C 304.5,59.5 297.5,59.5 290.5,59.5C 290.173,49.3194 290.506,39.3194 291.5,29.5 Z"/></g>
<g><path style="opacity:1" fill="#e99591" d="M 329.5,29.5 C 339.987,28.5056 350.654,28.1722 361.5,28.5C 361.5,38.8333 361.5,49.1667 361.5,59.5C 354.833,59.5 348.167,59.5 341.5,59.5C 347.645,58.5098 353.978,58.1765 360.5,58.5C 360.5,48.8333 360.5,39.1667 360.5,29.5C 350.167,29.5 339.833,29.5 329.5,29.5 Z"/></g>
<g><path style="opacity:1" fill="#ca4345" d="M 291.5,29.5 C 302.167,29.5 312.833,29.5 323.5,29.5C 323.5,32.8333 323.5,36.1667 323.5,39.5C 316.167,39.5 308.833,39.5 301.5,39.5C 308.313,38.5088 315.313,38.1755 322.5,38.5C 322.768,35.8806 322.435,33.3806 321.5,31C 311.839,30.5002 302.172,30.3335 292.5,30.5C 292.5,39.8333 292.5,49.1667 292.5,58.5C 291.506,49.0144 291.173,39.3478 291.5,29.5 Z"/></g>
<g><path style="opacity:1" fill="#fafafa" d="M 108.5,42.5 C 118.58,42.0766 128.58,42.5766 138.5,44C 140.478,46.4973 140.978,49.3307 140,52.5C 139.208,54.6437 137.708,55.977 135.5,56.5C 126.5,56.5 117.5,56.5 108.5,56.5C 108.5,51.8333 108.5,47.1667 108.5,42.5 Z"/></g>
<g><path style="opacity:1" fill="#a8a6a6" d="M 152.5,41.5 C 154.017,43.4621 154.684,45.7954 154.5,48.5C 154.553,51.7847 153.886,54.7847 152.5,57.5C 153.74,52.1592 153.74,46.8259 152.5,41.5 Z"/></g>
<g><path style="opacity:1" fill="#e7a39a" d="M 350.5,39.5 C 350.833,39.5 351.167,39.5 351.5,39.5C 351.5,42.8333 351.5,46.1667 351.5,49.5C 344.833,49.5 338.167,49.5 331.5,49.5C 331.5,59.1667 331.5,68.8333 331.5,78.5C 338.167,78.5 344.833,78.5 351.5,78.5C 351.5,81.8333 351.5,85.1667 351.5,88.5C 351.167,88.5 350.833,88.5 350.5,88.5C 350.5,85.5 350.5,82.5 350.5,79.5C 343.833,79.5 337.167,79.5 330.5,79.5C 330.5,69.1667 330.5,58.8333 330.5,48.5C 337.167,48.5 343.833,48.5 350.5,48.5C 350.5,45.5 350.5,42.5 350.5,39.5 Z"/></g>
<g><path style="opacity:1" fill="#c31b1f" d="M 329.5,29.5 C 339.833,29.5 350.167,29.5 360.5,29.5C 360.5,39.1667 360.5,48.8333 360.5,58.5C 353.978,58.1765 347.645,58.5098 341.5,59.5C 340.521,62.6248 340.187,65.9581 340.5,69.5C 347.167,69.5 353.833,69.5 360.5,69.5C 360.5,79.1667 360.5,88.8333 360.5,98.5C 360.167,98.5 359.833,98.5 359.5,98.5C 349.111,99.141 339.111,98.4743 329.5,96.5C 329.5,94.1667 329.5,91.8333 329.5,89.5C 337.019,89.825 344.352,89.4916 351.5,88.5C 351.5,85.1667 351.5,81.8333 351.5,78.5C 344.833,78.5 338.167,78.5 331.5,78.5C 331.5,68.8333 331.5,59.1667 331.5,49.5C 338.167,49.5 344.833,49.5 351.5,49.5C 351.5,46.1667 351.5,42.8333 351.5,39.5C 344.352,38.5084 337.019,38.175 329.5,38.5C 329.5,35.5 329.5,32.5 329.5,29.5 Z"/></g>
<g><path style="opacity:1" fill="#ce6b66" d="M 275.5,44.5 C 272.825,53.596 271.825,62.9294 272.5,72.5C 271.344,65.0113 271.178,57.3446 272,49.5C 273.189,47.7669 274.356,46.1002 275.5,44.5 Z"/></g>
<g><path style="opacity:1" fill="#787677" d="M 108.5,42.5 C 108.5,47.1667 108.5,51.8333 108.5,56.5C 117.5,56.5 126.5,56.5 135.5,56.5C 126.348,57.4936 117.015,57.8269 107.5,57.5C 107.179,52.3054 107.513,47.3054 108.5,42.5 Z"/></g>
<g><path style="opacity:1" fill="#bc4d4d" d="M 380.5,54.5 C 382.054,63.4668 381.554,72.4668 379,81.5C 378.617,82.056 378.117,82.3893 377.5,82.5C 380.058,73.3623 381.058,64.0289 380.5,54.5 Z"/></g>
<g><path style="opacity:1" fill="#7a7879" d="M 27.5,49.5 C 25.8414,56.3781 25.1747,63.3781 25.5,70.5C 24.3503,65.6842 24.1837,60.6842 25,55.5C 25.5662,53.2774 26.3995,51.2774 27.5,49.5 Z"/></g>
<g><path style="opacity:1" fill="#df807b" d="M 301.5,48.5 C 308.167,48.5 314.833,48.5 321.5,48.5C 321.5,58.8333 321.5,69.1667 321.5,79.5C 314.833,79.5 308.167,79.5 301.5,79.5C 307.645,78.5098 313.978,78.1765 320.5,78.5C 320.5,68.8333 320.5,59.1667 320.5,49.5C 313.978,49.8235 307.645,49.4902 301.5,48.5 Z"/></g>
<g><path style="opacity:1" fill="#f9f9f9" d="M 108.5,69.5 C 117.839,69.3335 127.173,69.5002 136.5,70C 144.726,72.4373 146.393,77.104 141.5,84C 140.255,84.7914 138.922,85.2914 137.5,85.5C 127.833,85.5 118.167,85.5 108.5,85.5C 108.5,80.1667 108.5,74.8333 108.5,69.5 Z"/></g>
<g><path style="opacity:1" fill="#e58f8c" d="M 341.5,59.5 C 341.5,62.5 341.5,65.5 341.5,68.5C 348.167,68.5 354.833,68.5 361.5,68.5C 361.827,78.6806 361.494,88.6806 360.5,98.5C 360.5,88.8333 360.5,79.1667 360.5,69.5C 353.833,69.5 347.167,69.5 340.5,69.5C 340.187,65.9581 340.521,62.6248 341.5,59.5 Z"/></g>
<g><path style="opacity:1" fill="#c1191d" d="M 301.5,39.5 C 301.5,42.5 301.5,45.5 301.5,48.5C 307.645,49.4902 313.978,49.8235 320.5,49.5C 320.5,59.1667 320.5,68.8333 320.5,78.5C 313.978,78.1765 307.645,78.5098 301.5,79.5C 301.5,82.5 301.5,85.5 301.5,88.5C 308.833,88.5 316.167,88.5 323.5,88.5C 323.5,89.8333 323.5,91.1667 323.5,92.5C 322.766,93.8775 322.099,95.3775 321.5,97C 311.839,97.4998 302.172,97.6665 292.5,97.5C 292.5,88.1667 292.5,78.8333 292.5,69.5C 299.022,69.8235 305.355,69.4902 311.5,68.5C 311.5,65.5 311.5,62.5 311.5,59.5C 305.355,58.5098 299.022,58.1765 292.5,58.5C 292.5,49.1667 292.5,39.8333 292.5,30.5C 302.172,30.3335 311.839,30.5002 321.5,31C 322.435,33.3806 322.768,35.8806 322.5,38.5C 315.313,38.1755 308.313,38.5088 301.5,39.5 Z"/></g>
<g><path style="opacity:1" fill="#7c7b7c" d="M 108.5,69.5 C 108.5,74.8333 108.5,80.1667 108.5,85.5C 118.167,85.5 127.833,85.5 137.5,85.5C 127.681,86.494 117.681,86.8274 107.5,86.5C 107.178,80.642 107.511,74.9753 108.5,69.5 Z"/></g>
<g><path style="opacity:1" fill="#5c5a5b" d="M 199.5,85.5 C 207.5,85.5 215.5,85.5 223.5,85.5C 223.5,89.8333 223.5,94.1667 223.5,98.5C 223.167,98.5 222.833,98.5 222.5,98.5C 222.5,94.5 222.5,90.5 222.5,86.5C 214.648,86.8254 206.982,86.492 199.5,85.5 Z"/></g>
<g><path style="opacity:1" fill="#222021" d="M 81.5,97.5 C 70.8064,97.7088 60.1398,97.3755 49.5,96.5C 35.6328,93.2979 27.6328,84.6312 25.5,70.5C 25.1747,63.3781 25.8414,56.3781 27.5,49.5C 30.9878,41.1801 36.9878,35.3468 45.5,32C 57.4242,30.5625 69.4242,30.0625 81.5,30.5C 81.5,34.5 81.5,38.5 81.5,42.5C 73.4931,42.3336 65.4931,42.5003 57.5,43C 39.4988,46.6396 33.6654,57.1396 40,74.5C 44.0043,80.9238 49.8377,84.4238 57.5,85C 65.4931,85.4997 73.4931,85.6664 81.5,85.5C 81.5,89.5 81.5,93.5 81.5,97.5 Z"/></g>
<g><path style="opacity:1" fill="#242122" d="M 222.5,42.5 C 213.161,42.3335 203.827,42.5002 194.5,43C 179.933,48.3137 175.099,58.4804 180,73.5C 184.184,81.1789 190.684,85.1789 199.5,85.5C 206.982,86.492 214.648,86.8254 222.5,86.5C 222.5,90.5 222.5,94.5 222.5,98.5C 209.318,99.1215 196.318,98.1215 183.5,95.5C 168.211,86.568 162.378,73.2347 166,55.5C 168.36,45.3168 174.193,37.9835 183.5,33.5C 186.89,32.9767 190.223,32.1434 193.5,31C 203.161,30.5002 212.828,30.3335 222.5,30.5C 222.5,34.5 222.5,38.5 222.5,42.5 Z"/></g>
<g><path style="opacity:1" fill="#be6461" d="M 350.5,88.5 C 350.833,88.5 351.167,88.5 351.5,88.5C 344.352,89.4916 337.019,89.825 329.5,89.5C 329.5,91.8333 329.5,94.1667 329.5,96.5C 329.167,96.5 328.833,96.5 328.5,96.5C 328.5,93.8333 328.5,91.1667 328.5,88.5C 335.833,88.5 343.167,88.5 350.5,88.5 Z"/></g>
<g><path style="opacity:1" fill="#fcfaf8" d="M 390.5,71.5 C 390.5,90.5 390.5,109.5 390.5,128.5C 372.167,128.5 353.833,128.5 335.5,128.5C 366.455,121.547 384.789,102.547 390.5,71.5 Z"/></g>
<g><path style="opacity:1" fill="#828181" d="M 49.5,96.5 C 60.1398,97.3755 70.8064,97.7088 81.5,97.5C 72.3425,98.6576 63.0092,98.8243 53.5,98C 51.9419,97.79 50.6085,97.29 49.5,96.5 Z"/></g>
<g><path style="opacity:1" fill="#be4847" d="M 311.5,68.5 C 305.355,69.4902 299.022,69.8235 292.5,69.5C 292.5,78.8333 292.5,88.1667 292.5,97.5C 302.172,97.6665 311.839,97.4998 321.5,97C 322.099,95.3775 322.766,93.8775 323.5,92.5C 323.5,94.5 323.5,96.5 323.5,98.5C 312.833,98.5 302.167,98.5 291.5,98.5C 291.5,88.5 291.5,78.5 291.5,68.5C 298.167,68.5 304.833,68.5 311.5,68.5 Z"/></g>
<g><path style="opacity:1" fill="#9c9b9b" d="M 183.5,95.5 C 196.318,98.1215 209.318,99.1215 222.5,98.5C 222.833,98.5 223.167,98.5 223.5,98.5C 211.971,99.8112 200.304,99.6446 188.5,98C 186.509,97.6264 184.842,96.793 183.5,95.5 Z"/></g>
<g><path style="opacity:1" fill="#c44a45" d="M 273.5,79.5 C 276.378,87.1238 280.378,94.1238 285.5,100.5C 283.883,99.962 282.216,99.6287 280.5,99.5C 277.562,93.1043 275.229,86.4376 273.5,79.5 Z"/></g>
<g><path style="opacity:1" fill="#f1aba2" d="M 328.5,96.5 C 328.833,96.5 329.167,96.5 329.5,96.5C 339.111,98.4743 349.111,99.141 359.5,98.5C 349.347,99.4942 339.014,99.8276 328.5,99.5C 328.5,98.5 328.5,97.5 328.5,96.5 Z"/></g>
<g><path style="opacity:1" fill="#d27773" d="M 370.5,95.5 C 369.652,98.8875 367.652,101.221 364.5,102.5C 366.273,99.9401 368.273,97.6068 370.5,95.5 Z"/></g>
</svg>
