<?xml version="1.0" encoding="UTF-8"?>
<!DOCTYPE svg PUBLIC "-//W3C//DTD SVG 1.1//EN" "http://www.w3.org/Graphics/SVG/1.1/DTD/svg11.dtd">
<svg xmlns="http://www.w3.org/2000/svg" version="1.1" width="1776px" height="180px" style="shape-rendering:geometricPrecision; text-rendering:geometricPrecision; image-rendering:optimizeQuality; fill-rule:evenodd; clip-rule:evenodd" xmlns:xlink="http://www.w3.org/1999/xlink">
<g><path style="opacity:1" fill="#fefefe" d="M -0.5,-0.5 C 591.5,-0.5 1183.5,-0.5 1775.5,-0.5C 1775.5,59.5 1775.5,119.5 1775.5,179.5C 1183.5,179.5 591.5,179.5 -0.5,179.5C -0.5,119.5 -0.5,59.5 -0.5,-0.5 Z"/></g>
<g><path style="opacity:1" fill="#fd1a31" d="M 1573.5,4.5 C 1595.88,9.29466 1617.55,16.2947 1638.5,25.5C 1631.34,28.2813 1624,30.1146 1616.5,31C 1597.22,22.0742 1577.22,15.2408 1556.5,10.5C 1562.21,8.33187 1567.88,6.33187 1573.5,4.5 Z"/></g>
<g><path style="opacity:1" fill="#fd1930" d="M 1533.5,18.5 C 1555.49,23.2194 1576.83,30.0528 1597.5,39C 1590.46,42.404 1583.46,45.904 1576.5,49.5C 1556.8,40.3182 1536.47,32.8182 1515.5,27C 1521.44,23.8618 1527.44,21.0285 1533.5,18.5 Z"/></g>
<g><path style="opacity:1" fill="#09276e" d="M 1491.5,35.5 C 1498.19,37.5635 1504.86,39.7302 1511.5,42C 1486.54,54.8099 1462.54,69.1432 1439.5,85C 1438.5,85.6667 1437.5,85.6667 1436.5,85C 1430.92,82.0439 1425.26,79.3772 1419.5,77C 1442.4,61.2731 1466.4,47.4397 1491.5,35.5 Z"/></g>
<g><path style="opacity:1" fill="#fe152f" d="M 1660.5,35.5 C 1667.85,40.1771 1675.52,44.3437 1683.5,48C 1625.79,68.3408 1573.45,97.6742 1526.5,136C 1525.5,136.667 1524.5,136.667 1523.5,136C 1516.31,130.639 1508.97,125.472 1501.5,120.5C 1549.19,82.486 1602.19,54.1526 1660.5,35.5 Z"/></g>
<g><path style="opacity:1" fill="#08266d" d="M 1530.5,50.5 C 1538.29,52.3933 1545.62,55.3933 1552.5,59.5C 1527.3,73.5941 1503.3,89.4274 1480.5,107C 1472.59,104.542 1465.26,100.709 1458.5,95.5C 1481.35,78.6609 1505.35,63.6609 1530.5,50.5 Z"/></g>
<g><path style="opacity:1" fill="#fe142f" d="M 1707.5,60.5 C 1716.77,65.1375 1725.77,70.3041 1734.5,76C 1677.34,101.725 1625.01,134.725 1577.5,175C 1568.06,169.66 1559.23,163.16 1551,155.5C 1550.84,153.613 1551.67,152.113 1553.5,151C 1580.07,130.438 1607.73,111.438 1636.5,94C 1659.48,81.132 1683.15,69.9654 1707.5,60.5 Z"/></g>
<g><path style="opacity:1" fill="#09276d" d="M 1243.5,71.5 C 1253.82,71.9973 1263.82,73.9973 1273.5,77.5C 1273.67,84.5079 1273.5,91.5079 1273,98.5C 1261.41,90.7629 1249.24,89.5962 1236.5,95C 1223.84,105.872 1221.01,119.039 1228,134.5C 1234.06,143.029 1242.39,147.362 1253,147.5C 1260.54,146.764 1267.54,144.43 1274,140.5C 1274.81,146.749 1274.64,152.916 1273.5,159C 1257.19,164.974 1240.86,164.974 1224.5,159C 1202.83,143.983 1196.33,123.816 1205,98.5C 1213.06,82.593 1225.89,73.593 1243.5,71.5 Z"/></g>
<g><path style="opacity:1" fill="#07266d" d="M 513.5,73.5 C 547.699,70.5774 566.699,86.0774 570.5,120C 569.355,144.141 557.021,158.807 533.5,164C 509.529,168.483 491.695,160.316 480,139.5C 475.374,125.84 475.374,112.173 480,98.5C 487.661,85.322 498.828,76.9887 513.5,73.5 Z"/></g>
<g><path style="opacity:1" fill="#08266d" d="M 134.5,163.5 C 127.313,163.825 120.313,163.491 113.5,162.5C 123.973,133.746 134.64,105.08 145.5,76.5C 152.803,75.5027 160.137,75.1694 167.5,75.5C 178.173,104.52 188.839,133.52 199.5,162.5C 192.197,163.497 184.863,163.831 177.5,163.5C 175.635,157.903 173.968,152.237 172.5,146.5C 161.5,146.5 150.5,146.5 139.5,146.5C 138.439,152.348 136.773,158.015 134.5,163.5 Z"/></g>
<g><path style="opacity:1" fill="#04256c" d="M 288.5,76.5 C 295.167,76.5 301.833,76.5 308.5,76.5C 308.5,105.167 308.5,133.833 308.5,162.5C 300.804,162.831 293.138,162.497 285.5,161.5C 274.125,142.887 262.292,124.554 250,106.5C 249.5,125.164 249.333,143.83 249.5,162.5C 242.833,162.5 236.167,162.5 229.5,162.5C 229.5,133.5 229.5,104.5 229.5,75.5C 236.841,75.3337 244.174,75.5003 251.5,76C 263.697,94.854 275.864,113.687 288,132.5C 288.5,113.836 288.667,95.1696 288.5,76.5 Z"/></g>
<g><path style="opacity:1" fill="#697da7" d="M 288.5,76.5 C 295.313,75.5088 302.313,75.1755 309.5,75.5C 309.831,104.671 309.498,133.671 308.5,162.5C 308.5,133.833 308.5,105.167 308.5,76.5C 301.833,76.5 295.167,76.5 288.5,76.5 Z"/></g>
<g><path style="opacity:1" fill="#3c5489" d="M 655.5,78.5 C 636.341,77.503 617.007,77.1697 597.5,77.5C 597.5,81.1667 597.5,84.8333 597.5,88.5C 596.517,84.7016 596.183,80.7016 596.5,76.5C 616.511,76.167 636.511,76.5004 656.5,77.5C 656.376,78.1067 656.043,78.44 655.5,78.5 Z"/></g>
<g><path style="opacity:1" fill="#08266d" d="M 733.5,75.5 C 740.863,75.1694 748.197,75.5027 755.5,76.5C 766.413,105.078 777.413,133.578 788.5,162C 780.812,162.831 773.145,162.665 765.5,161.5C 763.458,156.627 761.792,151.627 760.5,146.5C 749.52,145.501 738.52,145.168 727.5,145.5C 726.644,151.069 724.977,156.402 722.5,161.5C 715.5,162.833 708.5,162.833 701.5,161.5C 712.37,132.887 723.037,104.22 733.5,75.5 Z"/></g>
<g><path style="opacity:1" fill="#06256d" d="M 841.5,110.5 C 841.315,108.804 840.481,107.471 839,106.5C 838.5,125.164 838.333,143.83 838.5,162.5C 832.167,162.5 825.833,162.5 819.5,162.5C 819.5,133.5 819.5,104.5 819.5,75.5C 827.84,75.3336 836.173,75.5003 844.5,76C 851.411,91.3242 858.745,106.491 866.5,121.5C 874.25,106.501 881.583,91.3344 888.5,76C 896.827,75.5003 905.16,75.3336 913.5,75.5C 914.216,104.494 914.549,133.494 914.5,162.5C 907.833,162.5 901.167,162.5 894.5,162.5C 894.667,143.497 894.5,124.497 894,105.5C 884.711,124.41 875.711,143.41 867,162.5C 857.681,145.529 849.181,128.196 841.5,110.5 Z"/></g>
<g><path style="opacity:1" fill="#334d84" d="M 954.5,77.5 C 974.337,76.1721 994.337,76.1721 1014.5,77.5C 1014.38,78.1067 1014.04,78.44 1013.5,78.5C 994.007,77.5029 974.34,77.1696 954.5,77.5 Z"/></g>
<g><path style="opacity:1" fill="#08266d" d="M 1329.5,75.5 C 1337.09,75.1858 1344.59,75.5192 1352,76.5C 1362.72,104.817 1373.55,133.15 1384.5,161.5C 1377.19,162.665 1369.86,162.831 1362.5,162C 1360.1,156.811 1358.1,151.477 1356.5,146C 1345.82,145.168 1335.15,145.334 1324.5,146.5C 1322.42,151.724 1320.76,157.058 1319.5,162.5C 1312.14,162.831 1304.8,162.497 1297.5,161.5C 1307.06,136.045 1316.9,110.712 1327,85.5C 1328.15,82.2321 1328.98,78.8988 1329.5,75.5 Z"/></g>
<g><path style="opacity:1" fill="#7689b0" d="M 350.5,76.5 C 350.5,105.5 350.5,134.5 350.5,163.5C 357.5,163.5 364.5,163.5 371.5,163.5C 364.352,164.492 357.019,164.825 349.5,164.5C 349.169,134.995 349.502,105.662 350.5,76.5 Z"/></g>
<g><path style="opacity:1" fill="#06256d" d="M 350.5,76.5 C 357.5,76.5 364.5,76.5 371.5,76.5C 371.333,90.1707 371.5,103.837 372,117.5C 380.697,104.301 389.197,90.9672 397.5,77.5C 405.5,76.1667 413.5,76.1667 421.5,77.5C 412.167,91.5 402.833,105.5 393.5,119.5C 403.891,134.208 414.224,148.875 424.5,163.5C 416.016,164.493 407.349,164.826 398.5,164.5C 390.692,149.553 381.858,135.22 372,121.5C 371.5,135.496 371.333,149.496 371.5,163.5C 364.5,163.5 357.5,163.5 350.5,163.5C 350.5,134.5 350.5,105.5 350.5,76.5 Z"/></g>
<g><path style="opacity:1" fill="#04256c" d="M 655.5,78.5 C 655.012,83.2737 654.012,87.9403 652.5,92.5C 641.854,93.4987 631.187,93.832 620.5,93.5C 619.509,99.979 619.176,106.646 619.5,113.5C 628.833,113.5 638.167,113.5 647.5,113.5C 647.5,118.833 647.5,124.167 647.5,129.5C 638.167,129.5 628.833,129.5 619.5,129.5C 619.5,140.833 619.5,152.167 619.5,163.5C 612.5,163.5 605.5,163.5 598.5,163.5C 597.569,138.517 597.236,113.517 597.5,88.5C 597.5,84.8333 597.5,81.1667 597.5,77.5C 617.007,77.1697 636.341,77.503 655.5,78.5 Z"/></g>
<g><path style="opacity:1" fill="#04256c" d="M 954.5,77.5 C 974.34,77.1696 994.007,77.5029 1013.5,78.5C 1012.66,83.5322 1011.66,88.5322 1010.5,93.5C 998.833,93.5 987.167,93.5 975.5,93.5C 975.5,99.1667 975.5,104.833 975.5,110.5C 985.319,111.494 995.319,111.827 1005.5,111.5C 1005.5,116.5 1005.5,121.5 1005.5,126.5C 995.652,126.173 985.986,126.506 976.5,127.5C 975.509,133.979 975.176,140.646 975.5,147.5C 988.167,147.5 1000.83,147.5 1013.5,147.5C 1013.5,152.833 1013.5,158.167 1013.5,163.5C 993.833,163.5 974.167,163.5 954.5,163.5C 954.5,134.833 954.5,106.167 954.5,77.5 Z"/></g>
<g><path style="opacity:1" fill="#02246c" d="M 1149.5,76.5 C 1156.35,76.176 1163.02,76.5093 1169.5,77.5C 1169.5,106.167 1169.5,134.833 1169.5,163.5C 1162.83,163.5 1156.17,163.5 1149.5,163.5C 1149.5,134.5 1149.5,105.5 1149.5,76.5 Z"/></g>
<g><path style="opacity:1" fill="#7285ad" d="M 1149.5,76.5 C 1149.5,105.5 1149.5,134.5 1149.5,163.5C 1156.17,163.5 1162.83,163.5 1169.5,163.5C 1169.5,134.833 1169.5,106.167 1169.5,77.5C 1170.5,106.329 1170.83,135.329 1170.5,164.5C 1163.17,164.5 1155.83,164.5 1148.5,164.5C 1148.17,134.995 1148.5,105.662 1149.5,76.5 Z"/></g>
<g><path style="opacity:1" fill="#06266d" d="M 23.5,78.5 C 38.1705,78.3334 52.8371,78.5001 67.5,79C 85.2121,82.9254 91.0454,93.4254 85,110.5C 82.0111,114.491 78.1778,117.324 73.5,119C 89.5118,125.347 94.0118,136.513 87,152.5C 83.663,156.847 79.4963,160.014 74.5,162C 57.5697,163.457 40.5697,163.957 23.5,163.5C 23.5,135.167 23.5,106.833 23.5,78.5 Z"/></g>
<g><path style="opacity:1" fill="#7c8db3" d="M 1088.5,78.5 C 1075.5,78.5 1062.5,78.5 1049.5,78.5C 1049.5,107.167 1049.5,135.833 1049.5,164.5C 1056.5,164.5 1063.5,164.5 1070.5,164.5C 1063.35,165.492 1056.02,165.825 1048.5,165.5C 1048.5,136.167 1048.5,106.833 1048.5,77.5C 1062.01,77.1711 1075.34,77.5044 1088.5,78.5 Z"/></g>
<g><path style="opacity:1" fill="#05256d" d="M 1088.5,78.5 C 1109.9,81.7207 1117.73,93.7207 1112,114.5C 1110.88,117.249 1109.38,119.749 1107.5,122C 1103.74,123.81 1100.08,125.81 1096.5,128C 1103.56,139.277 1110.22,150.777 1116.5,162.5C 1109.02,163.492 1101.35,163.825 1093.5,163.5C 1087.94,152.884 1082.28,142.384 1076.5,132C 1074.53,131.505 1072.53,131.338 1070.5,131.5C 1070.5,142.5 1070.5,153.5 1070.5,164.5C 1063.5,164.5 1056.5,164.5 1049.5,164.5C 1049.5,135.833 1049.5,107.167 1049.5,78.5C 1062.5,78.5 1075.5,78.5 1088.5,78.5 Z"/></g>
<g><path style="opacity:1" fill="#fcfcfd" d="M 516.5,91.5 C 532.561,90.3992 542.061,97.7326 545,113.5C 546.35,122.433 544.684,130.766 540,138.5C 528.622,150.033 516.955,150.366 505,139.5C 496.809,126.971 496.476,114.304 504,101.5C 507.598,97.3058 511.765,93.9724 516.5,91.5 Z"/></g>
<g><path style="opacity:1" fill="#f8f9fa" d="M 47.5,92.5 C 52.2675,92.1908 56.9342,92.6908 61.5,94C 67.6982,99.3692 68.0316,105.036 62.5,111C 57.0469,113.118 51.3803,113.952 45.5,113.5C 44.9287,106.219 45.5953,99.2192 47.5,92.5 Z"/></g>
<g><path style="opacity:1" fill="#fafafb" d="M 1071.5,92.5 C 1077.4,91.962 1083.07,92.7953 1088.5,95C 1092.61,101.227 1092.28,107.227 1087.5,113C 1081.76,115.295 1075.76,116.128 1069.5,115.5C 1068.92,107.559 1069.59,99.8919 1071.5,92.5 Z"/></g>
<g><path style="opacity:1" fill="#f2f3f7" d="M 155.5,98.5 C 156.497,98.4701 157.164,98.9701 157.5,100C 158.137,102.245 158.97,104.412 160,106.5C 162.269,113.806 164.436,121.14 166.5,128.5C 159.833,128.5 153.167,128.5 146.5,128.5C 149.5,118.5 152.5,108.5 155.5,98.5 Z"/></g>
<g><path style="opacity:1" fill="#f3f3f7" d="M 1340.5,98.5 C 1342.46,101.177 1343.96,104.177 1345,107.5C 1346.47,114.396 1348.63,121.062 1351.5,127.5C 1344.5,128.833 1337.5,128.833 1330.5,127.5C 1334.24,117.949 1337.57,108.282 1340.5,98.5 Z"/></g>
<g><path style="opacity:1" fill="#eeeff4" d="M 744.5,98.5 C 748.806,108.086 752.14,118.086 754.5,128.5C 747.833,128.5 741.167,128.5 734.5,128.5C 737.249,118.252 740.583,108.252 744.5,98.5 Z"/></g>
<g><path style="opacity:1" fill="#c7c9d8" d="M 841.5,110.5 C 840.883,110.389 840.383,110.056 840,109.5C 839.832,127.338 839.332,145.005 838.5,162.5C 838.333,143.83 838.5,125.164 839,106.5C 840.481,107.471 841.315,108.804 841.5,110.5 Z"/></g>
<g><path style="opacity:1" fill="#b7bdd1" d="M 620.5,93.5 C 620.5,99.8333 620.5,106.167 620.5,112.5C 629.682,112.173 638.682,112.507 647.5,113.5C 638.167,113.5 628.833,113.5 619.5,113.5C 619.176,106.646 619.509,99.979 620.5,93.5 Z"/></g>
<g><path style="opacity:1" fill="#4f6595" d="M 975.5,110.5 C 985.833,110.5 996.167,110.5 1006.5,110.5C 1006.5,116.167 1006.5,121.833 1006.5,127.5C 996.5,127.5 986.5,127.5 976.5,127.5C 985.986,126.506 995.652,126.173 1005.5,126.5C 1005.5,121.5 1005.5,116.5 1005.5,111.5C 995.319,111.827 985.319,111.494 975.5,110.5 Z"/></g>
<g><path style="opacity:1" fill="#5e729e" d="M 45.5,126.5 C 45.5,133.167 45.5,139.833 45.5,146.5C 50.1667,146.5 54.8333,146.5 59.5,146.5C 54.6946,147.487 49.6946,147.821 44.5,147.5C 44.1755,140.313 44.5088,133.313 45.5,126.5 Z"/></g>
<g><path style="opacity:1" fill="#fcfcfd" d="M 45.5,126.5 C 51.1764,126.334 56.8431,126.501 62.5,127C 68.1088,130.277 69.9422,135.11 68,141.5C 65.9713,144.596 63.138,146.262 59.5,146.5C 54.8333,146.5 50.1667,146.5 45.5,146.5C 45.5,139.833 45.5,133.167 45.5,126.5 Z"/></g>
<g><path style="opacity:1" fill="#8392b7" d="M 647.5,129.5 C 638.682,130.493 629.682,130.827 620.5,130.5C 620.5,141.833 620.5,153.167 620.5,164.5C 612.981,164.825 605.648,164.492 598.5,163.5C 605.5,163.5 612.5,163.5 619.5,163.5C 619.5,152.167 619.5,140.833 619.5,129.5C 628.833,129.5 638.167,129.5 647.5,129.5 Z"/></g>
<g><path style="opacity:1" fill="#93a1c2" d="M 113.5,162.5 C 120.313,163.491 127.313,163.825 134.5,163.5C 127.323,164.819 119.99,164.819 112.5,163.5C 112.624,162.893 112.957,162.56 113.5,162.5 Z"/></g>
<g><path style="opacity:1" fill="#8594b8" d="M 1013.5,147.5 C 1014.49,152.975 1014.82,158.642 1014.5,164.5C 994.326,164.83 974.326,164.497 954.5,163.5C 974.167,163.5 993.833,163.5 1013.5,163.5C 1013.5,158.167 1013.5,152.833 1013.5,147.5 Z"/></g>
<g><path style="opacity:1" fill="#93a0c1" d="M 1116.5,162.5 C 1117.04,162.56 1117.38,162.893 1117.5,163.5C 1109.34,164.82 1101.34,164.82 1093.5,163.5C 1101.35,163.825 1109.02,163.492 1116.5,162.5 Z"/></g>
<g><path style="opacity:1" fill="#96a3c3" d="M 424.5,163.5 C 425.043,163.56 425.376,163.893 425.5,164.5C 416.342,165.822 407.342,165.822 398.5,164.5C 407.349,164.826 416.016,164.493 424.5,163.5 Z"/></g>
</svg>
