<?xml version="1.0" encoding="UTF-8"?>
<!DOCTYPE svg PUBLIC "-//W3C//DTD SVG 1.1//EN" "http://www.w3.org/Graphics/SVG/1.1/DTD/svg11.dtd">
<svg xmlns="http://www.w3.org/2000/svg" version="1.1" width="3777px" height="1072px" style="shape-rendering:geometricPrecision; text-rendering:geometricPrecision; image-rendering:optimizeQuality; fill-rule:evenodd; clip-rule:evenodd" xmlns:xlink="http://www.w3.org/1999/xlink">
<g><path style="opacity:0.982" fill="#000000" d="M 577.5,-0.5 C 577.833,-0.5 578.167,-0.5 578.5,-0.5C 578.833,0.833333 579.167,0.833333 579.5,-0.5C 606.5,-0.5 633.5,-0.5 660.5,-0.5C 688.523,1.50482 716.189,6.33815 743.5,14C 810.821,43.1467 835.655,93.6467 818,165.5C 804.16,209.673 774.66,236.84 729.5,247C 716.919,249.321 704.252,250.988 691.5,252C 658.517,253.362 625.517,253.862 592.5,253.5C 592.333,301.501 592.5,349.501 593,397.5C 593.398,409.947 594.731,422.28 597,434.5C 604.367,450.279 616.867,458.112 634.5,458C 645.495,458.5 656.495,458.667 667.5,458.5C 667.633,464.243 667.967,469.743 668.5,475C 595.834,475.5 523.167,475.667 450.5,475.5C 450.193,469.907 450.527,464.407 451.5,459C 466.404,460.28 481.404,458.947 496.5,455C 508,451.5 515.5,444 519,432.5C 521.234,418.262 522.567,403.929 523,389.5C 523.667,288.833 523.667,188.167 523,87.5C 522.653,71.9993 520.987,56.666 518,41.5C 514.414,33.5795 508.58,28.0795 500.5,25C 483.981,21.9488 467.314,20.7821 450.5,21.5C 450.5,15.8333 450.5,10.1667 450.5,4.5C 492.996,2.96005 535.33,1.29338 577.5,-0.5 Z M 598.5,17.5 C 615.503,17.3334 632.503,17.5001 649.5,18C 673.202,19.0127 694.869,26.0127 714.5,39C 733.332,55.4912 744.165,76.3245 747,101.5C 754.341,139.138 747.008,173.472 725,204.5C 707.638,223.093 686.138,232.927 660.5,234C 637.865,235.411 615.198,235.911 592.5,235.5C 592.5,163.167 592.5,90.8333 592.5,18.5C 594.735,18.7947 596.735,18.4614 598.5,17.5 Z"/></g>
<g><path style="opacity:0.981" fill="#000000" d="M 181.5,4.5 C 254.5,4.5 327.5,4.5 400.5,4.5C 400.807,10.0934 400.473,15.5934 399.5,21C 387.833,21.3333 376.167,21.6667 364.5,22C 355.716,22.9443 347.382,25.2777 339.5,29C 335.123,33.043 331.956,37.8763 330,43.5C 327.942,55.7508 326.608,68.0841 326,80.5C 325.667,161.167 325.333,241.833 325,322.5C 324.572,345.452 321.905,368.118 317,390.5C 298.391,445.107 260.891,478.607 204.5,491C 171.504,498.28 138.504,498.28 105.5,491C 85.5046,486.424 68.6713,476.591 55,461.5C 41.7477,443.885 40.081,425.218 50,405.5C 61.7373,390.854 76.5706,386.687 94.5,393C 110.4,400.966 117.234,413.799 115,431.5C 112.213,439.409 109.713,447.409 107.5,455.5C 108.211,461.422 110.877,466.255 115.5,470C 157.514,486.331 194.348,478.498 226,446.5C 239.424,431.315 247.757,413.649 251,393.5C 253.431,372.226 255.098,350.893 256,329.5C 256.667,247.5 256.667,165.5 256,83.5C 255.591,69.33 253.924,55.33 251,41.5C 247.888,34.7215 243.055,29.5548 236.5,26C 229.009,23.6959 221.342,22.3625 213.5,22C 202.839,21.5002 192.172,21.3335 181.5,21.5C 181.5,15.8333 181.5,10.1667 181.5,4.5 Z"/></g>
<g><path style="opacity:0.975" fill="#000000" d="M 899.5,4.5 C 947.5,4.5 995.5,4.5 1043.5,4.5C 1099.98,134.088 1157.14,263.421 1215,392.5C 1271.47,263.417 1328.14,134.417 1385,5.5C 1433.43,4.5028 1481.93,4.16946 1530.5,4.5C 1530.5,10.1667 1530.5,15.8333 1530.5,21.5C 1514.79,21.0985 1499.12,21.5985 1483.5,23C 1467.71,23.4606 1457.88,31.2939 1454,46.5C 1451.38,66.2461 1449.88,86.0795 1449.5,106C 1450.82,193.002 1450.82,280.002 1449.5,367C 1449.84,388.592 1451.34,410.092 1454,431.5C 1460.44,449.323 1473.27,458.157 1492.5,458C 1505.16,458.5 1517.83,458.667 1530.5,458.5C 1530.5,464.167 1530.5,469.833 1530.5,475.5C 1455.17,475.5 1379.83,475.5 1304.5,475.5C 1304.5,469.833 1304.5,464.167 1304.5,458.5C 1321.9,460.843 1339.23,459.343 1356.5,454C 1367.23,449.603 1374.06,441.769 1377,430.5C 1379.62,409.921 1381.12,389.255 1381.5,368.5C 1380.69,264.838 1380.19,161.171 1380,57.5C 1319.24,196.858 1258.07,336.025 1196.5,475C 1194.24,475.236 1192.07,475.736 1190,476.5C 1186.4,476.306 1182.9,475.806 1179.5,475C 1117.48,335.934 1055.64,196.767 994,57.5C 993.333,162.833 993.333,268.167 994,373.5C 991.429,426.085 1016.26,454.418 1068.5,458.5C 1068.5,464.167 1068.5,469.833 1068.5,475.5C 1011.83,475.5 955.167,475.5 898.5,475.5C 898.193,469.907 898.527,464.407 899.5,459C 923.501,458.08 943.667,448.913 960,431.5C 964.998,424.503 968.665,416.836 971,408.5C 972.861,395.22 974.195,381.887 975,368.5C 975.667,272.5 975.667,176.5 975,80.5C 974.582,67.3071 972.915,54.3071 970,41.5C 966.414,33.5795 960.58,28.0795 952.5,25C 945.933,23.3501 939.267,22.3501 932.5,22C 921.172,21.5001 909.838,21.3335 898.5,21.5C 898.214,15.7414 898.548,10.0748 899.5,4.5 Z"/></g>
<g><path style="opacity:0.977" fill="#000000" d="M 1735.5,105.5 C 1803.78,100.858 1861.61,122.858 1909,171.5C 1937.25,206.904 1950.75,247.404 1949.5,293C 1950.06,365.248 1919.73,419.914 1858.5,457C 1820.42,476.071 1780.09,484.071 1737.5,481C 1670.33,477.685 1618.5,448.185 1582,392.5C 1557.14,344.989 1550.48,294.989 1562,242.5C 1574.39,193.462 1602.56,156.629 1646.5,132C 1674.39,116.754 1704.06,107.92 1735.5,105.5 Z M 1749.5,119.5 C 1810.84,118.55 1852.51,147.05 1874.5,205C 1885.47,240.689 1889.63,277.189 1887,314.5C 1886.25,349.826 1877.25,382.826 1860,413.5C 1835.82,448.764 1802.15,466.764 1759,467.5C 1682.1,466.599 1637.1,428.266 1624,352.5C 1618,313.168 1618,273.835 1624,234.5C 1629.4,199.536 1644.9,170.036 1670.5,146C 1693.95,128.46 1720.29,119.627 1749.5,119.5 Z"/></g>
<g><path style="opacity:0.973" fill="#000000" d="M 2578.5,105.5 C 2622.12,103.871 2660.45,117.037 2693.5,145C 2698.03,149.199 2702.2,153.699 2706,158.5C 2712.31,145.923 2716.15,132.59 2717.5,118.5C 2721.83,118.5 2726.17,118.5 2730.5,118.5C 2730.5,159.167 2730.5,199.833 2730.5,240.5C 2726.17,240.5 2721.83,240.5 2717.5,240.5C 2713.05,202.094 2696.38,170.261 2667.5,145C 2629.22,118.216 2588.55,112.883 2545.5,129C 2508.36,144.811 2484.86,172.311 2475,211.5C 2468.54,237.773 2465.71,264.44 2466.5,291.5C 2465.1,326.856 2470.26,361.19 2482,394.5C 2503.32,441.284 2539.82,465.617 2591.5,467.5C 2663.75,463.389 2692.58,425.722 2678,354.5C 2674.32,339.216 2664.49,332.05 2648.5,333C 2641.17,332.5 2633.84,332.334 2626.5,332.5C 2626.5,328.167 2626.5,323.833 2626.5,319.5C 2678.83,319.5 2731.17,319.5 2783.5,319.5C 2783.5,323.833 2783.5,328.167 2783.5,332.5C 2771.45,331.952 2759.79,333.785 2748.5,338C 2743.95,340.883 2740.45,344.716 2738,349.5C 2735.79,359.368 2734.46,369.368 2734,379.5C 2733.5,403.831 2733.33,428.164 2733.5,452.5C 2720.04,451.611 2706.71,452.778 2693.5,456C 2678.64,460.428 2663.98,465.428 2649.5,471C 2613.31,482.183 2576.64,484.183 2539.5,477C 2485.03,462.857 2445.2,430.691 2420,380.5C 2403.41,341.89 2399.07,301.89 2407,260.5C 2416.18,214.97 2437.68,176.47 2471.5,145C 2502.72,119.87 2538.39,106.703 2578.5,105.5 Z"/></g>
<g><path style="opacity:0.978" fill="#000000" d="M 2106.5,107.5 C 2144.17,105.456 2181.5,108.956 2218.5,118C 2247.11,126.693 2268.28,144.193 2282,170.5C 2295.88,215.201 2283.38,250.368 2244.5,276C 2226.59,285.413 2207.59,291.413 2187.5,294C 2198.85,301.34 2209.02,310.173 2218,320.5C 2240.76,347.926 2262.76,375.926 2284,404.5C 2294.1,416.604 2304.93,428.104 2316.5,439C 2334.16,453.501 2354.49,461.001 2377.5,461.5C 2377.5,465.833 2377.5,470.167 2377.5,474.5C 2344.83,474.667 2312.16,474.5 2279.5,474C 2273.38,469.186 2267.55,464.019 2262,458.5C 2256.04,450.872 2249.71,443.538 2243,436.5C 2221.95,408.447 2201.28,380.114 2181,351.5C 2169.23,335.826 2156.4,320.993 2142.5,307C 2138.47,304.545 2134.14,302.879 2129.5,302C 2121.84,301.5 2114.17,301.334 2106.5,301.5C 2106.33,339.501 2106.5,377.501 2107,415.5C 2107.02,425.703 2108.36,435.703 2111,445.5C 2115.24,453.879 2122.07,458.713 2131.5,460C 2144.11,461.398 2156.78,461.898 2169.5,461.5C 2169.5,465.833 2169.5,470.167 2169.5,474.5C 2111.5,474.5 2053.5,474.5 1995.5,474.5C 1995.2,470.233 1995.54,466.066 1996.5,462C 2005.5,461.667 2014.5,461.333 2023.5,461C 2032.24,459.985 2039.74,456.485 2046,450.5C 2047.86,448.112 2049.19,445.446 2050,442.5C 2051.58,434.245 2052.58,425.912 2053,417.5C 2053.67,334.167 2053.67,250.833 2053,167.5C 2052.5,160.484 2051.83,153.484 2051,146.5C 2049.77,139.205 2045.93,133.705 2039.5,130C 2025.79,126.011 2011.79,124.511 1997.5,125.5C 1997.5,121.167 1997.5,116.833 1997.5,112.5C 2033.98,110.642 2070.31,108.975 2106.5,107.5 Z M 2121.5,121.5 C 2145.06,120.766 2168.06,123.932 2190.5,131C 2200.25,135.277 2208.08,141.777 2214,150.5C 2229.07,177.238 2232.74,205.572 2225,235.5C 2216.38,265.1 2196.54,281.266 2165.5,284C 2145.88,285.97 2126.22,287.137 2106.5,287.5C 2106.5,232.5 2106.5,177.5 2106.5,122.5C 2111.69,122.821 2116.69,122.487 2121.5,121.5 Z"/></g>
<g><path style="opacity:0.975" fill="#000000" d="M 2991.5,107.5 C 2995.23,107.177 2998.89,107.511 3002.5,108.5C 3048.71,218.622 3095.21,328.622 3142,438.5C 3151.37,453.271 3164.87,460.937 3182.5,461.5C 3182.5,465.833 3182.5,470.167 3182.5,474.5C 3134.83,474.5 3087.17,474.5 3039.5,474.5C 3039.2,470.233 3039.54,466.066 3040.5,462C 3052.01,462.065 3063.34,460.732 3074.5,458C 3080.7,455.629 3084.04,451.129 3084.5,444.5C 3083.05,436.636 3080.88,428.969 3078,421.5C 3066.69,395.042 3055.52,368.542 3044.5,342C 2999.17,341.333 2953.83,341.333 2908.5,342C 2896.3,367.944 2886.46,394.778 2879,422.5C 2876.32,442.147 2884.49,454.647 2903.5,460C 2908.1,461.122 2912.77,461.622 2917.5,461.5C 2917.47,465.969 2917.8,470.136 2918.5,474C 2881.83,474.5 2845.17,474.667 2808.5,474.5C 2808.5,470.167 2808.5,465.833 2808.5,461.5C 2822.14,460.096 2833.97,454.763 2844,445.5C 2848.67,438.167 2853.33,430.833 2858,423.5C 2902.79,318.256 2947.29,212.923 2991.5,107.5 Z M 2976.5,176.5 C 2997.34,226.319 3018,276.319 3038.5,326.5C 2997.17,327.833 2955.83,327.833 2914.5,326.5C 2935.18,276.474 2955.85,226.474 2976.5,176.5 Z"/></g>
<g><path style="opacity:0.973" fill="#000000" d="M 3228.5,112.5 C 3264.83,112.333 3301.17,112.5 3337.5,113C 3407.64,206.769 3478.14,300.269 3549,393.5C 3549.98,314.47 3549.65,235.47 3548,156.5C 3545.53,144.699 3538.7,136.532 3527.5,132C 3514.9,127.47 3501.9,125.303 3488.5,125.5C 3488.5,121.167 3488.5,116.833 3488.5,112.5C 3532.17,112.5 3575.83,112.5 3619.5,112.5C 3619.5,116.833 3619.5,121.167 3619.5,125.5C 3604.99,126.377 3591.33,130.21 3578.5,137C 3569.92,143.319 3565.42,151.819 3565,162.5C 3563.52,269.477 3563.02,376.477 3563.5,483.5C 3559.23,483.797 3555.07,483.464 3551,482.5C 3466.09,370.346 3381.42,258.013 3297,145.5C 3296.33,236.5 3296.33,327.5 3297,418.5C 3296.25,433.838 3302.42,445.338 3315.5,453C 3329.43,459.6 3344.1,462.433 3359.5,461.5C 3359.5,465.833 3359.5,470.167 3359.5,474.5C 3314.5,474.5 3269.5,474.5 3224.5,474.5C 3224.5,470.167 3224.5,465.833 3224.5,461.5C 3240.61,461.223 3255.61,457.057 3269.5,449C 3279.35,440.48 3283.51,429.647 3282,416.5C 3282.67,337.167 3282.67,257.833 3282,178.5C 3281.41,167.411 3280.07,156.411 3278,145.5C 3276.05,137.889 3271.55,132.389 3264.5,129C 3252.67,126.105 3240.67,124.939 3228.5,125.5C 3228.5,121.167 3228.5,116.833 3228.5,112.5 Z"/></g>
<g><path style="opacity:0.978" fill="#000000" d="M 2560.5,1071.5 C 2551.17,1071.5 2541.83,1071.5 2532.5,1071.5C 2503.05,1067.29 2477.05,1055.46 2454.5,1036C 2442.89,1025.23 2432.22,1013.73 2422.5,1001.5C 2397.66,1030.58 2367.33,1051.75 2331.5,1065C 2321.83,1067.76 2312.16,1069.93 2302.5,1071.5C 2292.5,1071.5 2282.5,1071.5 2272.5,1071.5C 2227.33,1064.81 2192.16,1042.48 2167,1004.5C 2148.66,971.281 2144.32,936.281 2154,899.5C 2158.89,883.039 2166.89,868.372 2178,855.5C 2205.01,827.941 2234.84,804.107 2267.5,784C 2268.02,783.439 2268.36,782.772 2268.5,782C 2255.82,764.491 2245.32,745.657 2237,725.5C 2225.24,697.413 2224.24,669.079 2234,640.5C 2252.97,600.92 2284.47,580.254 2328.5,578.5C 2361.44,578.975 2389.94,590.308 2414,612.5C 2436.56,641.974 2437.23,671.974 2416,702.5C 2405.09,715.407 2392.93,726.907 2379.5,737C 2362.97,748.098 2345.97,758.432 2328.5,768C 2369.04,823.544 2409.21,879.377 2449,935.5C 2470.41,905.998 2484.75,873.332 2492,837.5C 2495.58,811.324 2484.92,793.991 2460,785.5C 2452.22,783.411 2444.39,781.578 2436.5,780C 2435.36,774.584 2435.19,769.084 2436,763.5C 2488,762.167 2540,762.167 2592,763.5C 2592.83,769.196 2592.66,774.863 2591.5,780.5C 2564.95,787.908 2543.45,802.575 2527,824.5C 2511.48,848.684 2498.82,874.351 2489,901.5C 2480.51,919.146 2471.01,936.146 2460.5,952.5C 2476.42,975.935 2494.42,997.768 2514.5,1018C 2535.13,1034.66 2558.46,1040.32 2584.5,1035C 2600.16,1029.85 2611.83,1020.01 2619.5,1005.5C 2625.5,1004.17 2631.5,1004.17 2637.5,1005.5C 2625.34,1043.33 2599.67,1065.33 2560.5,1071.5 Z M 2324.5,597.5 C 2360.01,597.524 2381.18,614.857 2388,649.5C 2390.65,674.898 2383.31,696.898 2366,715.5C 2351.11,730.101 2334.78,742.768 2317,753.5C 2305.48,737.629 2295.14,720.962 2286,703.5C 2278.35,688.377 2273.85,672.377 2272.5,655.5C 2274.87,622.479 2292.2,603.146 2324.5,597.5 Z M 2279.5,798.5 C 2280.5,798.414 2281.33,798.748 2282,799.5C 2326.23,859.729 2368.89,921.063 2410,983.5C 2410.67,984.833 2410.67,986.167 2410,987.5C 2393.74,1006.77 2373.91,1020.94 2350.5,1030C 2314.57,1040.21 2281.91,1033.88 2252.5,1011C 2242.93,1002.1 2234.1,992.602 2226,982.5C 2191.09,931.698 2193.76,883.032 2234,836.5C 2247.6,821.709 2262.77,809.043 2279.5,798.5 Z"/></g>
<g><path style="opacity:0.979" fill="#000000" d="M 2987.5,580.5 C 3049.97,581.184 3103.14,604.184 3147,649.5C 3156.83,631.015 3162.83,611.348 3165,590.5C 3170.41,589.527 3175.91,589.193 3181.5,589.5C 3183.18,648.824 3184.52,708.157 3185.5,767.5C 3180.77,767.955 3176.27,768.288 3172,768.5C 3171,767.833 3170,767.167 3169,766.5C 3164.07,728.043 3151.07,692.709 3130,660.5C 3098.79,622.975 3058.62,602.475 3009.5,599C 2950.52,596.067 2905.69,619.567 2875,669.5C 2856.11,703.377 2845.11,739.71 2842,778.5C 2837.39,821.432 2839.05,864.099 2847,906.5C 2856.29,954.281 2880.12,992.781 2918.5,1022C 2958.1,1047.47 3000.76,1054.13 3046.5,1042C 3095.87,1029.3 3130.37,999.464 3150,952.5C 3159.77,930.431 3166.27,907.431 3169.5,883.5C 3174.79,882.505 3180.13,882.172 3185.5,882.5C 3185.5,937.833 3185.5,993.167 3185.5,1048.5C 3179.91,1048.81 3174.41,1048.47 3169,1047.5C 3165.12,1029.83 3157.79,1013.83 3147,999.5C 3105.45,1045.6 3053.45,1068.6 2991,1068.5C 2901.52,1069.61 2833.85,1032.28 2788,956.5C 2768.27,917.919 2758.77,876.919 2759.5,833.5C 2759.64,768.912 2778.48,710.579 2816,658.5C 2852.96,615.431 2899.79,590.264 2956.5,583C 2966.98,582.105 2977.32,581.271 2987.5,580.5 Z"/></g>
<g><path style="opacity:0.979" fill="#000000" d="M -0.5,849.5 C -0.5,839.833 -0.5,830.167 -0.5,820.5C 2.76811,764.529 19.9348,713.196 51,666.5C 89.3208,618.077 139.487,590.577 201.5,584C 263.029,577.406 318.029,593.073 366.5,631C 374,637.167 380.833,644 387,651.5C 396.873,632.672 402.707,612.672 404.5,591.5C 410.167,591.5 415.833,591.5 421.5,591.5C 423.159,650.825 424.492,710.158 425.5,769.5C 420.125,769.828 414.792,769.495 409.5,768.5C 404.344,734.53 393.51,702.53 377,672.5C 353.328,637.533 320.828,615.033 279.5,605C 191.988,588.893 131.821,622.06 99,704.5C 85.096,745.326 78.596,787.326 79.5,830.5C 78.6753,868.896 84.5086,906.229 97,942.5C 113.913,987.208 144.08,1019.37 187.5,1039C 236.178,1055.57 283.178,1051.57 328.5,1027C 358.379,1008.44 379.545,982.607 392,949.5C 400.584,928.915 406.417,907.582 409.5,885.5C 414.792,884.505 420.125,884.172 425.5,884.5C 425.5,939.833 425.5,995.167 425.5,1050.5C 420.125,1050.83 414.792,1050.49 409.5,1049.5C 405.481,1031.8 397.981,1015.8 387,1001.5C 334.304,1057.07 269.804,1079.23 193.5,1068C 112.797,1056.92 54.9634,1014.76 20,941.5C 7.85039,911.907 1.01705,881.24 -0.5,849.5 Z"/></g>
<g><path style="opacity:0.972" fill="#000000" d="M 1452.5,689.5 C 1491.37,686.113 1523.71,698.78 1549.5,727.5C 1557.4,718.688 1561.74,708.355 1562.5,696.5C 1566.83,696.5 1571.17,696.5 1575.5,696.5C 1575.5,728.167 1575.5,759.833 1575.5,791.5C 1571.17,791.5 1566.83,791.5 1562.5,791.5C 1556.77,764.209 1543.44,741.376 1522.5,723C 1500.83,706.5 1476.5,700.5 1449.5,705C 1417.13,714.384 1402.63,735.884 1406,769.5C 1409.78,785.609 1418.62,798.109 1432.5,807C 1439.33,811.915 1446.33,816.581 1453.5,821C 1485.26,836.045 1516.92,851.378 1548.5,867C 1590.46,889.402 1609.63,924.569 1606,972.5C 1600.2,1015.3 1577.04,1044.13 1536.5,1059C 1480.72,1074.93 1432.89,1062.1 1393,1020.5C 1386.36,1030.91 1382.2,1042.25 1380.5,1054.5C 1375.83,1054.5 1371.17,1054.5 1366.5,1054.5C 1366.5,1015.5 1366.5,976.5 1366.5,937.5C 1371.17,937.5 1375.83,937.5 1380.5,937.5C 1385.26,968.325 1397.1,995.992 1416,1020.5C 1440.88,1045.79 1470.71,1055.63 1505.5,1050C 1543.35,1041.82 1563.68,1018.49 1566.5,980C 1565.63,955.922 1554.96,937.588 1534.5,925C 1525.83,919.667 1517.17,914.333 1508.5,909C 1489.38,900.942 1470.38,892.608 1451.5,884C 1432.83,875.34 1415.5,864.673 1399.5,852C 1370.81,821.72 1362.64,786.553 1375,746.5C 1390.52,713.484 1416.35,694.484 1452.5,689.5 Z"/></g>
<g><path style="opacity:0.978" fill="#000000" d="M 3448.5,690.5 C 3509.03,685.536 3562.7,702.036 3609.5,740C 3648.84,777.155 3667.84,822.988 3666.5,877.5C 3665.93,961.55 3627.26,1020.05 3550.5,1053C 3500.47,1069.65 3450.14,1070.65 3399.5,1056C 3316.51,1025.25 3274.51,965.412 3273.5,876.5C 3275.22,787.872 3317.89,729.038 3401.5,700C 3417.01,695.332 3432.67,692.165 3448.5,690.5 Z M 3459.5,704.5 C 3529.96,701.828 3575.13,734.161 3595,801.5C 3607.28,851.746 3607.61,902.079 3596,952.5C 3573.87,1027.84 3523.7,1060.34 3445.5,1050C 3396.31,1041.65 3363.81,1013.82 3348,966.5C 3331.06,906.726 3331.39,847.06 3349,787.5C 3368.13,736.193 3404.96,708.526 3459.5,704.5 Z"/></g>
<g><path style="opacity:0.973" fill="#000000" d="M 1129.5,691.5 C 1134,690.945 1138.16,691.611 1142,693.5C 1187.45,803.064 1233.45,912.397 1280,1021.5C 1289.43,1036.81 1303.26,1044.81 1321.5,1045.5C 1321.5,1049.83 1321.5,1054.17 1321.5,1058.5C 1273.83,1058.5 1226.17,1058.5 1178.5,1058.5C 1178.5,1054.17 1178.5,1049.83 1178.5,1045.5C 1191.09,1046.05 1203.43,1044.55 1215.5,1041C 1220.16,1038.17 1222.49,1034 1222.5,1028.5C 1221.61,1020.94 1219.78,1013.61 1217,1006.5C 1205.56,979.948 1194.39,953.282 1183.5,926.5C 1182,926.167 1180.5,925.833 1179,925.5C 1134.93,925.673 1090.76,926.006 1046.5,926.5C 1036.56,949.057 1027.72,972.057 1020,995.5C 1011.38,1027.25 1023.55,1043.92 1056.5,1045.5C 1056.5,1049.83 1056.5,1054.17 1056.5,1058.5C 1019.83,1058.5 983.167,1058.5 946.5,1058.5C 946.5,1054.17 946.5,1049.83 946.5,1045.5C 961.158,1043.92 973.658,1037.92 984,1027.5C 988.918,1020 993.584,1012.33 998,1004.5C 1041.94,900.183 1085.77,795.85 1129.5,691.5 Z M 1114.5,760.5 C 1135.96,810.346 1156.96,860.513 1177.5,911C 1135.83,911.667 1094.17,911.667 1052.5,911C 1073.58,860.998 1094.25,810.832 1114.5,760.5 Z"/></g>
<g><path style="opacity:0.981" fill="#000000" d="M 509.5,696.5 C 564.167,696.5 618.833,696.5 673.5,696.5C 673.5,700.833 673.5,705.167 673.5,709.5C 660.303,708.713 647.303,709.88 634.5,713C 628.359,715.141 624.193,719.307 622,725.5C 619.348,741.547 617.848,757.714 617.5,774C 618.435,802.157 618.768,830.323 618.5,858.5C 680.833,858.5 743.167,858.5 805.5,858.5C 805.667,824.832 805.5,791.165 805,757.5C 804.6,747.102 803.6,736.769 802,726.5C 796.842,715.327 788.009,709.827 775.5,710C 766.173,709.5 756.839,709.334 747.5,709.5C 747.5,705.167 747.5,700.833 747.5,696.5C 802.167,696.5 856.833,696.5 911.5,696.5C 911.956,700.989 911.956,705.322 911.5,709.5C 897.864,708.504 884.531,710.004 871.5,714C 866.04,717.801 862.54,722.968 861,729.5C 859.119,746.504 857.952,763.338 857.5,780C 858.332,854.763 858.832,929.597 859,1004.5C 859.446,1011.19 860.113,1017.86 861,1024.5C 865.687,1037.78 875.187,1044.61 889.5,1045C 897.159,1045.5 904.826,1045.67 912.5,1045.5C 912.797,1049.77 912.464,1053.93 911.5,1058C 856.834,1058.5 802.168,1058.67 747.5,1058.5C 747.5,1054.17 747.5,1049.83 747.5,1045.5C 759.625,1046.11 771.625,1045.27 783.5,1043C 794.635,1039.53 801.135,1032.03 803,1020.5C 803.915,1011.85 804.582,1003.19 805,994.5C 805.5,955.168 805.667,915.835 805.5,876.5C 743.167,876.5 680.833,876.5 618.5,876.5C 618.333,919.168 618.5,961.835 619,1004.5C 619.391,1010.86 620.058,1017.2 621,1023.5C 625.131,1037.51 634.631,1044.68 649.5,1045C 657.493,1045.5 665.493,1045.67 673.5,1045.5C 673.5,1049.83 673.5,1054.17 673.5,1058.5C 618.833,1058.5 564.167,1058.5 509.5,1058.5C 509.5,1054.17 509.5,1049.83 509.5,1045.5C 522.821,1046.52 535.821,1045.02 548.5,1041C 555.554,1037.61 560.054,1032.11 562,1024.5C 563.66,1013.9 564.66,1003.23 565,992.5C 565.667,914.833 565.667,837.167 565,759.5C 564.654,747.702 563.32,736.035 561,724.5C 558.414,718.912 554.247,715.079 548.5,713C 535.697,709.88 522.697,708.713 509.5,709.5C 509.5,705.167 509.5,700.833 509.5,696.5 Z"/></g>
<g><path style="opacity:0.975" fill="#000000" d="M 1673.5,696.5 C 1759.5,696.167 1845.5,696.5 1931.5,697.5C 1934.56,726.476 1937.56,755.476 1940.5,784.5C 1940.13,785.91 1939.3,786.91 1938,787.5C 1935,786.167 1932,786.167 1929,787.5C 1924.8,771.262 1918.8,755.595 1911,740.5C 1903.17,725.687 1891.01,716.521 1874.5,713C 1866.2,711.754 1857.86,710.754 1849.5,710C 1824.5,709.5 1799.5,709.333 1774.5,709.5C 1774.5,759.5 1774.5,809.5 1774.5,859.5C 1789.46,859.281 1804.13,859.614 1818.5,860.5C 1829.86,860.052 1840.86,857.885 1851.5,854C 1856.8,850.9 1860.3,846.4 1862,840.5C 1863.8,829.241 1864.97,817.907 1865.5,806.5C 1868.96,806.284 1872.46,805.951 1876,805.5C 1877.16,819.922 1877.99,834.422 1878.5,849C 1877.65,875.014 1877.65,901.681 1878.5,929C 1873.85,929.499 1869.18,929.666 1864.5,929.5C 1865.91,914.319 1863.75,899.652 1858,885.5C 1851.39,877.625 1842.89,873.791 1832.5,874C 1813.17,873.5 1793.84,873.333 1774.5,873.5C 1774.07,918.185 1774.57,962.852 1776,1007.5C 1776.59,1015.73 1778.26,1023.73 1781,1031.5C 1783.6,1035.39 1787.1,1038.22 1791.5,1040C 1798.33,1042.23 1805.33,1043.57 1812.5,1044C 1831.17,1044.67 1849.83,1044.67 1868.5,1044C 1898.51,1042.94 1921.34,1029.77 1937,1004.5C 1947.99,986.534 1955.66,967.201 1960,946.5C 1964.4,945.533 1968.9,945.2 1973.5,945.5C 1970.83,983.168 1968.17,1020.83 1965.5,1058.5C 1866.17,1058.5 1766.83,1058.5 1667.5,1058.5C 1667.5,1054.17 1667.5,1049.83 1667.5,1045.5C 1681.25,1046.45 1694.59,1044.61 1707.5,1040C 1712.37,1035.75 1715.87,1030.58 1718,1024.5C 1719.74,1013.92 1720.74,1003.25 1721,992.5C 1721.67,915.5 1721.67,838.5 1721,761.5C 1720.66,750.105 1719.66,738.771 1718,727.5C 1716.28,722.554 1713.45,718.387 1709.5,715C 1697.97,710.246 1685.97,708.412 1673.5,709.5C 1673.5,705.167 1673.5,700.833 1673.5,696.5 Z"/></g>
<g><path style="opacity:0.979" fill="#000000" d="M 3776.5,1024.5 C 3776.5,1027.5 3776.5,1030.5 3776.5,1033.5C 3770.07,1061.06 3752.73,1072.56 3724.5,1068C 3706.45,1061.28 3696.78,1048.28 3695.5,1029C 3698.2,1004.63 3711.7,991.463 3736,989.5C 3758.33,991.003 3771.83,1002.67 3776.5,1024.5 Z"/></g>
</svg>
