<?xml version="1.0" encoding="UTF-8"?>
<!DOCTYPE svg PUBLIC "-//W3C//DTD SVG 1.1//EN" "http://www.w3.org/Graphics/SVG/1.1/DTD/svg11.dtd">
<svg xmlns="http://www.w3.org/2000/svg" version="1.1" width="150px" height="98px" style="shape-rendering:geometricPrecision; text-rendering:geometricPrecision; image-rendering:optimizeQuality; fill-rule:evenodd; clip-rule:evenodd" xmlns:xlink="http://www.w3.org/1999/xlink">
<g><path style="opacity:0.923" fill="#ec1d25" d="M 89.5,0.5 C 114.079,-2.36827 133.745,5.96507 148.5,25.5C 143.533,26.6623 138.533,26.8289 133.5,26C 111.159,6.73192 88.8252,6.73192 66.5,26C 61.1667,26.6667 55.8333,26.6667 50.5,26C 60.5099,12.8052 73.5099,4.30523 89.5,0.5 Z"/></g>
<g><path style="opacity:0.915" fill="#024584" d="M 102.5,17.5 C 104.453,23.0738 105.12,29.0738 104.5,35.5C 108.514,35.3345 112.514,35.5012 116.5,36C 117.46,39.73 117.793,43.5633 117.5,47.5C 113.167,47.5 108.833,47.5 104.5,47.5C 104.333,58.8382 104.5,70.1716 105,81.5C 105.943,83.9544 107.776,84.9544 110.5,84.5C 113.684,84.4913 116.517,83.4913 119,81.5C 120.812,91.65 116.645,96.65 106.5,96.5C 99.8999,96.6186 95.3999,93.6186 93,87.5C 91.5966,74.2183 91.0966,60.885 91.5,47.5C 88.1667,47.5 84.8333,47.5 81.5,47.5C 81.5,43.5 81.5,39.5 81.5,35.5C 84.8333,35.5 88.1667,35.5 91.5,35.5C 91.3345,31.4862 91.5012,27.4862 92,23.5C 95.6441,21.5993 99.1441,19.5993 102.5,17.5 Z"/></g>
<g><path style="opacity:0.926" fill="#034584" d="M 25.5,34.5 C 36.6272,33.0339 45.6272,36.5339 52.5,45C 51.0948,48.5742 48.7615,51.4076 45.5,53.5C 37.4385,46.5701 28.7718,45.7367 19.5,51C 13.8855,56.75 12.0521,63.5834 14,71.5C 18.4718,82.1524 26.3052,85.9858 37.5,83C 40.3405,81.4136 43.0072,79.5803 45.5,77.5C 47.6574,79.7918 49.8241,82.1251 52,84.5C 51.9122,87.6422 50.4122,90.1422 47.5,92C 35.348,98.1909 23.348,97.8575 11.5,91C 1.59662,81.9517 -1.90338,70.785 1,57.5C 4.63266,44.9446 12.7993,37.278 25.5,34.5 Z"/></g>
<g><path style="opacity:0.919" fill="#004685" d="M 59.5,35.5 C 63.5,35.5 67.5,35.5 71.5,35.5C 71.5,55.5 71.5,75.5 71.5,95.5C 67.1667,95.5 62.8333,95.5 58.5,95.5C 58.1793,75.4241 58.5126,55.4241 59.5,35.5 Z"/></g>
<g><path style="opacity:0.92" fill="#004585" d="M 128.5,35.5 C 132.833,35.5 137.167,35.5 141.5,35.5C 141.5,55.5 141.5,75.5 141.5,95.5C 137.167,95.5 132.833,95.5 128.5,95.5C 128.5,75.5 128.5,55.5 128.5,35.5 Z"/></g>
</svg>
