<?xml version="1.0" encoding="UTF-8"?>
<!DOCTYPE svg PUBLIC "-//W3C//DTD SVG 1.1//EN" "http://www.w3.org/Graphics/SVG/1.1/DTD/svg11.dtd">
<svg xmlns="http://www.w3.org/2000/svg" version="1.1" width="924px" height="352px" style="shape-rendering:geometricPrecision; text-rendering:geometricPrecision; image-rendering:optimizeQuality; fill-rule:evenodd; clip-rule:evenodd" xmlns:xlink="http://www.w3.org/1999/xlink">
<g><path style="opacity:1" fill="#fefefe" d="M -0.5,-0.5 C 307.5,-0.5 615.5,-0.5 923.5,-0.5C 923.5,116.833 923.5,234.167 923.5,351.5C 615.5,351.5 307.5,351.5 -0.5,351.5C -0.5,234.167 -0.5,116.833 -0.5,-0.5 Z"/></g>
<g><path style="opacity:1" fill="#fd0204" d="M 129.5,55.5 C 203.331,54.5008 277.331,54.1674 351.5,54.5C 351.167,55.1667 350.833,55.8333 350.5,56.5C 314.585,92.9162 278.252,129.416 241.5,166C 277.817,203.485 314.817,240.651 352.5,277.5C 352.833,277.5 353.167,277.5 353.5,277.5C 353.5,277.833 353.5,278.167 353.5,278.5C 278.665,278.833 203.998,278.499 129.5,277.5C 166.607,240.944 203.274,203.944 239.5,166.5C 202.731,129.398 166.064,92.3983 129.5,55.5 Z"/></g>
<g><path style="opacity:1" fill="#fefefe" d="M 129.5,55.5 C 166.064,92.3983 202.731,129.398 239.5,166.5C 203.274,203.944 166.607,240.944 129.5,277.5C 129.167,277.5 128.833,277.5 128.5,277.5C 128.5,277.167 128.5,276.833 128.5,276.5C 128.167,202.665 128.501,128.998 129.5,55.5 Z"/></g>
<g><path style="opacity:1" fill="#fd1216" d="M 354.5,55.5 C 353.501,129.331 353.167,203.331 353.5,277.5C 353.167,277.5 352.833,277.5 352.5,277.5C 352.5,276.833 352.5,276.167 352.5,275.5C 352.833,201.665 352.499,127.998 351.5,54.5C 277.331,54.1674 203.331,54.5008 129.5,55.5C 128.501,128.998 128.167,202.665 128.5,276.5C 127.833,203.167 127.167,129.833 126.5,56.5C 126.953,55.5416 127.619,54.7083 128.5,54C 203.5,53.3333 278.5,53.3333 353.5,54C 354.056,54.3826 354.389,54.8826 354.5,55.5 Z"/></g>
<g><path style="opacity:1" fill="#fd0204" d="M 354.5,55.5 C 391.65,91.9834 428.65,128.983 465.5,166.5C 428.64,203.692 391.307,240.692 353.5,277.5C 353.167,203.331 353.501,129.331 354.5,55.5 Z"/></g>
<g><path style="opacity:1" fill="#fd0003" d="M 126.5,56.5 C 127.167,129.833 127.833,203.167 128.5,276.5C 128.5,276.833 128.5,277.167 128.5,277.5C 128.5,277.833 128.5,278.167 128.5,278.5C 90.6473,241.147 52.9807,203.647 15.5,166C 52.4049,129.932 89.4049,93.432 126.5,56.5 Z"/></g>
<g><path style="opacity:1" fill="#fefefe" d="M 350.5,56.5 C 351.167,129.5 351.833,202.5 352.5,275.5C 352.5,276.167 352.5,276.833 352.5,277.5C 314.817,240.651 277.817,203.485 241.5,166C 278.252,129.416 314.585,92.9162 350.5,56.5 Z"/></g>
<g><path style="opacity:1" fill="#e8d9dc" d="M 351.5,54.5 C 352.499,127.998 352.833,201.665 352.5,275.5C 351.833,202.5 351.167,129.5 350.5,56.5C 350.833,55.8333 351.167,55.1667 351.5,54.5 Z"/></g>
<g><path style="opacity:1" fill="#050505" d="M 668.5,140.5 C 668.5,141.833 668.5,143.167 668.5,144.5C 661.833,144.5 655.167,144.5 648.5,144.5C 648.737,143.209 648.404,142.209 647.5,141.5C 646.079,136.91 643.079,133.744 638.5,132C 629.895,129.397 623.395,131.897 619,139.5C 617.235,146.76 620.069,151.26 627.5,153C 637.797,156.49 648.131,159.823 658.5,163C 673.308,172.44 676.474,184.94 668,200.5C 660.69,208.724 651.523,213.558 640.5,215C 627.442,216.922 615.442,214.256 604.5,207C 597.867,200.606 594.867,192.773 595.5,183.5C 602.175,183.334 608.842,183.5 615.5,184C 617.988,197.449 625.988,202.449 639.5,199C 649.574,195.706 652.241,189.372 647.5,180C 639.961,176.111 631.961,173.445 623.5,172C 613.091,169.565 604.924,164.065 599,155.5C 593.775,138.78 599.275,126.946 615.5,120C 629.767,115.022 643.767,115.689 657.5,122C 664.302,126.302 667.969,132.469 668.5,140.5 Z"/></g>
<g><path style="opacity:1" fill="#050505" d="M 850.5,146.5 C 842.747,146.799 835.08,146.466 827.5,145.5C 825.924,137.104 820.758,132.77 812,132.5C 800.7,134.127 793.367,140.46 790,151.5C 787.35,164.151 788.35,176.484 793,188.5C 801.17,200.085 811.337,202.251 823.5,195C 825.819,192.197 827.485,189.03 828.5,185.5C 835.803,184.503 843.137,184.169 850.5,184.5C 847.866,202.965 837.199,213.132 818.5,215C 784.286,216.953 766.953,200.787 766.5,166.5C 767.384,131.778 785.05,115.278 819.5,117C 837.199,119.201 847.532,129.034 850.5,146.5 Z"/></g>
<g><path style="opacity:1" fill="#030303" d="M 502.5,118.5 C 509.167,118.5 515.833,118.5 522.5,118.5C 522.5,131.167 522.5,143.833 522.5,156.5C 535.666,156.583 549,156.583 562.5,156.5C 562.5,143.833 562.5,131.167 562.5,118.5C 569.5,118.5 576.5,118.5 583.5,118.5C 583.5,149.833 583.5,181.167 583.5,212.5C 576.5,212.5 569.5,212.5 562.5,212.5C 562.5,199.5 562.5,186.5 562.5,173.5C 549.167,173.5 535.833,173.5 522.5,173.5C 522.5,186.5 522.5,199.5 522.5,212.5C 515.833,212.5 509.167,212.5 502.5,212.5C 502.5,181.167 502.5,149.833 502.5,118.5 Z"/></g>
<g><path style="opacity:1" fill="#030303" d="M 683.5,118.5 C 699.17,118.333 714.837,118.5 730.5,119C 751.057,122.192 758.557,133.692 753,153.5C 749.285,158.548 744.452,162.048 738.5,164C 757.625,169.762 763.125,181.929 755,200.5C 749.089,207.404 741.589,211.237 732.5,212C 716.17,212.5 699.837,212.667 683.5,212.5C 683.5,181.167 683.5,149.833 683.5,118.5 Z"/></g>
<g><path style="opacity:1" fill="#fcfbfb" d="M 703.5,133.5 C 711.238,133.144 718.905,133.644 726.5,135C 731.704,136.572 734.037,140.072 733.5,145.5C 733.853,150.96 731.519,154.793 726.5,157C 718.841,157.5 711.174,157.666 703.5,157.5C 703.5,149.5 703.5,141.5 703.5,133.5 Z"/></g>
<g><path style="opacity:1" fill="#7d7979" d="M 668.5,140.5 C 669.451,141.919 669.784,143.585 669.5,145.5C 662.167,145.5 654.833,145.5 647.5,145.5C 647.5,144.167 647.5,142.833 647.5,141.5C 648.404,142.209 648.737,143.209 648.5,144.5C 655.167,144.5 661.833,144.5 668.5,144.5C 668.5,143.167 668.5,141.833 668.5,140.5 Z"/></g>
<g><path style="opacity:1" fill="#737171" d="M 827.5,145.5 C 835.08,146.466 842.747,146.799 850.5,146.5C 846.849,147.165 843.015,147.499 839,147.5C 834.771,147.49 830.938,146.823 827.5,145.5 Z"/></g>
<g><path style="opacity:1" fill="#faf8f8" d="M 703.5,171.5 C 711.917,171.094 720.251,171.594 728.5,173C 737.021,177.783 738.854,184.616 734,193.5C 732.167,194.667 730.333,195.833 728.5,197C 720.251,198.406 711.917,198.906 703.5,198.5C 703.5,189.5 703.5,180.5 703.5,171.5 Z"/></g>
<g><path style="opacity:1" fill="#7f7272" d="M 502.5,118.5 C 502.5,149.833 502.5,181.167 502.5,212.5C 509.167,212.5 515.833,212.5 522.5,212.5C 515.687,213.491 508.687,213.825 501.5,213.5C 501.168,181.662 501.502,149.996 502.5,118.5 Z"/></g>
<g><path style="opacity:1" fill="#f66368" d="M 128.5,277.5 C 128.833,277.5 129.167,277.5 129.5,277.5C 203.998,278.499 278.665,278.833 353.5,278.5C 278.5,279.833 203.5,279.833 128.5,278.5C 128.5,278.167 128.5,277.833 128.5,277.5 Z"/></g>
</svg>
