<?xml version="1.0" encoding="UTF-8"?>
<!DOCTYPE svg PUBLIC "-//W3C//DTD SVG 1.1//EN" "http://www.w3.org/Graphics/SVG/1.1/DTD/svg11.dtd">
<svg xmlns="http://www.w3.org/2000/svg" version="1.1" width="1200px" height="1293px" style="shape-rendering:geometricPrecision; text-rendering:geometricPrecision; image-rendering:optimizeQuality; fill-rule:evenodd; clip-rule:evenodd" xmlns:xlink="http://www.w3.org/1999/xlink">
<g><path style="opacity:1" fill="#d41c2c" d="M 938.5,1182.5 C 712.5,1182.5 486.5,1182.5 260.5,1182.5C 179.668,1181.5 98.6684,1181.17 17.5,1181.5C 17.5,793.5 17.5,405.5 17.5,17.5C 405.5,17.5 793.5,17.5 1181.5,17.5C 1181.5,405.5 1181.5,793.5 1181.5,1181.5C 1100.33,1181.17 1019.33,1181.5 938.5,1182.5 Z M 988.5,381.5 C 993.198,382.1 997.864,382.933 1002.5,384C 1004.07,384.608 1005.4,385.442 1006.5,386.5C 1000.29,385.117 994.29,383.451 988.5,381.5 Z M 907.5,399.5 C 907.58,402.781 906.913,405.781 905.5,408.5C 905.42,405.219 906.087,402.219 907.5,399.5 Z M 261.5,420.5 C 260.5,419.167 259.5,419.167 258.5,420.5C 259.438,415.233 260.438,415.233 261.5,420.5 Z M 905.5,418.5 C 907.118,421.171 907.785,424.171 907.5,427.5C 906.087,424.781 905.42,421.781 905.5,418.5 Z M 844.5,522.5 C 840.361,523.563 836.028,524.23 831.5,524.5C 832.263,523.732 833.263,523.232 834.5,523C 837.817,522.502 841.15,522.335 844.5,522.5 Z M 1049.5,523.5 C 1049.44,524.609 1049.11,525.609 1048.5,526.5C 1048.17,526.5 1047.83,526.5 1047.5,526.5C 1047.43,524.973 1048.09,523.973 1049.5,523.5 Z M 1037.5,536.5 C 1033.78,540.699 1029.11,543.365 1023.5,544.5C 1028.16,541.837 1032.83,539.17 1037.5,536.5 Z M 762.5,660.5 C 762.918,661.222 763.584,661.722 764.5,662C 760.49,662.501 756.49,663.001 752.5,663.5C 755.55,661.899 758.884,660.899 762.5,660.5 Z M 773.5,660.5 C 779.765,660.479 785.431,662.145 790.5,665.5C 784.64,663.703 778.64,662.536 772.5,662C 773.056,661.617 773.389,661.117 773.5,660.5 Z M 572.5,666.5 C 577.039,666.322 581.539,666.655 586,667.5C 588.546,667.859 590.713,668.859 592.5,670.5C 585.773,668.812 579.106,667.478 572.5,666.5 Z M 715.5,707.5 C 715.031,713.162 714.531,718.829 714,724.5C 713.61,727.104 712.776,729.438 711.5,731.5C 712.537,723.317 713.87,715.317 715.5,707.5 Z M 590.5,720.5 C 585.199,722.883 579.532,724.217 573.5,724.5C 572.737,723.732 571.737,723.232 570.5,723C 577.236,722.615 583.902,721.782 590.5,720.5 Z M 605.5,737.5 C 605.5,738.167 605.5,738.833 605.5,739.5C 601.711,738.404 601.711,737.737 605.5,737.5 Z M 711.5,737.5 C 712.469,739.663 713.302,741.996 714,744.5C 714.501,750.507 715.001,756.507 715.5,762.5C 713.524,757.981 712.857,753.314 713.5,748.5C 712.033,744.968 711.366,741.302 711.5,737.5 Z M 168.5,779.5 C 168.5,787.833 168.5,796.167 168.5,804.5C 167.167,804.5 165.833,804.5 164.5,804.5C 165.209,803.596 166.209,803.263 167.5,803.5C 167.174,795.316 167.508,787.316 168.5,779.5 Z M 539.5,798.5 C 540.167,800.167 540.833,801.833 541.5,803.5C 542.791,803.263 543.791,803.596 544.5,804.5C 542.833,804.5 541.167,804.5 539.5,804.5C 539.5,802.5 539.5,800.5 539.5,798.5 Z M 208.5,799.5 C 209.434,800.568 209.768,801.901 209.5,803.5C 211.099,803.232 212.432,803.566 213.5,804.5C 211.833,804.5 210.167,804.5 208.5,804.5C 208.5,802.833 208.5,801.167 208.5,799.5 Z M 756.5,806.5 C 758.167,806.5 759.833,806.5 761.5,806.5C 762.167,807.167 762.833,807.833 763.5,808.5C 760.933,808.279 758.599,807.612 756.5,806.5 Z M 779.5,806.5 C 782.385,806.194 785.052,806.527 787.5,807.5C 783.519,808.021 779.519,808.354 775.5,808.5C 776.833,807.833 778.167,807.167 779.5,806.5 Z"/></g>
<g><path style="opacity:1" fill="#faf9f9" d="M 964.5,357.5 C 975.5,357.5 986.5,357.5 997.5,357.5C 999.607,358.468 1001.94,358.802 1004.5,358.5C 1005.92,359.451 1007.59,359.784 1009.5,359.5C 1010.57,360.434 1011.9,360.768 1013.5,360.5C 1014.57,361.434 1015.9,361.768 1017.5,361.5C 1019.6,362.612 1021.93,363.279 1024.5,363.5C 1031.74,366.447 1039.08,369.447 1046.5,372.5C 1047.5,386.15 1047.83,399.817 1047.5,413.5C 1046.54,415.265 1046.21,417.265 1046.5,419.5C 1040.13,419.653 1033.8,419.32 1027.5,418.5C 1027.74,417.209 1027.4,416.209 1026.5,415.5C 1025.59,404.326 1020.59,395.659 1011.5,389.5C 1011.5,389.167 1011.5,388.833 1011.5,388.5C 1011.03,387.094 1010.03,386.427 1008.5,386.5C 1007.83,386.5 1007.17,386.5 1006.5,386.5C 1005.4,385.442 1004.07,384.608 1002.5,384C 997.864,382.933 993.198,382.1 988.5,381.5C 983.305,381.179 978.305,381.513 973.5,382.5C 970.941,382.198 968.607,382.532 966.5,383.5C 964.901,383.232 963.568,383.566 962.5,384.5C 961.209,384.263 960.209,384.596 959.5,385.5C 958.508,385.328 957.842,385.662 957.5,386.5C 956.508,386.328 955.842,386.662 955.5,387.5C 954.508,387.328 953.842,387.662 953.5,388.5C 952.833,388.5 952.5,388.833 952.5,389.5C 951.833,389.5 951.5,389.833 951.5,390.5C 950.833,390.5 950.5,390.833 950.5,391.5C 948.992,393.181 947.992,395.181 947.5,397.5C 946.549,398.919 946.216,400.585 946.5,402.5C 945.167,405.833 945.167,409.167 946.5,412.5C 946.263,413.791 946.596,414.791 947.5,415.5C 947.328,416.492 947.662,417.158 948.5,417.5C 951.566,422.21 955.899,425.21 961.5,426.5C 962.209,427.404 963.209,427.737 964.5,427.5C 965.209,428.404 966.209,428.737 967.5,428.5C 968.209,429.404 969.209,429.737 970.5,429.5C 971.568,430.434 972.901,430.768 974.5,430.5C 975.209,431.404 976.209,431.737 977.5,431.5C 978.568,432.434 979.901,432.768 981.5,432.5C 982.568,433.434 983.901,433.768 985.5,433.5C 986.568,434.434 987.901,434.768 989.5,434.5C 990.568,435.434 991.901,435.768 993.5,435.5C 994.568,436.434 995.901,436.768 997.5,436.5C 998.568,437.434 999.901,437.768 1001.5,437.5C 1002.57,438.434 1003.9,438.768 1005.5,438.5C 1006.21,439.404 1007.21,439.737 1008.5,439.5C 1009.57,440.434 1010.9,440.768 1012.5,440.5C 1013.21,441.404 1014.21,441.737 1015.5,441.5C 1016.21,442.404 1017.21,442.737 1018.5,442.5C 1018.84,443.338 1019.51,443.672 1020.5,443.5C 1021.21,444.404 1022.21,444.737 1023.5,444.5C 1023.84,445.338 1024.51,445.672 1025.5,445.5C 1025.84,446.338 1026.51,446.672 1027.5,446.5C 1027.84,447.338 1028.51,447.672 1029.5,447.5C 1029.84,448.338 1030.51,448.672 1031.5,448.5C 1031.5,449.167 1031.83,449.5 1032.5,449.5C 1032.84,450.338 1033.51,450.672 1034.5,450.5C 1035.29,451.401 1036.29,452.068 1037.5,452.5C 1037.5,453.167 1037.83,453.5 1038.5,453.5C 1054,467.665 1060,485.332 1056.5,506.5C 1055.57,507.568 1055.23,508.901 1055.5,510.5C 1054.6,511.209 1054.26,512.209 1054.5,513.5C 1053.66,513.842 1053.33,514.508 1053.5,515.5C 1052.6,516.209 1052.26,517.209 1052.5,518.5C 1051.66,518.842 1051.33,519.508 1051.5,520.5C 1050.83,520.5 1050.5,520.833 1050.5,521.5C 1049.66,521.842 1049.33,522.508 1049.5,523.5C 1048.09,523.973 1047.43,524.973 1047.5,526.5C 1044.1,528.9 1041.43,531.9 1039.5,535.5C 1038.51,535.328 1037.84,535.662 1037.5,536.5C 1032.83,539.17 1028.16,541.837 1023.5,544.5C 1022.51,544.328 1021.84,544.662 1021.5,545.5C 1020.51,545.328 1019.84,545.662 1019.5,546.5C 1018.21,546.263 1017.21,546.596 1016.5,547.5C 1015.21,547.263 1014.21,547.596 1013.5,548.5C 985.256,554.534 957.256,553.534 929.5,545.5C 928.791,544.596 927.791,544.263 926.5,544.5C 925.791,543.596 924.791,543.263 923.5,543.5C 923.158,542.662 922.492,542.328 921.5,542.5C 920.791,541.596 919.791,541.263 918.5,541.5C 914.565,539.533 910.565,537.533 906.5,535.5C 906.768,533.901 906.434,532.568 905.5,531.5C 906.092,528.873 906.425,526.206 906.5,523.5C 906.5,510.5 906.5,497.5 906.5,484.5C 912.5,484.5 918.5,484.5 924.5,484.5C 925.167,485.167 925.833,485.833 926.5,486.5C 926.928,489.785 927.928,492.785 929.5,495.5C 929.263,496.791 929.596,497.791 930.5,498.5C 931.196,503.184 933.196,507.184 936.5,510.5C 938.478,514.478 941.478,517.478 945.5,519.5C 945.842,520.338 946.508,520.672 947.5,520.5C 947.5,521.167 947.833,521.5 948.5,521.5C 949.209,522.404 950.209,522.737 951.5,522.5C 951.842,523.338 952.508,523.672 953.5,523.5C 954.209,524.404 955.209,524.737 956.5,524.5C 957.568,525.434 958.901,525.768 960.5,525.5C 962.607,526.468 964.941,526.802 967.5,526.5C 975.5,527.833 983.5,527.833 991.5,526.5C 993.735,526.795 995.735,526.461 997.5,525.5C 998.791,525.737 999.791,525.404 1000.5,524.5C 1007.66,523.1 1012.66,519.1 1015.5,512.5C 1016.4,511.791 1016.74,510.791 1016.5,509.5C 1017.83,504.5 1017.83,499.5 1016.5,494.5C 1016.74,493.209 1016.4,492.209 1015.5,491.5C 1015.67,490.508 1015.34,489.842 1014.5,489.5C 1014.67,488.508 1014.34,487.842 1013.5,487.5C 1013.5,486.833 1013.17,486.5 1012.5,486.5C 1012.5,485.833 1012.17,485.5 1011.5,485.5C 1011.5,484.833 1011.17,484.5 1010.5,484.5C 1010.16,483.662 1009.49,483.328 1008.5,483.5C 1008.16,482.662 1007.49,482.328 1006.5,482.5C 1006.16,481.662 1005.49,481.328 1004.5,481.5C 1004.16,480.662 1003.49,480.328 1002.5,480.5C 1002.16,479.662 1001.49,479.328 1000.5,479.5C 999.791,478.596 998.791,478.263 997.5,478.5C 996.791,477.596 995.791,477.263 994.5,477.5C 993.791,476.596 992.791,476.263 991.5,476.5C 990.432,475.566 989.099,475.232 987.5,475.5C 986.432,474.566 985.099,474.232 983.5,474.5C 982.432,473.566 981.099,473.232 979.5,473.5C 978.081,472.549 976.415,472.216 974.5,472.5C 973.432,471.566 972.099,471.232 970.5,471.5C 969.432,470.566 968.099,470.232 966.5,470.5C 965.432,469.566 964.099,469.232 962.5,469.5C 961.432,468.566 960.099,468.232 958.5,468.5C 957.432,467.566 956.099,467.232 954.5,467.5C 953.791,466.596 952.791,466.263 951.5,466.5C 950.791,465.596 949.791,465.263 948.5,465.5C 947.791,464.596 946.791,464.263 945.5,464.5C 944.791,463.596 943.791,463.263 942.5,463.5C 941.07,462.463 939.403,461.796 937.5,461.5C 937.158,460.662 936.492,460.328 935.5,460.5C 935.158,459.662 934.492,459.328 933.5,459.5C 933.158,458.662 932.492,458.328 931.5,458.5C 931.158,457.662 930.492,457.328 929.5,457.5C 928.71,456.599 927.71,455.932 926.5,455.5C 925.71,454.599 924.71,453.932 923.5,453.5C 922.5,450.5 920.5,448.5 917.5,447.5C 913.717,442.929 910.717,437.929 908.5,432.5C 908.768,430.901 908.434,429.568 907.5,428.5C 907.5,428.167 907.5,427.833 907.5,427.5C 907.785,424.171 907.118,421.171 905.5,418.5C 906.833,415.167 906.833,411.833 905.5,408.5C 906.913,405.781 907.58,402.781 907.5,399.5C 908.434,398.432 908.768,397.099 908.5,395.5C 909.338,395.158 909.672,394.492 909.5,393.5C 917.451,377.89 929.784,367.223 946.5,361.5C 947.791,361.737 948.791,361.404 949.5,360.5C 951.099,360.768 952.432,360.434 953.5,359.5C 955.415,359.784 957.081,359.451 958.5,358.5C 960.735,358.795 962.735,358.461 964.5,357.5 Z M 988.5,381.5 C 993.198,382.1 997.864,382.933 1002.5,384C 1004.07,384.608 1005.4,385.442 1006.5,386.5C 1000.29,385.117 994.29,383.451 988.5,381.5 Z"/></g>
<g><path style="opacity:0.69" fill="#e97980" d="M 281.5,362.5 C 272.983,362.826 264.65,362.493 256.5,361.5C 261.683,361.465 266.85,361.132 272,360.5C 275.451,360.421 278.618,361.087 281.5,362.5 Z"/></g>
<g><path style="opacity:1" fill="#faf9f9" d="M 121.5,361.5 C 149.059,360.855 176.393,361.522 203.5,363.5C 202.536,370.721 202.203,377.721 202.5,384.5C 194.826,384.334 187.159,384.5 179.5,385C 178.226,385.977 178.226,386.811 179.5,387.5C 180.544,392.356 181.877,397.022 183.5,401.5C 184.055,405.397 185.055,409.063 186.5,412.5C 186.721,415.067 187.388,417.401 188.5,419.5C 188.232,421.099 188.566,422.432 189.5,423.5C 189.263,424.791 189.596,425.791 190.5,426.5C 190.232,428.099 190.566,429.432 191.5,430.5C 191.263,431.791 191.596,432.791 192.5,433.5C 192.232,435.099 192.566,436.432 193.5,437.5C 193.232,439.099 193.566,440.432 194.5,441.5C 194.263,442.791 194.596,443.791 195.5,444.5C 195.232,446.099 195.566,447.432 196.5,448.5C 196.263,449.791 196.596,450.791 197.5,451.5C 197.232,453.099 197.566,454.432 198.5,455.5C 198.232,457.099 198.566,458.432 199.5,459.5C 199.263,460.791 199.596,461.791 200.5,462.5C 200.232,464.099 200.566,465.432 201.5,466.5C 201.263,467.791 201.596,468.791 202.5,469.5C 202.232,471.099 202.566,472.432 203.5,473.5C 203.263,474.791 203.596,475.791 204.5,476.5C 204.232,478.099 204.566,479.432 205.5,480.5C 205.263,481.791 205.596,482.791 206.5,483.5C 206.232,485.099 206.566,486.432 207.5,487.5C 207.5,488.5 207.5,489.5 207.5,490.5C 207.222,492.346 207.889,493.68 209.5,494.5C 210.386,493.675 210.719,492.675 210.5,491.5C 210.5,490.833 210.5,490.167 210.5,489.5C 211.404,488.791 211.737,487.791 211.5,486.5C 212.434,485.432 212.768,484.099 212.5,482.5C 213.434,481.432 213.768,480.099 213.5,478.5C 214.404,477.791 214.737,476.791 214.5,475.5C 215.434,474.432 215.768,473.099 215.5,471.5C 216.404,470.791 216.737,469.791 216.5,468.5C 217.434,467.432 217.768,466.099 217.5,464.5C 218.434,463.432 218.768,462.099 218.5,460.5C 219.434,459.432 219.768,458.099 219.5,456.5C 220.404,455.791 220.737,454.791 220.5,453.5C 221.434,452.432 221.768,451.099 221.5,449.5C 222.434,448.432 222.768,447.099 222.5,445.5C 223.404,444.791 223.737,443.791 223.5,442.5C 224.434,441.432 224.768,440.099 224.5,438.5C 225.434,437.432 225.768,436.099 225.5,434.5C 226.404,433.791 226.737,432.791 226.5,431.5C 227.434,430.432 227.768,429.099 227.5,427.5C 228.434,426.432 228.768,425.099 228.5,423.5C 229.404,422.791 229.737,421.791 229.5,420.5C 230.434,419.432 230.768,418.099 230.5,416.5C 231.612,414.401 232.279,412.067 232.5,409.5C 233.434,408.432 233.768,407.099 233.5,405.5C 234.612,403.401 235.279,401.067 235.5,398.5C 236.434,397.432 236.768,396.099 236.5,394.5C 237.612,392.401 238.279,390.067 238.5,387.5C 239.434,386.432 239.768,385.099 239.5,383.5C 240.404,382.791 240.737,381.791 240.5,380.5C 241.434,379.432 241.768,378.099 241.5,376.5C 242.612,374.401 243.279,372.067 243.5,369.5C 244.612,367.401 245.279,365.067 245.5,362.5C 247.735,362.795 249.735,362.461 251.5,361.5C 253.167,361.5 254.833,361.5 256.5,361.5C 264.65,362.493 272.983,362.826 281.5,362.5C 282.675,362.281 283.675,362.614 284.5,363.5C 285.028,365.336 285.694,367.003 286.5,368.5C 286.263,369.791 286.596,370.791 287.5,371.5C 287.232,373.099 287.566,374.432 288.5,375.5C 288.263,376.791 288.596,377.791 289.5,378.5C 289.232,380.099 289.566,381.432 290.5,382.5C 290.232,384.099 290.566,385.432 291.5,386.5C 291.263,387.791 291.596,388.791 292.5,389.5C 292.232,391.099 292.566,392.432 293.5,393.5C 293.263,394.791 293.596,395.791 294.5,396.5C 294.232,398.099 294.566,399.432 295.5,400.5C 295.263,401.791 295.596,402.791 296.5,403.5C 296.232,405.099 296.566,406.432 297.5,407.5C 297.232,409.099 297.566,410.432 298.5,411.5C 298.263,412.791 298.596,413.791 299.5,414.5C 299.232,416.099 299.566,417.432 300.5,418.5C 300.263,419.791 300.596,420.791 301.5,421.5C 301.232,423.099 301.566,424.432 302.5,425.5C 302.263,426.791 302.596,427.791 303.5,428.5C 304.613,432.238 305.613,435.904 306.5,439.5C 306.263,440.791 306.596,441.791 307.5,442.5C 307.232,444.099 307.566,445.432 308.5,446.5C 308.232,448.099 308.566,449.432 309.5,450.5C 309.263,451.791 309.596,452.791 310.5,453.5C 310.232,455.099 310.566,456.432 311.5,457.5C 311.263,458.791 311.596,459.791 312.5,460.5C 312.232,462.099 312.566,463.432 313.5,464.5C 313.721,467.067 314.388,469.401 315.5,471.5C 317.198,479.293 319.365,486.959 322,494.5C 324.816,485.235 327.316,475.901 329.5,466.5C 330.434,465.432 330.768,464.099 330.5,462.5C 331.612,460.401 332.279,458.067 332.5,455.5C 333.434,454.432 333.768,453.099 333.5,451.5C 334.404,450.791 334.737,449.791 334.5,448.5C 335.434,447.432 335.768,446.099 335.5,444.5C 336.434,443.432 336.768,442.099 336.5,440.5C 337.404,439.791 337.737,438.791 337.5,437.5C 338.434,436.432 338.768,435.099 338.5,433.5C 339.434,432.432 339.768,431.099 339.5,429.5C 340.404,428.791 340.737,427.791 340.5,426.5C 341.434,425.432 341.768,424.099 341.5,422.5C 342.386,418.917 343.386,415.25 344.5,411.5C 345.434,410.432 345.768,409.099 345.5,407.5C 346.404,406.791 346.737,405.791 346.5,404.5C 347.434,403.432 347.768,402.099 347.5,400.5C 348.434,399.432 348.768,398.099 348.5,396.5C 349.434,395.432 349.768,394.099 349.5,392.5C 350.434,391.432 350.768,390.099 350.5,388.5C 351.167,388.5 351.5,388.167 351.5,387.5C 352.692,386.434 352.359,385.601 350.5,385C 342.841,384.5 335.174,384.334 327.5,384.5C 327.806,381.615 327.473,378.948 326.5,376.5C 326.5,371.5 326.5,366.5 326.5,361.5C 401.167,361.5 475.833,361.5 550.5,361.5C 550.5,381.5 550.5,401.5 550.5,421.5C 543.833,421.5 537.167,421.5 530.5,421.5C 529.386,417.75 528.386,414.083 527.5,410.5C 527.768,408.901 527.434,407.568 526.5,406.5C 526.737,405.209 526.404,404.209 525.5,403.5C 525.672,402.508 525.338,401.842 524.5,401.5C 524.672,400.508 524.338,399.842 523.5,399.5C 523.672,398.508 523.338,397.842 522.5,397.5C 522.672,396.508 522.338,395.842 521.5,395.5C 521.5,394.833 521.167,394.5 520.5,394.5C 520.5,393.833 520.167,393.5 519.5,393.5C 519.167,392.5 518.5,391.833 517.5,391.5C 517.5,390.833 517.167,390.5 516.5,390.5C 516.158,389.662 515.492,389.328 514.5,389.5C 513.791,388.596 512.791,388.263 511.5,388.5C 510.791,387.596 509.791,387.263 508.5,387.5C 506.735,386.539 504.735,386.205 502.5,386.5C 487.342,385.504 472.009,385.17 456.5,385.5C 456.5,403.833 456.5,422.167 456.5,440.5C 474.171,440.782 491.838,441.282 509.5,442C 512.106,450.152 512.106,458.319 509.5,466.5C 507.585,466.216 505.919,466.549 504.5,467.5C 488.603,467.4 472.603,467.4 456.5,467.5C 455.503,486.326 455.17,505.326 455.5,524.5C 468.344,524.829 481.011,524.495 493.5,523.5C 498.363,523.819 503.03,523.486 507.5,522.5C 509.415,522.784 511.081,522.451 512.5,521.5C 513.791,521.737 514.791,521.404 515.5,520.5C 516.492,520.672 517.158,520.338 517.5,519.5C 520.195,517.821 522.695,515.821 525,513.5C 525.483,512.552 525.649,511.552 525.5,510.5C 526.338,510.158 526.672,509.492 526.5,508.5C 527.404,507.791 527.737,506.791 527.5,505.5C 528.404,504.791 528.737,503.791 528.5,502.5C 529.404,501.791 529.737,500.791 529.5,499.5C 530.434,498.432 530.768,497.099 530.5,495.5C 531.404,494.791 531.737,493.791 531.5,492.5C 532.434,491.432 532.768,490.099 532.5,488.5C 533.234,487.122 533.901,485.622 534.5,484C 540.491,483.501 546.491,483.334 552.5,483.5C 552.5,504.5 552.5,525.5 552.5,546.5C 499.877,547.258 447.21,547.591 394.5,547.5C 394.5,539.833 394.5,532.167 394.5,524.5C 397.167,524.5 399.833,524.5 402.5,524.5C 407.167,524.5 411.833,524.5 416.5,524.5C 416.832,477.997 416.499,431.664 415.5,385.5C 403.452,384.855 391.785,385.522 380.5,387.5C 379.596,388.209 379.263,389.209 379.5,390.5C 378.566,391.568 378.232,392.901 378.5,394.5C 377.596,395.209 377.263,396.209 377.5,397.5C 376.566,398.568 376.232,399.901 376.5,401.5C 375.596,402.209 375.263,403.209 375.5,404.5C 374.566,405.568 374.232,406.901 374.5,408.5C 373.596,409.209 373.263,410.209 373.5,411.5C 372.388,413.599 371.721,415.933 371.5,418.5C 370.388,420.599 369.721,422.933 369.5,425.5C 368.388,427.599 367.721,429.933 367.5,432.5C 366.388,434.599 365.721,436.933 365.5,439.5C 364.596,440.209 364.263,441.209 364.5,442.5C 363.566,443.568 363.232,444.901 363.5,446.5C 362.596,447.209 362.263,448.209 362.5,449.5C 361.566,450.568 361.232,451.901 361.5,453.5C 360.596,454.209 360.263,455.209 360.5,456.5C 359.566,457.568 359.232,458.901 359.5,460.5C 358.596,461.209 358.263,462.209 358.5,463.5C 357.566,464.568 357.232,465.901 357.5,467.5C 356.596,468.209 356.263,469.209 356.5,470.5C 355.566,471.568 355.232,472.901 355.5,474.5C 354.596,475.209 354.263,476.209 354.5,477.5C 353.566,478.568 353.232,479.901 353.5,481.5C 352.596,482.209 352.263,483.209 352.5,484.5C 351.566,485.568 351.232,486.901 351.5,488.5C 350.596,489.209 350.263,490.209 350.5,491.5C 349.566,492.568 349.232,493.901 349.5,495.5C 348.596,496.209 348.263,497.209 348.5,498.5C 347.566,499.568 347.232,500.901 347.5,502.5C 346.596,503.209 346.263,504.209 346.5,505.5C 345.566,506.568 345.232,507.901 345.5,509.5C 344.596,510.209 344.263,511.209 344.5,512.5C 343.566,513.568 343.232,514.901 343.5,516.5C 342.596,517.209 342.263,518.209 342.5,519.5C 341.566,520.568 341.232,521.901 341.5,523.5C 340.596,524.209 340.263,525.209 340.5,526.5C 339.566,527.568 339.232,528.901 339.5,530.5C 338.596,531.209 338.263,532.209 338.5,533.5C 337.566,534.568 337.232,535.901 337.5,537.5C 336.596,538.209 336.263,539.209 336.5,540.5C 335.566,541.568 335.232,542.901 335.5,544.5C 333.668,546.894 331.168,547.894 328,547.5C 319.669,546.211 311.336,546.211 303,547.5C 298.403,548.586 295.903,546.919 295.5,542.5C 295.737,541.209 295.404,540.209 294.5,539.5C 294.768,537.901 294.434,536.568 293.5,535.5C 293.737,534.209 293.404,533.209 292.5,532.5C 292.768,530.901 292.434,529.568 291.5,528.5C 291.737,527.209 291.404,526.209 290.5,525.5C 290.768,523.901 290.434,522.568 289.5,521.5C 289.768,519.901 289.434,518.568 288.5,517.5C 288.737,516.209 288.404,515.209 287.5,514.5C 287.768,512.901 287.434,511.568 286.5,510.5C 286.737,509.209 286.404,508.209 285.5,507.5C 285.768,505.901 285.434,504.568 284.5,503.5C 284.279,500.933 283.612,498.599 282.5,496.5C 282.279,493.933 281.612,491.599 280.5,489.5C 280.768,487.901 280.434,486.568 279.5,485.5C 279.279,482.933 278.612,480.599 277.5,478.5C 277.279,475.933 276.612,473.599 275.5,471.5C 275.768,469.901 275.434,468.568 274.5,467.5C 274.737,466.209 274.404,465.209 273.5,464.5C 273.768,462.901 273.434,461.568 272.5,460.5C 272.737,459.209 272.404,458.209 271.5,457.5C 271.768,455.901 271.434,454.568 270.5,453.5C 270.737,452.209 270.404,451.209 269.5,450.5C 269.768,448.901 269.434,447.568 268.5,446.5C 268.768,444.901 268.434,443.568 267.5,442.5C 267.737,441.209 267.404,440.209 266.5,439.5C 266.768,437.901 266.434,436.568 265.5,435.5C 265.737,434.209 265.404,433.209 264.5,432.5C 264.768,430.901 264.434,429.568 263.5,428.5C 263.737,427.209 263.404,426.209 262.5,425.5C 262.768,423.901 262.434,422.568 261.5,421.5C 261.5,421.167 261.5,420.833 261.5,420.5C 260.438,415.233 259.438,415.233 258.5,420.5C 257.566,421.568 257.232,422.901 257.5,424.5C 256.596,425.209 256.263,426.209 256.5,427.5C 255.596,428.209 255.263,429.209 255.5,430.5C 254.566,431.568 254.232,432.901 254.5,434.5C 253.596,435.209 253.263,436.209 253.5,437.5C 252.596,438.209 252.263,439.209 252.5,440.5C 251.566,441.568 251.232,442.901 251.5,444.5C 250.596,445.209 250.263,446.209 250.5,447.5C 249.566,448.568 249.232,449.901 249.5,451.5C 248.596,452.209 248.263,453.209 248.5,454.5C 247.566,455.568 247.232,456.901 247.5,458.5C 246.596,459.209 246.263,460.209 246.5,461.5C 245.566,462.568 245.232,463.901 245.5,465.5C 244.596,466.209 244.263,467.209 244.5,468.5C 243.566,469.568 243.232,470.901 243.5,472.5C 242.596,473.209 242.263,474.209 242.5,475.5C 241.566,476.568 241.232,477.901 241.5,479.5C 240.596,480.209 240.263,481.209 240.5,482.5C 239.566,483.568 239.232,484.901 239.5,486.5C 238.596,487.209 238.263,488.209 238.5,489.5C 237.566,490.568 237.232,491.901 237.5,493.5C 236.596,494.209 236.263,495.209 236.5,496.5C 235.566,497.568 235.232,498.901 235.5,500.5C 234.596,501.209 234.263,502.209 234.5,503.5C 233.566,504.568 233.232,505.901 233.5,507.5C 232.596,508.209 232.263,509.209 232.5,510.5C 231.388,512.599 230.721,514.933 230.5,517.5C 227.439,526.886 224.439,536.386 221.5,546C 209.167,546.667 196.833,546.667 184.5,546C 182.896,541.051 181.229,536.218 179.5,531.5C 179.737,530.209 179.404,529.209 178.5,528.5C 178.768,526.901 178.434,525.568 177.5,524.5C 177.737,523.209 177.404,522.209 176.5,521.5C 176.768,519.901 176.434,518.568 175.5,517.5C 175.737,516.209 175.404,515.209 174.5,514.5C 174.768,512.901 174.434,511.568 173.5,510.5C 173.737,509.209 173.404,508.209 172.5,507.5C 172.768,505.901 172.434,504.568 171.5,503.5C 171.737,502.209 171.404,501.209 170.5,500.5C 170.768,498.901 170.434,497.568 169.5,496.5C 169.737,495.209 169.404,494.209 168.5,493.5C 168.768,491.901 168.434,490.568 167.5,489.5C 167.737,488.209 167.404,487.209 166.5,486.5C 166.768,484.901 166.434,483.568 165.5,482.5C 165.737,481.209 165.404,480.209 164.5,479.5C 164.768,477.901 164.434,476.568 163.5,475.5C 163.737,474.209 163.404,473.209 162.5,472.5C 162.768,470.901 162.434,469.568 161.5,468.5C 161.737,467.209 161.404,466.209 160.5,465.5C 160.768,463.901 160.434,462.568 159.5,461.5C 159.737,460.209 159.404,459.209 158.5,458.5C 157.489,455.06 156.489,451.726 155.5,448.5C 155.768,446.901 155.434,445.568 154.5,444.5C 154.737,443.209 154.404,442.209 153.5,441.5C 153.768,439.901 153.434,438.568 152.5,437.5C 152.737,436.209 152.404,435.209 151.5,434.5C 151.768,432.901 151.434,431.568 150.5,430.5C 150.737,429.209 150.404,428.209 149.5,427.5C 149.768,425.901 149.434,424.568 148.5,423.5C 148.737,422.209 148.404,421.209 147.5,420.5C 147.279,417.933 146.612,415.599 145.5,413.5C 143.589,404.173 140.923,395.173 137.5,386.5C 132.433,385.812 127.267,385.145 122,384.5C 120.644,385.38 119.144,385.714 117.5,385.5C 117.5,384.833 117.167,384.5 116.5,384.5C 117.698,378.115 117.698,371.782 116.5,365.5C 117.404,364.791 117.737,363.791 117.5,362.5C 119.099,362.768 120.432,362.434 121.5,361.5 Z M 261.5,420.5 C 260.5,419.167 259.5,419.167 258.5,420.5C 259.438,415.233 260.438,415.233 261.5,420.5 Z"/></g>
<g><path style="opacity:1" fill="#faf8f8" d="M 659.5,363.5 C 658.184,370.334 658.184,377.167 659.5,384C 651.141,384.295 642.808,384.795 634.5,385.5C 634.5,431.833 634.5,478.167 634.5,524.5C 639.167,524.5 643.833,524.5 648.5,524.5C 652.5,525.833 656.5,525.833 660.5,524.5C 663.059,524.802 665.393,524.468 667.5,523.5C 671.042,523.813 674.375,523.479 677.5,522.5C 679.099,522.768 680.432,522.434 681.5,521.5C 682.791,521.737 683.791,521.404 684.5,520.5C 685.492,520.672 686.158,520.338 686.5,519.5C 687.492,519.672 688.158,519.338 688.5,518.5C 689.167,518.5 689.5,518.167 689.5,517.5C 691.543,516.421 692.876,514.754 693.5,512.5C 695.065,510.491 696.065,508.157 696.5,505.5C 697.612,503.401 698.279,501.067 698.5,498.5C 699.923,493.673 701.589,488.839 703.5,484C 709.167,483.333 714.833,483.333 720.5,484C 721.056,484.383 721.389,484.883 721.5,485.5C 721.5,506.167 721.5,526.833 721.5,547.5C 696.5,547.5 671.5,547.5 646.5,547.5C 622.339,546.502 598.006,546.169 573.5,546.5C 573.5,539.5 573.5,532.5 573.5,525.5C 578.527,525.497 583.527,525.164 588.5,524.5C 590.415,524.784 592.081,524.451 593.5,523.5C 594.499,477.67 594.832,431.67 594.5,385.5C 591.624,385.208 588.957,385.208 586.5,385.5C 582.366,384.515 578.032,384.182 573.5,384.5C 573.806,381.615 573.473,378.948 572.5,376.5C 572.5,373.5 572.5,370.5 572.5,367.5C 572.261,365.533 572.594,363.699 573.5,362C 587.667,361.833 601.833,361.667 616,361.5C 630.721,361.517 645.221,362.183 659.5,363.5 Z"/></g>
<g><path style="opacity:1" fill="#faf9f9" d="M 825.5,368.5 C 825.162,374.022 825.162,379.022 825.5,383.5C 825.672,384.492 825.338,385.158 824.5,385.5C 816.648,384.285 808.648,384.285 800.5,385.5C 800.5,413.167 800.5,440.833 800.5,468.5C 799.846,487.197 800.513,505.53 802.5,523.5C 806.634,524.485 810.968,524.818 815.5,524.5C 819.833,525.833 824.167,525.833 828.5,524.5C 829.5,524.5 830.5,524.5 831.5,524.5C 836.028,524.23 840.361,523.563 844.5,522.5C 846.099,522.768 847.432,522.434 848.5,521.5C 849.791,521.737 850.791,521.404 851.5,520.5C 852.492,520.672 853.158,520.338 853.5,519.5C 854.167,519.5 854.5,519.167 854.5,518.5C 855.167,518.5 855.5,518.167 855.5,517.5C 856.833,516.833 857.833,515.833 858.5,514.5C 860.008,512.819 861.008,510.819 861.5,508.5C 862.338,508.158 862.672,507.492 862.5,506.5C 863.404,505.791 863.737,504.791 863.5,503.5C 864.404,502.791 864.737,501.791 864.5,500.5C 865.434,499.432 865.768,498.099 865.5,496.5C 866.434,495.432 866.768,494.099 866.5,492.5C 867.404,491.791 867.737,490.791 867.5,489.5C 868.404,488.791 868.737,487.791 868.5,486.5C 869.289,486.217 869.956,485.717 870.5,485C 876.157,484.501 881.824,484.334 887.5,484.5C 887.5,505.167 887.5,525.833 887.5,546.5C 838.167,546.5 788.833,546.5 739.5,546.5C 738.345,539.679 738.179,532.679 739,525.5C 742.057,524.549 745.223,524.216 748.5,524.5C 752.833,524.5 757.167,524.5 761.5,524.5C 761.832,477.997 761.499,431.664 760.5,385.5C 753.167,385.5 745.833,385.5 738.5,385.5C 738.5,377.5 738.5,369.5 738.5,361.5C 767.169,361.333 795.835,361.5 824.5,362C 825.423,364.041 825.756,366.208 825.5,368.5 Z M 844.5,522.5 C 840.361,523.563 836.028,524.23 831.5,524.5C 832.263,523.732 833.263,523.232 834.5,523C 837.817,522.502 841.15,522.335 844.5,522.5 Z"/></g>
<g><path style="opacity:0.737" fill="#df4851" d="M 571.5,366.5 C 571.5,367.167 571.833,367.5 572.5,367.5C 572.5,370.5 572.5,373.5 572.5,376.5C 572.5,378.833 572.5,381.167 572.5,383.5C 571.751,382.469 571.085,381.302 570.5,380C 570.261,375.518 570.594,371.018 571.5,366.5 Z"/></g>
<g><path style="opacity:0.69" fill="#eb8c94" d="M 825.5,368.5 C 826.833,373.5 826.833,378.5 825.5,383.5C 825.162,379.022 825.162,374.022 825.5,368.5 Z"/></g>
<g><path style="opacity:0.831" fill="#eea0a7" d="M 202.5,384.5 C 194.772,385.022 187.105,386.022 179.5,387.5C 178.226,386.811 178.226,385.977 179.5,385C 187.159,384.5 194.826,384.334 202.5,384.5 Z"/></g>
<g><path style="opacity:0.831" fill="#efa3a9" d="M 326.5,376.5 C 327.473,378.948 327.806,381.615 327.5,384.5C 335.174,384.334 342.841,384.5 350.5,385C 352.359,385.601 352.692,386.434 351.5,387.5C 343.294,385.716 334.96,385.05 326.5,385.5C 326.5,382.5 326.5,379.5 326.5,376.5 Z"/></g>
<g><path style="opacity:0.69" fill="#ec9098" d="M 572.5,376.5 C 573.473,378.948 573.806,381.615 573.5,384.5C 578.032,384.182 582.366,384.515 586.5,385.5C 581.381,386.103 576.715,385.436 572.5,383.5C 572.5,381.167 572.5,378.833 572.5,376.5 Z"/></g>
<g><path style="opacity:0.69" fill="#ea868e" d="M 415.5,385.5 C 416.499,431.664 416.832,477.997 416.5,524.5C 411.833,524.5 407.167,524.5 402.5,524.5C 406.634,523.515 410.968,523.182 415.5,523.5C 415.5,477.5 415.5,431.5 415.5,385.5 Z"/></g>
<g><path style="opacity:0.831" fill="#efa9af" d="M 760.5,385.5 C 761.499,431.664 761.832,477.997 761.5,524.5C 757.167,524.5 752.833,524.5 748.5,524.5C 752.298,523.517 756.298,523.183 760.5,523.5C 760.5,477.5 760.5,431.5 760.5,385.5 Z"/></g>
<g><path style="opacity:0.69" fill="#ec8f96" d="M 1008.5,387.5 C 1008.5,387.167 1008.5,386.833 1008.5,386.5C 1010.03,386.427 1011.03,387.094 1011.5,388.5C 1010.83,388.5 1010.17,388.5 1009.5,388.5C 1009.5,387.833 1009.17,387.5 1008.5,387.5 Z"/></g>
<g><path style="opacity:0.447" fill="#ea8b93" d="M 824.5,385.5 C 816.846,386.07 809.179,386.404 801.5,386.5C 801.831,414.005 801.498,441.338 800.5,468.5C 800.5,440.833 800.5,413.167 800.5,385.5C 808.648,384.285 816.648,384.285 824.5,385.5 Z"/></g>
<g><path style="opacity:0.937" fill="#e55c64" d="M 530.5,421.5 C 537.167,421.5 543.833,421.5 550.5,421.5C 547.772,422.205 544.939,422.872 542,423.5C 538.171,423.445 534.338,422.778 530.5,421.5 Z"/></g>
<g><path style="opacity:0.831" fill="#ed999f" d="M 917.5,447.5 C 920.5,448.5 922.5,450.5 923.5,453.5C 921.167,451.833 919.167,449.833 917.5,447.5 Z"/></g>
<g><path style="opacity:0.831" fill="#efa4aa" d="M 887.5,484.5 C 881.824,484.334 876.157,484.501 870.5,485C 869.956,485.717 869.289,486.217 868.5,486.5C 868.414,485.504 868.748,484.671 869.5,484C 875.681,483.181 881.681,483.347 887.5,484.5 Z"/></g>
<g><path style="opacity:0.831" fill="#ed9aa1" d="M 924.5,484.5 C 918.5,484.5 912.5,484.5 906.5,484.5C 906.5,497.5 906.5,510.5 906.5,523.5C 905.504,510.01 905.171,496.344 905.5,482.5C 912.016,482.79 918.35,483.457 924.5,484.5 Z"/></g>
<g><path style="opacity:0.69" fill="#ea868e" d="M 887.5,484.5 C 888.497,505.327 888.831,526.327 888.5,547.5C 838.664,547.832 788.997,547.499 739.5,546.5C 788.833,546.5 838.167,546.5 887.5,546.5C 887.5,525.833 887.5,505.167 887.5,484.5 Z"/></g>
<g><path style="opacity:0.937" fill="#e3525b" d="M 721.5,485.5 C 724.13,506.164 724.13,526.831 721.5,547.5C 721.5,526.833 721.5,506.167 721.5,485.5 Z"/></g>
<g><path style="opacity:0.831" fill="#eea1a8" d="M 207.5,490.5 C 208.391,491.11 209.391,491.443 210.5,491.5C 210.719,492.675 210.386,493.675 209.5,494.5C 207.889,493.68 207.222,492.346 207.5,490.5 Z"/></g>
<g><path style="opacity:0.447" fill="#ec969d" d="M 456.5,467.5 C 456.5,486.167 456.5,504.833 456.5,523.5C 468.833,523.5 481.167,523.5 493.5,523.5C 481.011,524.495 468.344,524.829 455.5,524.5C 455.17,505.326 455.503,486.326 456.5,467.5 Z"/></g>
<g><path style="opacity:0.831" fill="#efa9af" d="M 660.5,524.5 C 656.5,525.833 652.5,525.833 648.5,524.5C 652.399,523.634 656.399,523.634 660.5,524.5 Z"/></g>
<g><path style="opacity:0.831" fill="#efa9af" d="M 828.5,524.5 C 824.167,525.833 819.833,525.833 815.5,524.5C 819.688,523.887 824.021,523.887 828.5,524.5 Z"/></g>
<g><path style="opacity:0.69" fill="#e97d84" d="M 1047.5,526.5 C 1047.83,526.5 1048.17,526.5 1048.5,526.5C 1045.78,529.888 1042.78,532.888 1039.5,535.5C 1041.43,531.9 1044.1,528.9 1047.5,526.5 Z"/></g>
<g><path style="opacity:0.447" fill="#eb8e96" d="M 588.5,524.5 C 583.527,525.164 578.527,525.497 573.5,525.5C 573.5,532.5 573.5,539.5 573.5,546.5C 598.006,546.169 622.339,546.502 646.5,547.5C 621.833,547.5 597.167,547.5 572.5,547.5C 572.054,539.827 571.888,532.16 572,524.5C 577.599,523.175 583.099,523.175 588.5,524.5 Z"/></g>
<g><path style="opacity:1" fill="#faf9f9" d="M 752.5,636.5 C 760.833,636.5 769.167,636.5 777.5,636.5C 780.287,637.477 783.287,637.81 786.5,637.5C 788.265,638.461 790.265,638.795 792.5,638.5C 793.919,639.451 795.585,639.784 797.5,639.5C 798.919,640.451 800.585,640.784 802.5,640.5C 803.568,641.434 804.901,641.768 806.5,641.5C 807.568,642.434 808.901,642.768 810.5,642.5C 811.209,643.404 812.209,643.737 813.5,643.5C 814.209,644.404 815.209,644.737 816.5,644.5C 822.859,646.839 829.193,649.505 835.5,652.5C 835.749,668.468 835.749,684.468 835.5,700.5C 828.549,701.066 821.882,700.399 815.5,698.5C 815.737,697.209 815.404,696.209 814.5,695.5C 814.672,694.508 814.338,693.842 813.5,693.5C 813.737,692.209 813.404,691.209 812.5,690.5C 812.672,689.508 812.338,688.842 811.5,688.5C 811.672,687.508 811.338,686.842 810.5,686.5C 810.672,685.508 810.338,684.842 809.5,684.5C 809.672,683.508 809.338,682.842 808.5,682.5C 808.5,681.833 808.167,681.5 807.5,681.5C 807.672,680.508 807.338,679.842 806.5,679.5C 806.5,678.833 806.167,678.5 805.5,678.5C 805.672,677.508 805.338,676.842 804.5,676.5C 803.189,673.189 800.855,670.855 797.5,669.5C 797.167,669.5 796.833,669.5 796.5,669.5C 796.5,668.833 796.167,668.5 795.5,668.5C 795.158,667.662 794.492,667.328 793.5,667.5C 793.5,666.833 793.167,666.5 792.5,666.5C 792.158,665.662 791.492,665.328 790.5,665.5C 785.431,662.145 779.765,660.479 773.5,660.5C 773.167,660.5 772.833,660.5 772.5,660.5C 770.5,659.167 768.5,659.167 766.5,660.5C 765.167,660.5 763.833,660.5 762.5,660.5C 758.884,660.899 755.55,661.899 752.5,663.5C 751.209,663.263 750.209,663.596 749.5,664.5C 734.947,669.385 724.947,679.052 719.5,693.5C 717.552,695.32 716.552,697.654 716.5,700.5C 716.5,701.5 716.5,702.5 716.5,703.5C 715.566,704.568 715.232,705.901 715.5,707.5C 713.87,715.317 712.537,723.317 711.5,731.5C 711.5,733.5 711.5,735.5 711.5,737.5C 711.366,741.302 712.033,744.968 713.5,748.5C 712.857,753.314 713.524,757.981 715.5,762.5C 715.263,763.791 715.596,764.791 716.5,765.5C 719.701,779.916 727.368,791.25 739.5,799.5C 740.219,801.888 741.885,803.388 744.5,804C 746.722,804.695 748.889,805.528 751,806.5C 751.765,806.43 752.265,806.097 752.5,805.5C 752.833,805.5 753.167,805.5 753.5,805.5C 754.209,806.404 755.209,806.737 756.5,806.5C 758.599,807.612 760.933,808.279 763.5,808.5C 767.516,809.743 771.516,809.743 775.5,808.5C 779.519,808.354 783.519,808.021 787.5,807.5C 788.167,807.5 788.5,807.167 788.5,806.5C 791.01,806.946 793.01,806.28 794.5,804.5C 795.791,804.737 796.791,804.404 797.5,803.5C 798.791,803.737 799.791,803.404 800.5,802.5C 801.807,787.168 801.807,771.834 800.5,756.5C 794.833,756.5 789.167,756.5 783.5,756.5C 778.737,756.774 774.07,756.441 769.5,755.5C 769.5,754.833 769.167,754.5 768.5,754.5C 768.737,753.209 768.404,752.209 767.5,751.5C 767.5,745.833 767.5,740.167 767.5,734.5C 768.338,734.158 768.672,733.492 768.5,732.5C 770.632,730.341 773.299,729.341 776.5,729.5C 797.483,730.455 818.483,730.788 839.5,730.5C 839.178,752.242 839.512,773.909 840.5,795.5C 839.51,801.31 839.177,807.31 839.5,813.5C 838.833,813.5 838.5,813.833 838.5,814.5C 837.508,814.328 836.842,814.662 836.5,815.5C 833.982,816.264 831.649,817.264 829.5,818.5C 800.684,831.352 770.684,835.352 739.5,830.5C 738.432,829.566 737.099,829.232 735.5,829.5C 733.401,828.388 731.067,827.721 728.5,827.5C 728.158,826.662 727.492,826.328 726.5,826.5C 725.791,825.596 724.791,825.263 723.5,825.5C 723.158,824.662 722.492,824.328 721.5,824.5C 721.158,823.662 720.492,823.328 719.5,823.5C 719.158,822.662 718.492,822.328 717.5,822.5C 717.158,821.662 716.492,821.328 715.5,821.5C 715.158,820.662 714.492,820.328 713.5,820.5C 713.158,819.662 712.492,819.328 711.5,819.5C 711.5,818.833 711.167,818.5 710.5,818.5C 710.158,817.662 709.492,817.328 708.5,817.5C 708.5,816.833 708.167,816.5 707.5,816.5C 706.71,815.599 705.71,814.932 704.5,814.5C 704.5,813.833 704.167,813.5 703.5,813.5C 698.833,809.5 694.5,805.167 690.5,800.5C 690.5,799.833 690.167,799.5 689.5,799.5C 689.5,798.833 689.167,798.5 688.5,798.5C 688.5,797.833 688.167,797.5 687.5,797.5C 687.672,796.508 687.338,795.842 686.5,795.5C 686.5,794.833 686.167,794.5 685.5,794.5C 685.672,793.508 685.338,792.842 684.5,792.5C 684.5,791.833 684.167,791.5 683.5,791.5C 683.672,790.508 683.338,789.842 682.5,789.5C 682.672,788.508 682.338,787.842 681.5,787.5C 681.672,786.508 681.338,785.842 680.5,785.5C 680.672,784.508 680.338,783.842 679.5,783.5C 679.672,782.508 679.338,781.842 678.5,781.5C 678.672,780.508 678.338,779.842 677.5,779.5C 677.672,778.508 677.338,777.842 676.5,777.5C 676.737,776.209 676.404,775.209 675.5,774.5C 675.737,773.209 675.404,772.209 674.5,771.5C 674.737,770.209 674.404,769.209 673.5,768.5C 673.768,766.901 673.434,765.568 672.5,764.5C 672.768,762.901 672.434,761.568 671.5,760.5C 671.784,758.585 671.451,756.919 670.5,755.5C 670.81,752.287 670.477,749.287 669.5,746.5C 669.354,735.813 669.688,725.146 670.5,714.5C 671.461,712.735 671.795,710.735 671.5,708.5C 672.434,707.432 672.768,706.099 672.5,704.5C 673.612,702.401 674.279,700.067 674.5,697.5C 681.996,676.343 695.329,660.01 714.5,648.5C 715.492,648.672 716.158,648.338 716.5,647.5C 717.492,647.672 718.158,647.338 718.5,646.5C 719.492,646.672 720.158,646.338 720.5,645.5C 721.492,645.672 722.158,645.338 722.5,644.5C 723.492,644.672 724.158,644.338 724.5,643.5C 725.791,643.737 726.791,643.404 727.5,642.5C 728.791,642.737 729.791,642.404 730.5,641.5C 731.791,641.737 732.791,641.404 733.5,640.5C 735.099,640.768 736.432,640.434 737.5,639.5C 739.099,639.768 740.432,639.434 741.5,638.5C 743.415,638.784 745.081,638.451 746.5,637.5C 748.735,637.795 750.735,637.461 752.5,636.5 Z M 762.5,660.5 C 762.918,661.222 763.584,661.722 764.5,662C 760.49,662.501 756.49,663.001 752.5,663.5C 755.55,661.899 758.884,660.899 762.5,660.5 Z M 773.5,660.5 C 779.765,660.479 785.431,662.145 790.5,665.5C 784.64,663.703 778.64,662.536 772.5,662C 773.056,661.617 773.389,661.117 773.5,660.5 Z M 711.5,737.5 C 712.469,739.663 713.302,741.996 714,744.5C 714.501,750.507 715.001,756.507 715.5,762.5C 713.524,757.981 712.857,753.314 713.5,748.5C 712.033,744.968 711.366,741.302 711.5,737.5 Z M 756.5,806.5 C 758.167,806.5 759.833,806.5 761.5,806.5C 762.167,807.167 762.833,807.833 763.5,808.5C 760.933,808.279 758.599,807.612 756.5,806.5 Z M 779.5,806.5 C 782.385,806.194 785.052,806.527 787.5,807.5C 783.519,808.021 779.519,808.354 775.5,808.5C 776.833,807.833 778.167,807.167 779.5,806.5 Z"/></g>
<g><path style="opacity:1" fill="#faf9f9" d="M 953.5,636.5 C 961.833,636.5 970.167,636.5 978.5,636.5C 980.265,637.461 982.265,637.795 984.5,637.5C 985.919,638.451 987.585,638.784 989.5,638.5C 990.568,639.434 991.901,639.768 993.5,639.5C 994.209,640.404 995.209,640.737 996.5,640.5C 997.209,641.404 998.209,641.737 999.5,641.5C 1000.93,642.537 1002.6,643.204 1004.5,643.5C 1008.43,645.467 1012.43,647.467 1016.5,649.5C 1017.29,650.401 1018.29,651.068 1019.5,651.5C 1021.46,652.82 1023.46,654.154 1025.5,655.5C 1058.71,684.268 1070.37,720.268 1060.5,763.5C 1059.33,766.341 1058.33,769.341 1057.5,772.5C 1056.6,773.209 1056.26,774.209 1056.5,775.5C 1055.66,775.842 1055.33,776.508 1055.5,777.5C 1054.66,777.842 1054.33,778.508 1054.5,779.5C 1053.66,779.842 1053.33,780.508 1053.5,781.5C 1052.66,781.842 1052.33,782.508 1052.5,783.5C 1051.66,783.842 1051.33,784.508 1051.5,785.5C 1050.66,785.842 1050.33,786.508 1050.5,787.5C 1049.83,787.5 1049.5,787.833 1049.5,788.5C 1048.66,788.842 1048.33,789.508 1048.5,790.5C 1047.83,790.5 1047.5,790.833 1047.5,791.5C 1046.66,791.842 1046.33,792.508 1046.5,793.5C 1045.83,793.5 1045.5,793.833 1045.5,794.5C 1044.66,794.842 1044.33,795.508 1044.5,796.5C 1043.83,796.5 1043.5,796.833 1043.5,797.5C 1042.83,797.5 1042.5,797.833 1042.5,798.5C 1038.5,801.833 1034.83,805.5 1031.5,809.5C 1030.5,810.5 1029.5,811.5 1028.5,812.5C 1027.51,812.328 1026.84,812.662 1026.5,813.5C 1025.83,813.5 1025.5,813.833 1025.5,814.5C 1024.83,814.5 1024.5,814.833 1024.5,815.5C 1023.51,815.328 1022.84,815.662 1022.5,816.5C 1021.83,816.5 1021.5,816.833 1021.5,817.5C 1020.51,817.328 1019.84,817.662 1019.5,818.5C 1018.51,818.328 1017.84,818.662 1017.5,819.5C 1016.51,819.328 1015.84,819.662 1015.5,820.5C 1014.83,820.5 1014.5,820.833 1014.5,821.5C 1013.51,821.328 1012.84,821.662 1012.5,822.5C 1011.51,822.328 1010.84,822.662 1010.5,823.5C 1009.21,823.263 1008.21,823.596 1007.5,824.5C 1006.51,824.328 1005.84,824.662 1005.5,825.5C 1004.21,825.263 1003.21,825.596 1002.5,826.5C 1001.51,826.328 1000.84,826.662 1000.5,827.5C 998.901,827.232 997.568,827.566 996.5,828.5C 995.209,828.263 994.209,828.596 993.5,829.5C 991.901,829.232 990.568,829.566 989.5,830.5C 977.568,832.164 965.568,832.831 953.5,832.5C 951.393,831.532 949.059,831.198 946.5,831.5C 945.081,830.549 943.415,830.216 941.5,830.5C 940.432,829.566 939.099,829.232 937.5,829.5C 936.432,828.566 935.099,828.232 933.5,828.5C 932.791,827.596 931.791,827.263 930.5,827.5C 930.158,826.662 929.492,826.328 928.5,826.5C 927.791,825.596 926.791,825.263 925.5,825.5C 925.158,824.662 924.492,824.328 923.5,824.5C 920.232,822.866 916.899,821.199 913.5,819.5C 913.158,818.662 912.492,818.328 911.5,818.5C 910.71,817.599 909.71,816.932 908.5,816.5C 906.381,814.6 904.047,812.934 901.5,811.5C 897.833,807.167 893.833,803.167 889.5,799.5C 883.472,792.104 878.472,784.104 874.5,775.5C 874.204,773.597 873.537,771.93 872.5,770.5C 872.737,769.209 872.404,768.209 871.5,767.5C 871.768,765.901 871.434,764.568 870.5,763.5C 870.768,761.901 870.434,760.568 869.5,759.5C 869.768,757.901 869.434,756.568 868.5,755.5C 868.802,752.941 868.468,750.607 867.5,748.5C 867.5,738.833 867.5,729.167 867.5,719.5C 868.461,717.735 868.795,715.735 868.5,713.5C 869.451,712.081 869.784,710.415 869.5,708.5C 870.404,707.791 870.737,706.791 870.5,705.5C 878.416,680.916 893.416,661.916 915.5,648.5C 916.492,648.672 917.158,648.338 917.5,647.5C 918.492,647.672 919.158,647.338 919.5,646.5C 920.492,646.672 921.158,646.338 921.5,645.5C 922.492,645.672 923.158,645.338 923.5,644.5C 924.492,644.672 925.158,644.338 925.5,643.5C 926.791,643.737 927.791,643.404 928.5,642.5C 929.791,642.737 930.791,642.404 931.5,641.5C 932.791,641.737 933.791,641.404 934.5,640.5C 935.791,640.737 936.791,640.404 937.5,639.5C 939.099,639.768 940.432,639.434 941.5,638.5C 943.415,638.784 945.081,638.451 946.5,637.5C 949.059,637.802 951.393,637.468 953.5,636.5 Z"/></g>
<g><path style="opacity:0.737" fill="#e14f57" d="M 384.5,642.5 C 378.158,642.334 371.825,642.5 365.5,643C 363.548,643.366 361.882,644.199 360.5,645.5C 360.511,643.983 361.177,642.816 362.5,642C 370.012,641.178 377.345,641.345 384.5,642.5 Z"/></g>
<g><path style="opacity:1" fill="#faf9f9" d="M 146.5,642.5 C 199.5,642.5 252.5,642.5 305.5,642.5C 305.5,662.5 305.5,682.5 305.5,702.5C 299.5,702.5 293.5,702.5 287.5,702.5C 287.5,701.833 287.167,701.5 286.5,701.5C 286.5,700.833 286.167,700.5 285.5,700.5C 285.737,699.209 285.404,698.209 284.5,697.5C 284.737,696.209 284.404,695.209 283.5,694.5C 282.405,689.216 280.739,684.216 278.5,679.5C 278.34,677.847 277.674,676.514 276.5,675.5C 274.281,671.62 270.948,669.287 266.5,668.5C 265.081,667.549 263.415,667.216 261.5,667.5C 259.369,666.686 257.036,666.186 254.5,666C 246.833,665.833 239.167,665.667 231.5,665.5C 223.47,665.502 215.803,666.169 208.5,667.5C 208.333,686.17 208.5,704.836 209,723.5C 209.383,724.056 209.883,724.389 210.5,724.5C 225.833,725.833 241.167,725.833 256.5,724.5C 256.833,724.5 257.167,724.5 257.5,724.5C 258.348,725.625 259.348,725.625 260.5,724.5C 261.531,725.249 262.698,725.915 264,726.5C 265.765,733.472 265.931,740.472 264.5,747.5C 263.733,748.172 263.066,749.005 262.5,750C 245.328,750.168 228.328,750.668 211.5,751.5C 210.5,751.5 209.5,751.5 208.5,751.5C 208.5,760.5 208.5,769.5 208.5,778.5C 208.5,785.5 208.5,792.5 208.5,799.5C 208.5,801.167 208.5,802.833 208.5,804.5C 210.167,804.5 211.833,804.5 213.5,804.5C 220.5,804.5 227.5,804.5 234.5,804.5C 234.5,812.167 234.5,819.833 234.5,827.5C 205.167,827.5 175.833,827.5 146.5,827.5C 146.5,819.833 146.5,812.167 146.5,804.5C 152.5,804.5 158.5,804.5 164.5,804.5C 165.833,804.5 167.167,804.5 168.5,804.5C 168.5,796.167 168.5,787.833 168.5,779.5C 168.5,741.5 168.5,703.5 168.5,665.5C 161.167,665.5 153.833,665.5 146.5,665.5C 146.5,657.833 146.5,650.167 146.5,642.5 Z"/></g>
<g><path style="opacity:1" fill="#faf9f9" d="M 384.5,642.5 C 389.167,642.5 393.833,642.5 398.5,642.5C 398.263,643.791 398.596,644.791 399.5,645.5C 399.328,646.492 399.662,647.158 400.5,647.5C 400.796,649.403 401.463,651.07 402.5,652.5C 402.796,654.403 403.463,656.07 404.5,657.5C 404.796,659.403 405.463,661.07 406.5,662.5C 407.796,666.739 409.462,670.739 411.5,674.5C 411.796,676.403 412.463,678.07 413.5,679.5C 413.796,681.403 414.463,683.07 415.5,684.5C 415.796,686.403 416.463,688.07 417.5,689.5C 417.328,690.492 417.662,691.158 418.5,691.5C 418.263,692.791 418.596,693.791 419.5,694.5C 419.328,695.492 419.662,696.158 420.5,696.5C 420.796,698.403 421.463,700.07 422.5,701.5C 422.796,703.403 423.463,705.07 424.5,706.5C 424.796,708.403 425.463,710.07 426.5,711.5C 426.328,712.492 426.662,713.158 427.5,713.5C 427.263,714.791 427.596,715.791 428.5,716.5C 428.328,717.492 428.662,718.158 429.5,718.5C 429.263,719.791 429.596,720.791 430.5,721.5C 430.328,722.492 430.662,723.158 431.5,723.5C 431.796,725.403 432.463,727.07 433.5,728.5C 433.796,730.403 434.463,732.07 435.5,733.5C 435.796,735.403 436.463,737.07 437.5,738.5C 437.328,739.492 437.662,740.158 438.5,740.5C 438.263,741.791 438.596,742.791 439.5,743.5C 439.328,744.492 439.662,745.158 440.5,745.5C 440.796,747.403 441.463,749.07 442.5,750.5C 442.796,752.403 443.463,754.07 444.5,755.5C 444.796,757.403 445.463,759.07 446.5,760.5C 446.796,762.403 447.463,764.07 448.5,765.5C 448.796,767.403 449.463,769.07 450.5,770.5C 450.328,771.492 450.662,772.158 451.5,772.5C 451.796,774.403 452.463,776.07 453.5,777.5C 453.796,779.403 454.463,781.07 455.5,782.5C 455.796,784.403 456.463,786.07 457.5,787.5C 457.796,789.403 458.463,791.07 459.5,792.5C 460.631,795.889 461.964,799.222 463.5,802.5C 474.351,803.199 485.184,803.866 496,804.5C 496.902,804.257 497.735,803.923 498.5,803.5C 499.5,758.239 499.833,712.239 499.5,665.5C 492.167,665.5 484.833,665.5 477.5,665.5C 478.833,657.833 478.833,650.167 477.5,642.5C 513.5,642.5 549.5,642.5 585.5,642.5C 589.97,643.486 594.637,643.819 599.5,643.5C 601.607,644.468 603.941,644.802 606.5,644.5C 614.251,646.705 621.584,650.038 628.5,654.5C 628.5,655.167 628.833,655.5 629.5,655.5C 631.5,658.167 633.833,660.5 636.5,662.5C 636.5,663.167 636.833,663.5 637.5,663.5C 637.5,664.167 637.833,664.5 638.5,664.5C 638.328,665.492 638.662,666.158 639.5,666.5C 645.796,679.618 647.129,693.284 643.5,707.5C 642.662,707.842 642.328,708.508 642.5,709.5C 641.662,709.842 641.328,710.508 641.5,711.5C 640.662,711.842 640.328,712.508 640.5,713.5C 639.662,713.842 639.328,714.508 639.5,715.5C 638.662,715.842 638.328,716.508 638.5,717.5C 637.833,717.5 637.5,717.833 637.5,718.5C 636.833,718.5 636.5,718.833 636.5,719.5C 628.672,729.631 618.338,735.631 605.5,737.5C 601.711,737.737 601.711,738.404 605.5,739.5C 605.833,739.5 606.167,739.5 606.5,739.5C 610.178,740.957 613.845,742.623 617.5,744.5C 619.808,746.471 622.142,748.471 624.5,750.5C 625.08,752.749 626.413,754.415 628.5,755.5C 628.328,756.492 628.662,757.158 629.5,757.5C 629.328,758.492 629.662,759.158 630.5,759.5C 630.263,760.791 630.596,761.791 631.5,762.5C 631.263,763.791 631.596,764.791 632.5,765.5C 632.232,767.099 632.566,768.432 633.5,769.5C 634.215,778.802 635.881,787.802 638.5,796.5C 638.263,797.791 638.596,798.791 639.5,799.5C 639.328,800.492 639.662,801.158 640.5,801.5C 640.833,802.5 641.5,803.167 642.5,803.5C 642.5,804.167 642.833,804.5 643.5,804.5C 644.209,805.404 645.209,805.737 646.5,805.5C 649.625,806.479 652.958,806.813 656.5,806.5C 656.5,807.167 656.833,807.5 657.5,807.5C 657.5,808.167 657.833,808.5 658.5,808.5C 658.5,809.167 658.833,809.5 659.5,809.5C 659.468,815.189 659.134,820.855 658.5,826.5C 657.711,826.783 657.044,827.283 656.5,828C 645.833,828.667 635.167,828.667 624.5,828C 617.74,827.141 611.74,824.641 606.5,820.5C 606.5,819.833 606.167,819.5 605.5,819.5C 605.5,818.833 605.167,818.5 604.5,818.5C 604.068,817.29 603.401,816.29 602.5,815.5C 602.068,814.29 601.401,813.29 600.5,812.5C 600.204,810.597 599.537,808.93 598.5,807.5C 596.674,797.011 594.674,786.677 592.5,776.5C 592.768,774.901 592.434,773.568 591.5,772.5C 591.768,770.901 591.434,769.568 590.5,768.5C 590.672,767.508 590.338,766.842 589.5,766.5C 589.737,765.209 589.404,764.209 588.5,763.5C 588.5,762.833 588.167,762.5 587.5,762.5C 587.672,761.508 587.338,760.842 586.5,760.5C 583.751,755.286 579.418,752.286 573.5,751.5C 572.432,750.566 571.099,750.232 569.5,750.5C 564.056,749.116 558.389,748.45 552.5,748.5C 548.5,748.5 544.5,748.5 540.5,748.5C 539.833,748.5 539.5,748.833 539.5,749.5C 539.5,765.833 539.5,782.167 539.5,798.5C 539.5,800.5 539.5,802.5 539.5,804.5C 541.167,804.5 542.833,804.5 544.5,804.5C 551.2,804.17 557.866,804.503 564.5,805.5C 564.252,812.743 564.586,820.077 565.5,827.5C 509.833,827.5 454.167,827.5 398.5,827.5C 398.5,823.5 398.5,819.5 398.5,815.5C 399.482,812.038 399.815,808.371 399.5,804.5C 405.176,804.666 410.843,804.499 416.5,804C 417.516,803.481 418.182,802.647 418.5,801.5C 415.532,792.253 412.199,783.253 408.5,774.5C 408.5,773.5 408.5,772.5 408.5,771.5C 385.831,771.333 363.164,771.5 340.5,772C 339.027,772.71 338.36,773.876 338.5,775.5C 337.662,775.842 337.328,776.508 337.5,777.5C 336.596,778.209 336.263,779.209 336.5,780.5C 335.596,781.209 335.263,782.209 335.5,783.5C 334.596,784.209 334.263,785.209 334.5,786.5C 333.662,786.842 333.328,787.508 333.5,788.5C 332.596,789.209 332.263,790.209 332.5,791.5C 331.596,792.209 331.263,793.209 331.5,794.5C 330.596,795.209 330.263,796.209 330.5,797.5C 329.262,799.214 328.595,801.214 328.5,803.5C 334.979,804.491 341.646,804.824 348.5,804.5C 348.179,809.695 348.513,814.695 349.5,819.5C 349.5,822.167 349.5,824.833 349.5,827.5C 326.167,827.5 302.833,827.5 279.5,827.5C 279.5,819.833 279.5,812.167 279.5,804.5C 284.695,804.821 289.695,804.487 294.5,803.5C 296.017,803.489 297.184,802.823 298,801.5C 299.799,797.93 301.299,794.263 302.5,790.5C 303.338,790.158 303.672,789.492 303.5,788.5C 304.404,787.791 304.737,786.791 304.5,785.5C 305.338,785.158 305.672,784.492 305.5,783.5C 306.338,783.158 306.672,782.492 306.5,781.5C 307.404,780.791 307.737,779.791 307.5,778.5C 308.338,778.158 308.672,777.492 308.5,776.5C 309.404,775.791 309.737,774.791 309.5,773.5C 310.338,773.158 310.672,772.492 310.5,771.5C 311.404,770.791 311.737,769.791 311.5,768.5C 312.338,768.158 312.672,767.492 312.5,766.5C 313.404,765.791 313.737,764.791 313.5,763.5C 314.338,763.158 314.672,762.492 314.5,761.5C 315.404,760.791 315.737,759.791 315.5,758.5C 316.338,758.158 316.672,757.492 316.5,756.5C 317.404,755.791 317.737,754.791 317.5,753.5C 318.338,753.158 318.672,752.492 318.5,751.5C 319.404,750.791 319.737,749.791 319.5,748.5C 320.338,748.158 320.672,747.492 320.5,746.5C 321.404,745.791 321.737,744.791 321.5,743.5C 322.338,743.158 322.672,742.492 322.5,741.5C 323.404,740.791 323.737,739.791 323.5,738.5C 324.338,738.158 324.672,737.492 324.5,736.5C 325.404,735.791 325.737,734.791 325.5,733.5C 326.338,733.158 326.672,732.492 326.5,731.5C 327.404,730.791 327.737,729.791 327.5,728.5C 328.338,728.158 328.672,727.492 328.5,726.5C 329.404,725.791 329.737,724.791 329.5,723.5C 330.404,722.791 330.737,721.791 330.5,720.5C 331.338,720.158 331.672,719.492 331.5,718.5C 332.404,717.791 332.737,716.791 332.5,715.5C 333.338,715.158 333.672,714.492 333.5,713.5C 334.404,712.791 334.737,711.791 334.5,710.5C 335.338,710.158 335.672,709.492 335.5,708.5C 336.404,707.791 336.737,706.791 336.5,705.5C 337.338,705.158 337.672,704.492 337.5,703.5C 338.404,702.791 338.737,701.791 338.5,700.5C 339.338,700.158 339.672,699.492 339.5,698.5C 340.404,697.791 340.737,696.791 340.5,695.5C 341.338,695.158 341.672,694.492 341.5,693.5C 342.404,692.791 342.737,691.791 342.5,690.5C 343.338,690.158 343.672,689.492 343.5,688.5C 344.404,687.791 344.737,686.791 344.5,685.5C 345.338,685.158 345.672,684.492 345.5,683.5C 346.404,682.791 346.737,681.791 346.5,680.5C 347.338,680.158 347.672,679.492 347.5,678.5C 348.404,677.791 348.737,676.791 348.5,675.5C 349.338,675.158 349.672,674.492 349.5,673.5C 350.404,672.791 350.737,671.791 350.5,670.5C 351.338,670.158 351.672,669.492 351.5,668.5C 352.404,667.791 352.737,666.791 352.5,665.5C 353.338,665.158 353.672,664.492 353.5,663.5C 354.404,662.791 354.737,661.791 354.5,660.5C 355.338,660.158 355.672,659.492 355.5,658.5C 356.404,657.791 356.737,656.791 356.5,655.5C 357.537,654.07 358.204,652.403 358.5,650.5C 359.537,649.07 360.204,647.403 360.5,645.5C 361.882,644.199 363.548,643.366 365.5,643C 371.825,642.5 378.158,642.334 384.5,642.5 Z M 572.5,666.5 C 577.039,666.322 581.539,666.655 586,667.5C 588.546,667.859 590.713,668.859 592.5,670.5C 585.773,668.812 579.106,667.478 572.5,666.5 Z M 590.5,720.5 C 585.199,722.883 579.532,724.217 573.5,724.5C 572.737,723.732 571.737,723.232 570.5,723C 577.236,722.615 583.902,721.782 590.5,720.5 Z M 539.5,798.5 C 540.167,800.167 540.833,801.833 541.5,803.5C 542.791,803.263 543.791,803.596 544.5,804.5C 542.833,804.5 541.167,804.5 539.5,804.5C 539.5,802.5 539.5,800.5 539.5,798.5 Z"/></g>
<g><path style="opacity:1" fill="#d41d2c" d="M 973.5,661.5 C 974.919,662.451 976.585,662.784 978.5,662.5C 979.209,663.404 980.209,663.737 981.5,663.5C 982.209,664.404 983.209,664.737 984.5,664.5C 984.842,665.338 985.508,665.672 986.5,665.5C 986.833,666.833 987.167,666.833 987.5,665.5C 987.833,665.5 988.167,665.5 988.5,665.5C 988.5,665.833 988.5,666.167 988.5,666.5C 988.5,667.167 988.833,667.5 989.5,667.5C 992.193,668.847 994.86,670.18 997.5,671.5C 1003.21,677.402 1008.05,684.068 1012,691.5C 1015.63,701.008 1018.13,710.675 1019.5,720.5C 1019.19,723.713 1019.52,726.713 1020.5,729.5C 1020.35,735.845 1020.01,742.178 1019.5,748.5C 1018.53,750.948 1018.19,753.615 1018.5,756.5C 1017.54,758.265 1017.21,760.265 1017.5,762.5C 1016.57,763.568 1016.23,764.901 1016.5,766.5C 1013.74,777.359 1008.41,786.692 1000.5,794.5C 999.833,794.5 999.5,794.833 999.5,795.5C 998.833,795.5 998.5,795.833 998.5,796.5C 997.833,796.5 997.5,796.833 997.5,797.5C 996.29,797.932 995.29,798.599 994.5,799.5C 993.508,799.328 992.842,799.662 992.5,800.5C 991.833,800.5 991.5,800.833 991.5,801.5C 990.508,801.328 989.842,801.662 989.5,802.5C 988.508,802.328 987.842,802.662 987.5,803.5C 986.209,803.263 985.209,803.596 984.5,804.5C 983.209,804.263 982.209,804.596 981.5,805.5C 979.901,805.232 978.568,805.566 977.5,806.5C 975.585,806.216 973.919,806.549 972.5,807.5C 970.901,807.232 969.568,807.566 968.5,808.5C 966.167,808.5 963.833,808.5 961.5,808.5C 960.432,807.566 959.099,807.232 957.5,807.5C 956.081,806.549 954.415,806.216 952.5,806.5C 951.432,805.566 950.099,805.232 948.5,805.5C 947.791,804.596 946.791,804.263 945.5,804.5C 945.158,803.662 944.492,803.328 943.5,803.5C 942.791,802.596 941.791,802.263 940.5,802.5C 940.158,801.662 939.492,801.328 938.5,801.5C 938.5,800.833 938.167,800.5 937.5,800.5C 937.158,799.662 936.492,799.328 935.5,799.5C 934.5,798.833 933.5,798.167 932.5,797.5C 931.5,794.5 929.5,792.5 926.5,791.5C 917.519,778.881 912.519,764.881 911.5,749.5C 910.342,741.148 910.342,732.815 911.5,724.5C 912.482,721.038 912.815,717.371 912.5,713.5C 914.158,700.832 918.658,689.165 926,678.5C 929.435,674.555 933.268,671.222 937.5,668.5C 938.492,668.672 939.158,668.338 939.5,667.5C 940.167,667.5 940.5,667.167 940.5,666.5C 941.791,666.737 942.791,666.404 943.5,665.5C 944.492,665.672 945.158,665.338 945.5,664.5C 946.791,664.737 947.791,664.404 948.5,663.5C 949.791,663.737 950.791,663.404 951.5,662.5C 958.788,660.671 966.121,660.337 973.5,661.5 Z"/></g>
<g><path style="opacity:1" fill="#d4202e" d="M 541.5,665.5 C 551.885,665.214 562.218,665.548 572.5,666.5C 579.106,667.478 585.773,668.812 592.5,670.5C 597.875,672.83 601.708,676.83 604,682.5C 606.157,689.085 606.657,695.752 605.5,702.5C 603.398,710.934 598.398,716.934 590.5,720.5C 583.902,721.782 577.236,722.615 570.5,723C 571.737,723.232 572.737,723.732 573.5,724.5C 572.5,724.5 571.5,724.5 570.5,724.5C 560.946,723.587 551.28,723.587 541.5,724.5C 540.883,724.389 540.383,724.056 540,723.5C 539.5,704.503 539.333,685.503 539.5,666.5C 540.492,666.672 541.158,666.338 541.5,665.5 Z"/></g>
<g><path style="opacity:0.831" fill="#efa4aa" d="M 988.5,666.5 C 988.5,666.167 988.5,665.833 988.5,665.5C 992.049,666.723 995.049,668.723 997.5,671.5C 994.86,670.18 992.193,668.847 989.5,667.5C 988.833,667.5 988.5,667.167 988.5,666.5 Z"/></g>
<g><path style="opacity:0.937" fill="#e3535c" d="M 208.5,667.5 C 209.332,685.662 209.832,703.995 210,722.5C 210.383,723.056 210.883,723.389 211.5,723.5C 211.5,724.167 211.167,724.5 210.5,724.5C 209.883,724.389 209.383,724.056 209,723.5C 208.5,704.836 208.333,686.17 208.5,667.5 Z"/></g>
<g><path style="opacity:0.69" fill="#ec8c92" d="M 797.5,669.5 C 800.855,670.855 803.189,673.189 804.5,676.5C 801.758,674.425 799.424,672.091 797.5,669.5 Z"/></g>
<g><path style="opacity:1" fill="#d41e2d" d="M 374.5,683.5 C 375.85,686.572 377.183,689.572 378.5,692.5C 378.796,694.403 379.463,696.07 380.5,697.5C 380.263,698.791 380.596,699.791 381.5,700.5C 381.263,701.791 381.596,702.791 382.5,703.5C 382.328,704.492 382.662,705.158 383.5,705.5C 383.263,706.791 383.596,707.791 384.5,708.5C 384.263,709.791 384.596,710.791 385.5,711.5C 385.328,712.492 385.662,713.158 386.5,713.5C 386.263,714.791 386.596,715.791 387.5,716.5C 387.263,717.791 387.596,718.791 388.5,719.5C 388.263,720.791 388.596,721.791 389.5,722.5C 389.328,723.492 389.662,724.158 390.5,724.5C 390.263,725.791 390.596,726.791 391.5,727.5C 391.263,728.791 391.596,729.791 392.5,730.5C 392.263,731.791 392.596,732.791 393.5,733.5C 393.328,734.492 393.662,735.158 394.5,735.5C 394.263,736.791 394.596,737.791 395.5,738.5C 395.263,739.791 395.596,740.791 396.5,741.5C 396.263,742.791 396.596,743.791 397.5,744.5C 397.5,745.5 397.5,746.5 397.5,747.5C 381.578,748.484 365.578,748.817 349.5,748.5C 349.5,747.167 349.5,745.833 349.5,744.5C 350.404,743.791 350.737,742.791 350.5,741.5C 351.338,741.158 351.672,740.492 351.5,739.5C 352.404,738.791 352.737,737.791 352.5,736.5C 353.404,735.791 353.737,734.791 353.5,733.5C 354.404,732.791 354.737,731.791 354.5,730.5C 355.338,730.158 355.672,729.492 355.5,728.5C 356.404,727.791 356.737,726.791 356.5,725.5C 357.404,724.791 357.737,723.791 357.5,722.5C 358.537,721.07 359.204,719.403 359.5,717.5C 360.404,716.791 360.737,715.791 360.5,714.5C 361.871,712.064 362.871,709.397 363.5,706.5C 366.405,699.64 369.238,692.64 372,685.5C 372.417,684.244 373.25,683.577 374.5,683.5 Z"/></g>
<g><path style="opacity:0.831" fill="#eea1a7" d="M 719.5,693.5 C 719.065,696.157 718.065,698.491 716.5,700.5C 716.552,697.654 717.552,695.32 719.5,693.5 Z"/></g>
<g><path style="opacity:0.831" fill="#ed9ba1" d="M 211.5,723.5 C 226.507,723.572 241.507,723.905 256.5,724.5C 241.167,725.833 225.833,725.833 210.5,724.5C 211.167,724.5 211.5,724.167 211.5,723.5 Z"/></g>
<g><path style="opacity:0.831" fill="#eea1a8" d="M 570.5,724.5 C 560.833,725.833 551.167,725.833 541.5,724.5C 551.28,723.587 560.946,723.587 570.5,724.5 Z"/></g>
<g><path style="opacity:0.784" fill="#da353f" d="M 540.5,748.5 C 544.5,748.5 548.5,748.5 552.5,748.5C 549.038,749.482 545.371,749.815 541.5,749.5C 541.5,767.5 541.5,785.5 541.5,803.5C 540.833,801.833 540.167,800.167 539.5,798.5C 539.5,782.167 539.5,765.833 539.5,749.5C 540.167,749.5 540.5,749.167 540.5,748.5 Z"/></g>
<g><path style="opacity:0.69" fill="#ec8e95" d="M 624.5,750.5 C 626.587,751.585 627.92,753.251 628.5,755.5C 626.413,754.415 625.08,752.749 624.5,750.5 Z"/></g>
<g><path style="opacity:0.937" fill="#e25059" d="M 211.5,751.5 C 209.89,760.418 208.89,769.418 208.5,778.5C 208.5,769.5 208.5,760.5 208.5,751.5C 209.5,751.5 210.5,751.5 211.5,751.5 Z"/></g>
<g><path style="opacity:0.412" fill="#e15057" d="M 783.5,756.5 C 789.167,756.5 794.833,756.5 800.5,756.5C 801.807,771.834 801.807,787.168 800.5,802.5C 800.167,802.5 799.833,802.5 799.5,802.5C 799.5,787.5 799.5,772.5 799.5,757.5C 793.974,757.821 788.64,757.488 783.5,756.5 Z"/></g>
<g><path style="opacity:0.937" fill="#e76f75" d="M 926.5,791.5 C 929.5,792.5 931.5,794.5 932.5,797.5C 930.167,795.833 928.167,793.833 926.5,791.5 Z"/></g>
<g><path style="opacity:0.831" fill="#efa5ac" d="M 739.5,799.5 C 743.455,802.265 747.788,804.265 752.5,805.5C 752.265,806.097 751.765,806.43 751,806.5C 748.889,805.528 746.722,804.695 744.5,804C 741.885,803.388 740.219,801.888 739.5,799.5 Z"/></g>
<g><path style="opacity:0.937" fill="#ea767c" d="M 889.5,799.5 C 893.833,803.167 897.833,807.167 901.5,811.5C 896.5,808.5 892.5,804.5 889.5,799.5 Z"/></g>
<g><path style="opacity:0.737" fill="#e56168" d="M 1042.5,798.5 C 1039.83,803.167 1036.17,806.833 1031.5,809.5C 1034.83,805.5 1038.5,801.833 1042.5,798.5 Z"/></g>
<g><path style="opacity:0.69" fill="#ec9097" d="M 328.5,803.5 C 335.5,803.5 342.5,803.5 349.5,803.5C 349.5,808.833 349.5,814.167 349.5,819.5C 348.513,814.695 348.179,809.695 348.5,804.5C 341.646,804.824 334.979,804.491 328.5,803.5 Z"/></g>
<g><path style="opacity:0.831" fill="#eea0a6" d="M 398.5,804.5 C 398.833,804.5 399.167,804.5 399.5,804.5C 399.815,808.371 399.482,812.038 398.5,815.5C 397.616,812.062 397.616,808.395 398.5,804.5 Z"/></g>
<g><path style="opacity:0.831" fill="#ed9ba2" d="M 794.5,804.5 C 793.01,806.28 791.01,806.946 788.5,806.5C 790.214,805.262 792.214,804.595 794.5,804.5 Z"/></g>
<g><path style="opacity:0.412" fill="#df4850" d="M 761.5,806.5 C 767.5,806.5 773.5,806.5 779.5,806.5C 778.167,807.167 776.833,807.833 775.5,808.5C 771.516,809.743 767.516,809.743 763.5,808.5C 762.833,807.833 762.167,807.167 761.5,806.5 Z"/></g>
<g><path style="opacity:0.937" fill="#e45a61" d="M 659.5,809.5 C 660.651,814.65 660.817,819.984 660,825.5C 659.667,826.167 659.333,826.833 659,827.5C 658.601,827.272 658.435,826.938 658.5,826.5C 659.134,820.855 659.468,815.189 659.5,809.5 Z"/></g>
<g><path style="opacity:0.994" fill="#fccc43" d="M 260.5,1182.5 C 486.5,1182.5 712.5,1182.5 938.5,1182.5C 1019.5,1182.5 1100.5,1182.5 1181.5,1182.5C 1181.5,1213.5 1181.5,1244.5 1181.5,1275.5C 793.5,1275.5 405.5,1275.5 17.5,1275.5C 17.5,1244.5 17.5,1213.5 17.5,1182.5C 98.5,1182.5 179.5,1182.5 260.5,1182.5 Z"/></g>
</svg>
