<?xml version="1.0" encoding="UTF-8"?>
<!DOCTYPE svg PUBLIC "-//W3C//DTD SVG 1.1//EN" "http://www.w3.org/Graphics/SVG/1.1/DTD/svg11.dtd">
<svg xmlns="http://www.w3.org/2000/svg" version="1.1" width="964px" height="324px" style="shape-rendering:geometricPrecision; text-rendering:geometricPrecision; image-rendering:optimizeQuality; fill-rule:evenodd; clip-rule:evenodd" xmlns:xlink="http://www.w3.org/1999/xlink">
<g><path style="opacity:1" fill="#fefefe" d="M -0.5,-0.5 C 320.833,-0.5 642.167,-0.5 963.5,-0.5C 963.5,107.5 963.5,215.5 963.5,323.5C 642.167,323.5 320.833,323.5 -0.5,323.5C -0.5,215.5 -0.5,107.5 -0.5,-0.5 Z"/></g>
<g><path style="opacity:1" fill="#da1f26" d="M 41.5,62.5 C 80.4515,63.1853 100.951,82.852 103,121.5C 103.333,152.167 103.667,182.833 104,213.5C 104.195,219.97 106.362,225.637 110.5,230.5C 102.31,240.729 91.6429,244.562 78.5,242C 61.7964,238.299 50.2964,228.466 44,212.5C 42.32,207.423 40.82,202.423 39.5,197.5C 38.5421,152.513 38.2088,107.513 38.5,62.5C 39.5,62.5 40.5,62.5 41.5,62.5 Z"/></g>
<g><path style="opacity:1" fill="#da1f26" d="M 125.5,248.5 C 119.854,249.027 114.187,249.36 108.5,249.5C 104.107,249.491 100.107,248.824 96.5,247.5C 112.731,242.082 121.564,230.749 123,213.5C 123.109,194.47 123.776,175.47 125,156.5C 128.576,137.587 139.409,124.754 157.5,118C 166.993,115.002 176.66,112.835 186.5,111.5C 187.667,138.16 187.833,164.827 187,191.5C 179.564,224.432 159.064,243.432 125.5,248.5 Z"/></g>
<g><path style="opacity:1" fill="#efdbe0" d="M 41.5,62.5 C 40.5,62.5 39.5,62.5 38.5,62.5C 38.2088,107.513 38.5421,152.513 39.5,197.5C 38.7515,196.469 38.0848,195.302 37.5,194C 37.52,149.957 37.52,105.79 37.5,61.5C 39.099,61.2322 40.4324,61.5655 41.5,62.5 Z"/></g>
<g><path style="opacity:1" fill="#3343a1" d="M 256.5,139.5 C 264.5,139.5 272.5,139.5 280.5,139.5C 280.333,158.836 280.5,178.17 281,197.5C 282.835,205.838 288.002,209.838 296.5,209.5C 305.499,210.255 310.999,206.255 313,197.5C 313.5,178.17 313.667,158.836 313.5,139.5C 321.5,139.5 329.5,139.5 337.5,139.5C 337.667,159.503 337.5,179.503 337,199.5C 332.617,221.358 319.117,232.024 296.5,231.5C 272.455,231.92 259.288,220.253 257,196.5C 256.5,177.503 256.333,158.503 256.5,139.5 Z"/></g>
<g><path style="opacity:1" fill="#3746a3" d="M 430.5,139.5 C 438.167,139.5 445.833,139.5 453.5,139.5C 453.5,144.5 453.5,149.5 453.5,154.5C 445.833,154.5 438.167,154.5 430.5,154.5C 430.5,149.5 430.5,144.5 430.5,139.5 Z"/></g>
<g><path style="opacity:1" fill="#3242a0" d="M 862.5,140.5 C 862.167,159.512 862.5,178.512 863.5,197.5C 864.107,197.376 864.44,197.043 864.5,196.5C 874.994,185.839 885.328,175.005 895.5,164C 900.5,163.333 905.5,163.333 910.5,164C 901.124,173.042 892.124,182.375 883.5,192C 892.435,204.606 901.768,216.939 911.5,229C 906.833,229.667 902.167,229.667 897.5,229C 889.975,219.48 882.475,209.98 875,200.5C 871.34,204.327 867.506,207.993 863.5,211.5C 862.504,217.463 862.171,223.463 862.5,229.5C 858.833,229.5 855.167,229.5 851.5,229.5C 851.5,199.5 851.5,169.5 851.5,139.5C 855.371,139.185 859.038,139.518 862.5,140.5 Z"/></g>
<g><path style="opacity:1" fill="#a3aad3" d="M 862.5,140.5 C 863.167,159.167 863.833,177.833 864.5,196.5C 864.44,197.043 864.107,197.376 863.5,197.5C 862.5,178.512 862.167,159.512 862.5,140.5 Z"/></g>
<g><path style="opacity:1" fill="#3343a1" d="M 389.5,161.5 C 404.325,159.846 413.492,166.18 417,180.5C 417.5,196.83 417.667,213.163 417.5,229.5C 409.833,229.5 402.167,229.5 394.5,229.5C 394.667,216.163 394.5,202.829 394,189.5C 391.27,182.947 386.437,180.78 379.5,183C 377.622,184.543 376.122,186.376 375,188.5C 374.5,202.163 374.333,215.829 374.5,229.5C 366.833,229.5 359.167,229.5 351.5,229.5C 351.5,207.5 351.5,185.5 351.5,163.5C 359.167,163.5 366.833,163.5 374.5,163.5C 373.189,171.799 374.856,172.966 379.5,167C 382.767,164.871 386.101,163.038 389.5,161.5 Z"/></g>
<g><path style="opacity:1" fill="#3242a0" d="M 493.5,161.5 C 514.239,159.768 528.405,168.435 536,187.5C 538.603,214.399 526.436,229.065 499.5,231.5C 477.739,229.738 465.406,218.072 462.5,196.5C 464.751,177.587 475.084,165.92 493.5,161.5 Z"/></g>
<g><path style="opacity:1" fill="#3142a0" d="M 584.5,161.5 C 595.857,160.44 604.357,164.773 610,174.5C 611.447,192.778 611.947,211.111 611.5,229.5C 603.833,229.5 596.167,229.5 588.5,229.5C 588.667,215.829 588.5,202.163 588,188.5C 584.344,182.334 579.178,180.834 572.5,184C 570.959,185.579 569.792,187.413 569,189.5C 568.5,202.829 568.333,216.163 568.5,229.5C 560.833,229.5 553.167,229.5 545.5,229.5C 545.5,207.5 545.5,185.5 545.5,163.5C 553.167,163.5 560.833,163.5 568.5,163.5C 568.187,166.247 568.52,168.914 569.5,171.5C 573.785,166.874 578.785,163.541 584.5,161.5 Z"/></g>
<g><path style="opacity:1" fill="#3041a0" d="M 430.5,163.5 C 438.167,163.5 445.833,163.5 453.5,163.5C 453.5,185.5 453.5,207.5 453.5,229.5C 445.833,229.5 438.167,229.5 430.5,229.5C 430.5,207.5 430.5,185.5 430.5,163.5 Z"/></g>
<g><path style="opacity:1" fill="#3544a1" d="M 807.5,161.5 C 820.317,160.161 830.15,164.827 837,175.5C 837.511,177.878 838.178,180.212 839,182.5C 839.5,198.163 839.667,213.83 839.5,229.5C 835.5,229.5 831.5,229.5 827.5,229.5C 827.667,214.496 827.5,199.496 827,184.5C 822.927,174.212 815.427,170.379 804.5,173C 797.464,175.369 793.297,180.202 792,187.5C 791.5,201.496 791.333,215.496 791.5,229.5C 787.833,229.5 784.167,229.5 780.5,229.5C 780.5,207.5 780.5,185.5 780.5,163.5C 784.167,163.5 787.833,163.5 791.5,163.5C 791.192,165.924 791.526,168.257 792.5,170.5C 796.812,166.185 801.812,163.185 807.5,161.5 Z"/></g>
<g><path style="opacity:1" fill="#9399c9" d="M 931.5,163.5 C 927.468,163.186 924.135,164.519 921.5,167.5C 923.545,162.832 926.878,161.499 931.5,163.5 Z"/></g>
<g><path style="opacity:1" fill="#e1e1ee" d="M 931.5,163.5 C 935.404,164.607 937.404,167.273 937.5,171.5C 936.146,179.86 931.48,182.36 923.5,179C 919.498,175.541 918.831,171.708 921.5,167.5C 924.135,164.519 927.468,163.186 931.5,163.5 Z"/></g>
<g><path style="opacity:1" fill="#3343a0" d="M 728.5,162.5 C 738.133,161.661 747.467,162.828 756.5,166C 761.994,169.825 765.494,174.992 767,181.5C 767.5,197.497 767.667,213.497 767.5,229.5C 763.833,229.5 760.167,229.5 756.5,229.5C 756.808,227.076 756.474,224.743 755.5,222.5C 744.43,232.178 732.097,234.011 718.5,228C 708.593,221.149 705.759,211.983 710,200.5C 716.652,191.104 725.819,186.771 737.5,187.5C 743.838,188.169 750.171,188.836 756.5,189.5C 756.58,181.075 752.58,175.575 744.5,173C 735.133,171.644 726.3,173.144 718,177.5C 715.976,174.432 714.976,171.098 715,167.5C 719.416,165.309 723.916,163.642 728.5,162.5 Z"/></g>
<g><path style="opacity:1" fill="#4955a8" d="M 925.5,166.5 C 928.044,166.104 930.211,166.771 932,168.5C 931.681,170.743 931.848,172.91 932.5,175C 930.609,175.309 929.275,174.475 928.5,172.5C 927.201,173.09 926.368,174.09 926,175.5C 925.502,172.518 925.335,169.518 925.5,166.5 Z"/></g>
<g><path style="opacity:1" fill="#e2e1ed" d="M 926.5,168.5 C 933.167,169.5 933.167,170.5 926.5,171.5C 926.5,170.5 926.5,169.5 926.5,168.5 Z"/></g>
<g><path style="opacity:1" fill="#3645a1" d="M 628.5,139.5 C 642.837,139.333 657.171,139.5 671.5,140C 693.444,143.07 700.611,154.904 693,175.5C 690.651,178.017 688.151,180.35 685.5,182.5C 689.787,185.613 693.953,188.946 698,192.5C 705.046,209.701 699.879,221.535 682.5,228C 664.214,229.433 645.88,229.933 627.5,229.5C 627.175,199.426 627.508,169.426 628.5,139.5 Z"/></g>
<g><path style="opacity:1" fill="#fdfdfe" d="M 671.5,151.5 C 684.032,153.897 687.532,160.897 682,172.5C 679.293,175.936 675.793,177.936 671.5,178.5C 661.167,178.5 650.833,178.5 640.5,178.5C 640.5,169.5 640.5,160.5 640.5,151.5C 650.833,151.5 661.167,151.5 671.5,151.5 Z"/></g>
<g><path style="opacity:1" fill="#c2c3df" d="M 671.5,151.5 C 661.167,151.5 650.833,151.5 640.5,151.5C 640.5,160.5 640.5,169.5 640.5,178.5C 650.833,178.5 661.167,178.5 671.5,178.5C 661.013,179.494 650.346,179.828 639.5,179.5C 639.5,169.833 639.5,160.167 639.5,150.5C 650.346,150.172 661.013,150.506 671.5,151.5 Z"/></g>
<g><path style="opacity:1" fill="#fafafc" d="M 494.5,181.5 C 508.974,180.473 515.474,187.14 514,201.5C 510.347,210.41 503.847,213.576 494.5,211C 485.641,205.692 483.141,198.192 487,188.5C 489.015,185.588 491.515,183.255 494.5,181.5 Z"/></g>
<g><path style="opacity:1" fill="#f8f8fb" d="M 639.5,189.5 C 650.505,189.333 661.505,189.5 672.5,190C 687.293,191.413 692.126,198.913 687,212.5C 684.125,215.463 680.625,217.296 676.5,218C 664.209,219.343 651.876,219.843 639.5,219.5C 639.5,209.5 639.5,199.5 639.5,189.5 Z"/></g>
<g><path style="opacity:1" fill="#f9f9fb" d="M 729.5,197.5 C 738.617,197.072 747.617,197.738 756.5,199.5C 756.994,214.174 749.828,221.507 735,221.5C 723.205,221.391 718.538,215.725 721,204.5C 723.416,201.577 726.25,199.243 729.5,197.5 Z"/></g>
<g><path style="opacity:1" fill="#e1d0dc" d="M 96.5,247.5 C 100.107,248.824 104.107,249.491 108.5,249.5C 114.187,249.36 119.854,249.027 125.5,248.5C 124.391,249.29 123.058,249.79 121.5,250C 112.833,250.667 104.167,250.667 95.5,250C 93.2584,248.993 93.5918,248.159 96.5,247.5 Z"/></g>
</svg>
