<?xml version="1.0" encoding="UTF-8"?>
<!DOCTYPE svg PUBLIC "-//W3C//DTD SVG 1.1//EN" "http://www.w3.org/Graphics/SVG/1.1/DTD/svg11.dtd">
<svg xmlns="http://www.w3.org/2000/svg" version="1.1" width="513px" height="177px" style="shape-rendering:geometricPrecision; text-rendering:geometricPrecision; image-rendering:optimizeQuality; fill-rule:evenodd; clip-rule:evenodd" xmlns:xlink="http://www.w3.org/1999/xlink">
<g><path style="opacity:1" fill="#fdfdfd" d="M -0.5,-0.5 C 170.5,-0.5 341.5,-0.5 512.5,-0.5C 512.5,58.5 512.5,117.5 512.5,176.5C 341.5,176.5 170.5,176.5 -0.5,176.5C -0.5,117.5 -0.5,58.5 -0.5,-0.5 Z"/></g>
<g><path style="opacity:1" fill="#767474" d="M 235.5,27.5 C 215.326,27.1695 195.326,27.5029 175.5,28.5C 174.957,28.44 174.624,28.1067 174.5,27.5C 194.996,26.172 215.329,26.172 235.5,27.5 Z"/></g>
<g><path style="opacity:1" fill="#757473" d="M 356.5,27.5 C 335.327,27.1694 314.327,27.5027 293.5,28.5C 292.957,28.44 292.624,28.1067 292.5,27.5C 313.996,26.1717 335.33,26.1717 356.5,27.5 Z"/></g>
<g><path style="opacity:1" fill="#242020" d="M 293.5,28.5 C 314.327,27.5027 335.327,27.1694 356.5,27.5C 380.347,28.2452 390.18,40.2452 386,63.5C 381.896,72.8136 375.063,79.3136 365.5,83C 370.349,85.5903 375.349,87.9236 380.5,90C 397.049,103.257 399.883,119.09 389,137.5C 383.175,143.662 376.009,146.995 367.5,147.5C 342.328,147.831 317.328,147.498 292.5,146.5C 297.302,145.524 299.802,142.524 300,137.5C 300.667,103.167 300.667,68.8333 300,34.5C 299.246,30.9106 297.079,28.9106 293.5,28.5 Z"/></g>
<g><path style="opacity:1" fill="#fbfbfb" d="M 326.5,31.5 C 335.347,30.8739 344.014,31.7072 352.5,34C 357.731,36.2315 361.231,40.0648 363,45.5C 365.73,54.9896 364.73,63.9896 360,72.5C 352.503,79.259 343.67,83.0924 333.5,84C 366.588,86.3848 378.088,103.218 368,134.5C 365.313,138.194 361.813,140.694 357.5,142C 347.212,143.505 336.878,143.838 326.5,143C 325.667,142.167 324.833,141.333 324,140.5C 323.556,104.078 324.39,67.7447 326.5,31.5 Z"/></g>
<g><path style="opacity:1" fill="#949494" d="M 479.5,27.5 C 480.819,34.6769 480.819,42.0102 479.5,49.5C 478.893,49.3764 478.56,49.0431 478.5,48.5C 479.491,41.6866 479.825,34.6866 479.5,27.5 Z"/></g>
<g><path style="opacity:1" fill="#e03c3f" d="M 37.5,26.5 C 37.423,30.2148 37.7564,33.8815 38.5,37.5C 35.6167,38.3105 32.7834,38.3105 30,37.5C 23.0537,38.853 20.887,42.5197 23.5,48.5C 22.6518,50.4086 22.3184,52.4086 22.5,54.5C 17.5305,46.238 19.5305,40.0713 28.5,36C 31.5399,35.6799 34.5399,35.6799 37.5,36C 36.1816,32.7312 36.1816,29.5645 37.5,26.5 Z"/></g>
<g><path style="opacity:1" fill="#242120" d="M 175.5,28.5 C 195.326,27.5029 215.326,27.1695 235.5,27.5C 265.162,30.3292 282.995,46.3292 289,75.5C 292.262,97.5696 286.595,116.903 272,133.5C 263.774,141.529 253.941,146.196 242.5,147.5C 219.994,147.831 197.66,147.497 175.5,146.5C 179.892,145.608 182.392,142.942 183,138.5C 183.667,103.833 183.667,69.1667 183,34.5C 181.338,31.4231 178.838,29.4231 175.5,28.5 Z"/></g>
<g><path style="opacity:1" fill="#fcfcfc" d="M 207.5,31.5 C 235.897,27.9282 254.397,39.5948 263,66.5C 269.279,88.026 267.279,108.693 257,128.5C 252.563,134.803 246.729,139.303 239.5,142C 228.798,143.845 218.131,143.845 207.5,142C 206.874,141.25 206.374,140.416 206,139.5C 205.333,104.5 205.333,69.5 206,34.5C 206.513,33.4734 207.013,32.4734 207.5,31.5 Z"/></g>
<g><path style="opacity:1" fill="#252222" d="M 479.5,27.5 C 479.825,34.6866 479.491,41.6866 478.5,48.5C 472.786,35.6343 462.786,29.9676 448.5,31.5C 428.371,31.7913 420.205,41.7913 424,61.5C 427.064,66.7892 431.564,70.2892 437.5,72C 448.255,74.7894 458.922,77.7894 469.5,81C 487.368,92.6286 492.201,108.462 484,128.5C 476.08,141.055 464.58,147.888 449.5,149C 434.676,150.559 420.176,149.059 406,144.5C 404.188,144.493 402.688,145.16 401.5,146.5C 400.335,138.855 400.169,131.188 401,123.5C 404.429,133.988 411.595,140.488 422.5,143C 429.5,143.667 436.5,143.667 443.5,143C 457.025,139.494 464.025,130.661 464.5,116.5C 464.083,110.166 461.416,104.999 456.5,101C 445.25,97.1392 433.917,93.4726 422.5,90C 399.227,78.9671 393.727,62.1338 406,39.5C 415.744,29.7173 427.577,25.0507 441.5,25.5C 452.292,25.849 462.958,27.1823 473.5,29.5C 475.693,29.2814 477.693,28.6148 479.5,27.5 Z"/></g>
<g><path style="opacity:1" fill="#ea1f27" d="M 79.5,29.5 C 87.3225,30.6561 95.3225,30.8228 103.5,30C 104.858,29.0656 106.192,28.2323 107.5,27.5C 113.077,25.0505 118.743,22.5505 124.5,20C 136.071,19.0668 140.738,24.2335 138.5,35.5C 141.386,35.7104 144.386,35.8771 147.5,36C 154.666,38.8341 157.166,44.0008 155,51.5C 142.338,75.1038 142.338,98.7705 155,122.5C 156.809,135.358 151.309,140.858 138.5,139C 140.798,151.038 135.798,156.371 123.5,155C 116.701,151.598 109.701,148.765 102.5,146.5C 102.389,145.883 102.056,145.383 101.5,145C 93.9882,144.178 86.6549,144.345 79.5,145.5C 68.6369,148.232 57.9702,151.566 47.5,155.5C 41.7559,155.093 38.0892,152.093 36.5,146.5C 36.2924,144.08 36.6258,141.747 37.5,139.5C 34.9564,139.051 32.2898,139.051 29.5,139.5C 23.8553,137.688 20.5219,133.855 19.5,128C 23.0599,119.321 26.2266,110.488 29,101.5C 31.3648,85.1046 29.1982,69.438 22.5,54.5C 22.3184,52.4086 22.6518,50.4086 23.5,48.5C 20.887,42.5197 23.0537,38.853 30,37.5C 32.7834,38.3105 35.6167,38.3105 38.5,37.5C 37.7564,33.8815 37.423,30.2148 37.5,26.5C 39.0837,22.0903 42.2504,19.7569 47,19.5C 54.8583,22.1752 62.6916,25.0085 70.5,28C 73.4318,28.9533 76.4318,29.4533 79.5,29.5 Z"/></g>
<g><path style="opacity:1" fill="#fcf5f2" d="M 47.5,48.5 C 47.8966,47.475 48.5632,47.3083 49.5,48C 59.5,56.6667 69.5,65.3333 79.5,74C 85.7461,77.5639 91.7461,77.2306 97.5,73C 107.333,64.5 117.167,56 127,47.5C 119.246,58.6196 110.58,69.2862 101,79.5C 97.6667,84.8333 97.6667,90.1667 101,95.5C 110.58,105.714 119.246,116.38 127,127.5C 116.793,118.291 106.293,109.457 95.5,101C 90.1004,97.7271 84.767,97.7271 79.5,101C 70.9791,108.098 62.6457,115.431 54.5,123C 52.3089,124.919 49.9755,126.253 47.5,127C 56,117.167 64.5,107.333 73,97.5C 78.9967,90.8448 78.9967,84.1781 73,77.5C 64.6348,67.6399 56.1348,57.9732 47.5,48.5 Z"/></g>
<g><path style="opacity:1" fill="#d84342" d="M 107.5,27.5 C 106.192,28.2323 104.858,29.0656 103.5,30C 95.3225,30.8228 87.3225,30.6561 79.5,29.5C 88.9233,29.8465 98.2566,29.1798 107.5,27.5 Z"/></g>
<g><path style="opacity:1" fill="#ffd1c5" d="M 36.5,146.5 C 35.5386,144.735 35.2053,142.735 35.5,140.5C 33.2646,140.795 31.2646,140.461 29.5,139.5C 32.2898,139.051 34.9564,139.051 37.5,139.5C 36.6258,141.747 36.2924,144.08 36.5,146.5 Z"/></g>
<g><path style="opacity:1" fill="#ce3b3d" d="M 79.5,145.5 C 86.6549,144.345 93.9882,144.178 101.5,145C 102.056,145.383 102.389,145.883 102.5,146.5C 94.8539,145.793 87.1873,145.46 79.5,145.5 Z"/></g>
<g><path style="opacity:1" fill="#434242" d="M 175.5,146.5 C 197.66,147.497 219.994,147.831 242.5,147.5C 219.996,148.829 197.33,148.829 174.5,147.5C 174.624,146.893 174.957,146.56 175.5,146.5 Z"/></g>
<g><path style="opacity:1" fill="#444241" d="M 292.5,146.5 C 317.328,147.498 342.328,147.831 367.5,147.5C 342.33,148.829 316.997,148.829 291.5,147.5C 291.624,146.893 291.957,146.56 292.5,146.5 Z"/></g>
</svg>
