<?xml version="1.0" encoding="UTF-8"?>
<!DOCTYPE svg PUBLIC "-//W3C//DTD SVG 1.1//EN" "http://www.w3.org/Graphics/SVG/1.1/DTD/svg11.dtd">
<svg xmlns="http://www.w3.org/2000/svg" version="1.1" width="546px" height="92px" style="shape-rendering:geometricPrecision; text-rendering:geometricPrecision; image-rendering:optimizeQuality; fill-rule:evenodd; clip-rule:evenodd" xmlns:xlink="http://www.w3.org/1999/xlink">
<g><path style="opacity:1" fill="#fafdfe" d="M -0.5,-0.5 C 12.1667,-0.5 24.8333,-0.5 37.5,-0.5C 34.5149,0.182136 31.5149,1.18214 28.5,2.5C 26.876,3.86887 26.376,5.53554 27,7.5C 34.5812,5.74745 37.5812,8.74745 36,16.5C 33.646,22.0949 29.4793,23.9282 23.5,22C 23.0426,21.586 22.7093,21.086 22.5,20.5C 25.4531,16.5339 24.7865,13.3673 20.5,11C 9.69834,9.15858 3.19834,13.6586 1,24.5C 0.500461,30.8246 0.333794,37.1579 0.5,43.5C 0.166667,43.5 -0.166667,43.5 -0.5,43.5C -0.5,28.8333 -0.5,14.1667 -0.5,-0.5 Z"/></g>
<g><path style="opacity:1" fill="#0dadef" d="M 37.5,-0.5 C 39.5,-0.5 41.5,-0.5 43.5,-0.5C 46.7201,0.218569 48.8868,2.21857 50,5.5C 50.3333,9.16667 50.6667,12.8333 51,16.5C 53.3668,22.2671 57.5335,23.9337 63.5,21.5C 63.8333,21.1667 64.1667,20.8333 64.5,20.5C 61.1538,18.4384 60.6538,15.7718 63,12.5C 72.5043,8.4139 79.5043,11.0806 84,20.5C 88.2874,36.6064 86.1208,51.7731 77.5,66C 73.8942,64.7498 71.0609,62.2498 69,58.5C 69.2547,63.3592 70.4214,68.0258 72.5,72.5C 69.3864,71.9087 66.8864,70.242 65,67.5C 62.417,64.0026 60.0836,60.3359 58,56.5C 58.8242,64.3208 61.9908,71.1541 67.5,77C 60.7478,83.3711 53.0811,88.2044 44.5,91.5C 43.5,91.5 42.5,91.5 41.5,91.5C 32.9189,88.2044 25.2522,83.3711 18.5,77C 24.5374,71.4291 27.704,64.5958 28,56.5C 25.02,62.2906 21.1866,67.4573 16.5,72C 15.552,72.4828 14.552,72.6495 13.5,72.5C 14.0922,69.3093 15.2589,66.3093 17,63.5C 17.6667,61.8333 17.6667,60.1667 17,58.5C 14.6667,61.5 12.3333,64.5 10,67.5C 4.58213,60.4171 1.41547,52.4171 0.5,43.5C 0.333794,37.1579 0.500461,30.8246 1,24.5C 3.19834,13.6586 9.69834,9.15858 20.5,11C 24.7865,13.3673 25.4531,16.5339 22.5,20.5C 22.7093,21.086 23.0426,21.586 23.5,22C 29.4793,23.9282 33.646,22.0949 36,16.5C 37.5812,8.74745 34.5812,5.74745 27,7.5C 26.376,5.53554 26.876,3.86887 28.5,2.5C 31.5149,1.18214 34.5149,0.182136 37.5,-0.5 Z"/></g>
<g><path style="opacity:1" fill="#fdfefe" d="M 43.5,-0.5 C 210.833,-0.5 378.167,-0.5 545.5,-0.5C 545.5,30.1667 545.5,60.8333 545.5,91.5C 378.5,91.5 211.5,91.5 44.5,91.5C 53.0811,88.2044 60.7478,83.3711 67.5,77C 61.9908,71.1541 58.8242,64.3208 58,56.5C 60.0836,60.3359 62.417,64.0026 65,67.5C 66.8864,70.242 69.3864,71.9087 72.5,72.5C 70.4214,68.0258 69.2547,63.3592 69,58.5C 71.0609,62.2498 73.8942,64.7498 77.5,66C 86.1208,51.7731 88.2874,36.6064 84,20.5C 79.5043,11.0806 72.5043,8.4139 63,12.5C 60.6538,15.7718 61.1538,18.4384 64.5,20.5C 64.1667,20.8333 63.8333,21.1667 63.5,21.5C 57.5335,23.9337 53.3668,22.2671 51,16.5C 50.6667,12.8333 50.3333,9.16667 50,5.5C 48.8868,2.21857 46.7201,0.218569 43.5,-0.5 Z"/></g>
<g><path style="opacity:1" fill="#89d3f5" d="M 206.5,10.5 C 201.637,10.1805 196.97,10.5139 192.5,11.5C 191.957,11.44 191.624,11.1067 191.5,10.5C 196.652,9.18635 201.652,9.18635 206.5,10.5 Z"/></g>
<g><path style="opacity:1" fill="#17aeef" d="M 318.5,8.5 C 326.84,8.69102 335.174,9.02435 343.5,9.5C 343.295,15.2182 342.628,20.8848 341.5,26.5C 336.171,18.6653 328.838,15.832 319.5,18C 311.914,22.2701 307.414,28.7701 306,37.5C 303.113,48.8276 305.946,58.3276 314.5,66C 324.886,70.2966 334.386,68.7966 343,61.5C 339.784,73.8344 331.617,79.501 318.5,78.5C 305.38,77.6933 296.88,71.0266 293,58.5C 289.97,45.3233 291.97,32.9899 299,21.5C 304.36,15.2807 310.86,10.9474 318.5,8.5 Z"/></g>
<g><path style="opacity:1" fill="#8bd3f6" d="M 353.5,10.5 C 359.346,9.18341 365.346,9.18341 371.5,10.5C 371.376,11.1067 371.043,11.44 370.5,11.5C 365.025,10.5111 359.358,10.1778 353.5,10.5 Z"/></g>
<g><path style="opacity:1" fill="#8ed4f6" d="M 426.5,10.5 C 421.637,10.1805 416.97,10.5139 412.5,11.5C 411.957,11.44 411.624,11.1067 411.5,10.5C 416.652,9.18635 421.652,9.18635 426.5,10.5 Z"/></g>
<g><path style="opacity:1" fill="#1cafef" d="M 443.5,9.5 C 449.29,9.09616 454.956,9.59616 460.5,11C 465.05,19.9811 469.217,29.1478 473,38.5C 477.584,31.6676 481.917,24.6676 486,17.5C 486.497,14.854 486.664,12.1873 486.5,9.5C 492.176,9.33391 497.843,9.50058 503.5,10C 492.763,22.7476 483.596,36.5809 476,51.5C 475.197,59.8822 475.364,68.2155 476.5,76.5C 470.528,77.6636 464.528,77.8303 458.5,77C 464.328,62.2716 463.828,47.7716 457,33.5C 453.236,24.9596 448.736,16.9596 443.5,9.5 Z"/></g>
<g><path style="opacity:1" fill="#19aeef" d="M 521.5,8.5 C 529.179,8.59621 536.846,8.92954 544.5,9.5C 544.054,14.8518 543.387,20.1851 542.5,25.5C 536.516,17.628 528.849,15.4613 519.5,19C 515.077,24.8912 516.077,29.8912 522.5,34C 530.08,37.8654 536.58,43.0321 542,49.5C 546.754,65.1434 540.92,74.6434 524.5,78C 515.597,79.1349 506.93,78.3015 498.5,75.5C 498.969,69.8375 499.469,64.1709 500,58.5C 505.798,68.4804 514.298,71.9804 525.5,69C 530.609,65.6338 531.776,61.1338 529,55.5C 523.937,51.0507 518.437,47.2174 512.5,44C 503.279,36.8899 501.112,28.0565 506,17.5C 510.29,12.7786 515.457,9.7786 521.5,8.5 Z"/></g>
<g><path style="opacity:1" fill="#17aeef" d="M 115.5,9.5 C 126.505,9.33349 137.505,9.50015 148.5,10C 162.032,15.5105 164.032,23.8439 154.5,35C 152.112,36.8605 149.446,38.1939 146.5,39C 154.452,40.5526 159.952,45.0526 163,52.5C 162.726,66.4543 155.56,74.6209 141.5,77C 131.167,77.6667 120.833,77.6667 110.5,77C 113.262,67.7507 114.762,58.2507 115,48.5C 116.454,35.4877 116.621,22.4877 115.5,9.5 Z"/></g>
<g><path style="opacity:1" fill="#18aeef" d="M 206.5,10.5 C 211.422,27.4376 216.255,44.4376 221,61.5C 222.571,67.1408 225.071,72.3075 228.5,77C 223.89,78.2905 219.223,78.6238 214.5,78C 210.543,71.3562 207.876,64.1895 206.5,56.5C 198.196,57.6414 189.863,58.6414 181.5,59.5C 177.794,64.9492 176.127,70.9492 176.5,77.5C 171.156,77.666 165.823,77.4994 160.5,77C 168.473,65.5615 175.307,53.3949 181,40.5C 184.333,33.1667 187.667,25.8333 191,18.5C 191.977,16.26 192.477,13.9267 192.5,11.5C 196.97,10.5139 201.637,10.1805 206.5,10.5 Z"/></g>
<g><path style="opacity:1" fill="#17aeef" d="M 237.5,10.5 C 247.992,9.34121 258.659,9.17455 269.5,10C 282.608,14.7259 285.775,23.2259 279,35.5C 275.441,39.361 271.275,42.361 266.5,44.5C 274.928,56.43 283.928,67.93 293.5,79C 288.282,80.5628 282.949,80.8962 277.5,80C 269.878,69.9223 262.378,59.7556 255,49.5C 253.89,47.9632 252.39,47.2965 250.5,47.5C 249.556,56.8172 249.39,66.1505 250,75.5C 250.5,76 251,76.5 251.5,77C 245.5,77.6667 239.5,77.6667 233.5,77C 234.56,74.2633 235.394,71.43 236,68.5C 238.33,49.8941 239.33,31.2275 239,12.5C 238.722,11.5842 238.222,10.9175 237.5,10.5 Z"/></g>
<g><path style="opacity:1" fill="#17aeef" d="M 353.5,10.5 C 359.358,10.1778 365.025,10.5111 370.5,11.5C 367.041,29.9671 365.541,48.6337 366,67.5C 371.75,68.6406 377.584,68.8072 383.5,68C 385.587,67.2078 387.421,66.0412 389,64.5C 395.923,50.9869 402.59,37.3202 409,23.5C 410.881,19.6928 412.047,15.6928 412.5,11.5C 416.97,10.5139 421.637,10.1805 426.5,10.5C 431.65,29.4663 437.15,48.4663 443,67.5C 444.455,70.9121 446.288,74.0788 448.5,77C 443.905,78.3929 439.239,78.7262 434.5,78C 431.03,71.9313 428.53,65.4313 427,58.5C 426.612,57.572 425.945,56.9054 425,56.5C 417.265,58.0061 409.432,59.0061 401.5,59.5C 400.274,62.9518 398.774,66.2852 397,69.5C 396.503,72.146 396.336,74.8127 396.5,77.5C 380.497,77.6666 364.497,77.4999 348.5,77C 351.339,69.1369 352.839,60.9702 353,52.5C 354.516,38.4478 354.683,24.4478 353.5,10.5 Z"/></g>
<g><path style="opacity:1" fill="#fafdfe" d="M 129.5,18.5 C 133.514,18.3345 137.514,18.5012 141.5,19C 147.377,22.8043 148.044,27.471 143.5,33C 138.947,36.0078 133.947,37.1744 128.5,36.5C 128.966,30.509 129.299,24.509 129.5,18.5 Z"/></g>
<g><path style="opacity:1" fill="#f9fcfe" d="M 252.5,18.5 C 256.967,18.1326 261.3,18.6326 265.5,20C 270.627,29.4274 267.961,35.7608 257.5,39C 255.527,39.4955 253.527,39.6621 251.5,39.5C 251.773,32.4964 252.106,25.4964 252.5,18.5 Z"/></g>
<g><path style="opacity:1" fill="#f5fbfe" d="M 196.5,26.5 C 197.117,26.6107 197.617,26.944 198,27.5C 199.785,34.8102 201.951,41.9769 204.5,49C 198.472,49.8303 192.472,49.6636 186.5,48.5C 190.04,41.1919 193.374,33.8586 196.5,26.5 Z"/></g>
<g><path style="opacity:1" fill="#f5fbfe" d="M 416.5,26.5 C 417.117,26.6107 417.617,26.944 418,27.5C 420.013,34.5522 422.179,41.5522 424.5,48.5C 418.528,49.6636 412.528,49.8303 406.5,49C 410.249,41.6705 413.582,34.1705 416.5,26.5 Z"/></g>
<g><path style="opacity:1" fill="#fcfefe" d="M -0.5,43.5 C -0.166667,43.5 0.166667,43.5 0.5,43.5C 1.41547,52.4171 4.58213,60.4171 10,67.5C 12.3333,64.5 14.6667,61.5 17,58.5C 17.6667,60.1667 17.6667,61.8333 17,63.5C 15.2589,66.3093 14.0922,69.3093 13.5,72.5C 14.552,72.6495 15.552,72.4828 16.5,72C 21.1866,67.4573 25.02,62.2906 28,56.5C 27.704,64.5958 24.5374,71.4291 18.5,77C 25.2522,83.3711 32.9189,88.2044 41.5,91.5C 27.5,91.5 13.5,91.5 -0.5,91.5C -0.5,75.5 -0.5,59.5 -0.5,43.5 Z"/></g>
<g><path style="opacity:1" fill="#f8fcfe" d="M 128.5,44.5 C 136.25,43.5816 142.75,45.915 148,51.5C 150.018,63.1603 145.018,69.1603 133,69.5C 130.739,69.5609 128.739,68.8943 127,67.5C 126.271,59.711 126.771,52.0443 128.5,44.5 Z"/></g>
</svg>
